<svg width="176" height="47" viewBox="0 0 176 47" fill="none" xmlns="http://www.w3.org/2000/svg">
<path d="M33.3885 44.4724C29.5907 44.4724 26.4982 41.381 26.4982 37.5846V33.4302C26.4982 32.0093 25.3371 30.8487 23.9156 30.8487H21.7563C20.3348 30.8487 19.1737 32.0093 19.1737 33.4302V37.5955C19.1737 41.3919 16.0812 44.4833 12.2833 44.4833H9.03889C5.24104 44.4833 2.1485 41.3919 2.1485 37.5955V9.0355C2.1485 5.23908 5.24104 2.14771 9.03889 2.14771H12.2833C16.0812 2.14771 19.1737 5.23908 19.1737 9.0355V12.9838C19.1737 14.4047 20.3348 15.5653 21.7563 15.5653H23.9156C25.3371 15.5653 26.4982 14.4047 26.4982 12.9838V9.0355C26.4982 5.23908 29.5907 2.14771 33.3885 2.14771H36.633C40.4309 2.14771 43.5234 5.23908 43.5234 9.0355V37.5955C43.5234 41.3919 40.4309 44.4833 36.633 44.4833H33.3885V44.4724Z" fill="url(#paint0_linear)"/>
<path d="M36.633 4.29538C39.2481 4.29538 41.364 6.41053 41.364 9.02464V37.5846C41.364 40.1987 39.2481 42.3139 36.633 42.3139H33.3885C30.7734 42.3139 28.6575 40.1987 28.6575 37.5846V33.4302C28.6575 30.8161 26.5416 28.701 23.9265 28.701H21.7671C19.152 28.701 17.0361 30.8161 17.0361 33.4302V37.5954C17.0361 40.2096 14.9201 42.3247 12.305 42.3247H9.06059C6.4455 42.3247 4.32955 40.2096 4.32955 37.5954V9.03549C4.32955 6.42138 6.4455 4.30623 9.06059 4.30623H12.305C14.9201 4.30623 17.0361 6.42138 17.0361 9.03549V12.9838C17.0361 15.5979 19.152 17.713 21.7671 17.713H23.9265C26.5416 17.713 28.6575 15.5979 28.6575 12.9838V9.03549C28.6575 6.42138 30.7734 4.30623 33.3885 4.30623H36.633V4.29538ZM36.633 0H33.3885C28.4079 0 24.3497 4.05675 24.3497 9.03549V12.9838C24.3497 13.2224 24.1543 13.4176 23.9156 13.4176H21.7563C21.5175 13.4176 21.3222 13.2224 21.3222 12.9838V9.03549C21.3222 4.05675 17.2639 0 12.2833 0H9.03889C4.05827 0 0 4.05675 0 9.03549V37.5954C0 42.5742 4.05827 46.6309 9.03889 46.6309H12.2833C17.2639 46.6309 21.3222 42.5742 21.3222 37.5954V33.4302C21.3222 33.1916 21.5175 32.9963 21.7563 32.9963H23.9156C24.1543 32.9963 24.3497 33.1916 24.3497 33.4302V37.5954C24.3497 42.5742 28.4079 46.6309 33.3885 46.6309H36.633C41.6136 46.6309 45.6719 42.5742 45.6719 37.5954V9.03549C45.6719 4.05675 41.6245 0 36.633 0Z" fill="white"/>
<path d="M69.4361 31.2104H65.2634V23.9412H59.0822V31.2104H54.8856V13.8025H59.0822V20.7131H65.2634V13.8025H69.4361V31.2104ZM79.2041 31.2104C79.0606 30.9474 78.9331 30.5608 78.8215 30.0507C78.0803 30.9833 77.0441 31.4496 75.713 31.4496C74.4935 31.4496 73.4573 31.0829 72.6044 30.3496C71.7515 29.6083 71.3251 28.6798 71.3251 27.5639C71.3251 26.161 71.8432 25.1009 72.8794 24.3836C73.9156 23.6662 75.422 23.3075 77.3988 23.3075H78.6422V22.626C78.6422 21.4384 78.1281 20.8446 77.0999 20.8446C76.1434 20.8446 75.6651 21.3149 75.6651 22.2554H71.636C71.636 21.004 72.166 19.9877 73.2261 19.2066C74.2942 18.4255 75.6532 18.0349 77.3031 18.0349C78.953 18.0349 80.2563 18.4374 81.2127 19.2425C82.1692 20.0475 82.6594 21.1515 82.6833 22.5543V28.2812C82.6993 29.4689 82.8826 30.3775 83.2333 31.0072V31.2104H79.2041ZM76.6814 28.5801C77.1836 28.5801 77.598 28.4725 77.9248 28.2573C78.2596 28.0421 78.4987 27.799 78.6422 27.528V25.4596H77.4705C76.0677 25.4596 75.3662 26.0893 75.3662 27.3487C75.3662 27.7153 75.4898 28.0142 75.7369 28.2454C75.984 28.4685 76.2988 28.5801 76.6814 28.5801ZM91.6982 27.5758C91.6982 27.2331 91.5188 26.9581 91.1601 26.7509C90.8015 26.5436 90.12 26.3284 89.1157 26.1052C88.1114 25.8821 87.2824 25.5911 86.6288 25.2324C85.9752 24.8658 85.477 24.4234 85.1343 23.9053C84.7916 23.3872 84.6202 22.7934 84.6202 22.1239C84.6202 20.9363 85.1104 19.9598 86.0908 19.1947C87.0712 18.4215 88.3545 18.0349 89.9406 18.0349C91.6463 18.0349 93.0173 18.4215 94.0535 19.1947C95.0897 19.9678 95.6078 20.9841 95.6078 22.2434H91.5666C91.5666 21.2073 91.0206 20.6892 89.9287 20.6892C89.5062 20.6892 89.1515 20.8087 88.8646 21.0478C88.5776 21.279 88.4342 21.5699 88.4342 21.9206C88.4342 22.2793 88.6095 22.5702 88.9602 22.7934C89.3109 23.0166 89.8689 23.1999 90.6341 23.3434C91.4072 23.4869 92.0847 23.6582 92.6666 23.8575C94.6114 24.527 95.5839 25.7266 95.5839 27.4563C95.5839 28.6359 95.0578 29.5964 94.0057 30.3377C92.9615 31.0789 91.6065 31.4496 89.9406 31.4496C88.8327 31.4496 87.8443 31.2503 86.9755 30.8518C86.1067 30.4532 85.4292 29.9112 84.943 29.2258C84.4568 28.5403 84.2137 27.8189 84.2137 27.0617H87.9798C87.9958 27.6595 88.195 28.0979 88.5776 28.3769C88.9602 28.6479 89.4504 28.7834 90.0482 28.7834C90.5982 28.7834 91.0087 28.6718 91.2797 28.4486C91.5587 28.2254 91.6982 27.9345 91.6982 27.5758ZM101.418 19.6609C102.279 18.5769 103.379 18.0349 104.718 18.0349C106.145 18.0349 107.221 18.4574 107.946 19.3023C108.672 20.1472 109.042 21.3946 109.058 23.0445V31.2104H105.017V23.1401C105.017 22.4547 104.878 21.9525 104.599 21.6337C104.32 21.3069 103.845 21.1435 103.176 21.1435C102.347 21.1435 101.761 21.4065 101.418 21.9326V31.2104H97.3892V12.846H101.418V19.6609ZM110.828 24.6466C110.828 23.3394 111.043 22.1837 111.473 21.1794C111.904 20.1751 112.522 19.4019 113.327 18.8599C114.132 18.3099 115.068 18.0349 116.136 18.0349C117.483 18.0349 118.535 18.4893 119.293 19.3979L119.436 18.274H123.095V30.7203C123.095 31.8601 122.828 32.8484 122.294 33.6853C121.768 34.5302 121.002 35.1759 119.998 35.6222C118.994 36.0765 117.83 36.3037 116.507 36.3037C115.558 36.3037 114.638 36.1244 113.745 35.7657C112.86 35.407 112.183 34.9407 111.713 34.3668L113.398 31.9995C114.148 32.8843 115.136 33.3267 116.363 33.3267C118.149 33.3267 119.042 32.41 119.042 30.5768V30.1703C118.268 31.0231 117.292 31.4496 116.112 31.4496C114.534 31.4496 113.259 30.8478 112.286 29.6442C111.314 28.4327 110.828 26.8146 110.828 24.7901V24.6466ZM114.869 24.8977C114.869 25.9578 115.068 26.7987 115.467 27.4204C115.865 28.0341 116.423 28.341 117.141 28.341C118.009 28.341 118.643 28.0501 119.042 27.4682V22.0282C118.651 21.4384 118.025 21.1435 117.164 21.1435C116.447 21.1435 115.885 21.4663 115.479 22.1119C115.072 22.7496 114.869 23.6782 114.869 24.8977ZM133.209 21.9206L131.882 21.825C130.615 21.825 129.802 22.2235 129.443 23.0206V31.2104H125.414V18.274H129.192L129.324 19.9359C130.001 18.6686 130.946 18.0349 132.157 18.0349C132.588 18.0349 132.962 18.0827 133.281 18.1784L133.209 21.9206ZM140.682 31.4496C138.697 31.4496 137.091 30.8597 135.864 29.6801C134.636 28.4924 134.022 26.9501 134.022 25.0531V24.7183C134.022 23.3952 134.266 22.2275 134.752 21.2152C135.246 20.2029 135.963 19.4218 136.904 18.8718C137.844 18.3139 138.96 18.0349 140.252 18.0349C142.069 18.0349 143.504 18.6008 144.556 19.7327C145.608 20.8565 146.134 22.4268 146.134 24.4433V26.0096H138.123C138.267 26.7349 138.582 27.3048 139.068 27.7193C139.554 28.1338 140.184 28.341 140.957 28.341C142.232 28.341 143.229 27.8946 143.946 27.0019L145.787 29.1779C145.285 29.8714 144.572 30.4253 143.647 30.8398C142.73 31.2463 141.742 31.4496 140.682 31.4496ZM140.228 21.1435C139.048 21.1435 138.347 21.9246 138.123 23.4869H142.188V23.176C142.204 22.5304 142.041 22.0322 141.698 21.6815C141.355 21.3228 140.865 21.1435 140.228 21.1435ZM154.025 31.4496C152.04 31.4496 150.434 30.8597 149.207 29.6801C147.979 28.4924 147.365 26.9501 147.365 25.0531V24.7183C147.365 23.3952 147.608 22.2275 148.095 21.2152C148.589 20.2029 149.306 19.4218 150.247 18.8718C151.187 18.3139 152.303 18.0349 153.594 18.0349C155.412 18.0349 156.846 18.6008 157.899 19.7327C158.951 20.8565 159.477 22.4268 159.477 24.4433V26.0096H151.466C151.61 26.7349 151.925 27.3048 152.411 27.7193C152.897 28.1338 153.527 28.341 154.3 28.341C155.575 28.341 156.571 27.8946 157.289 27.0019L159.13 29.1779C158.628 29.8714 157.915 30.4253 156.99 30.8398C156.073 31.2463 155.085 31.4496 154.025 31.4496ZM153.571 21.1435C152.391 21.1435 151.689 21.9246 151.466 23.4869H155.531V23.176C155.547 22.5304 155.384 22.0322 155.041 21.6815C154.698 21.3228 154.208 21.1435 153.571 21.1435ZM160.601 24.6466C160.601 22.5981 161.043 20.9841 161.928 19.8044C162.813 18.6248 164.048 18.0349 165.634 18.0349C166.79 18.0349 167.762 18.4893 168.551 19.3979V12.846H172.593V31.2104H168.97L168.767 29.8236C167.938 30.9076 166.886 31.4496 165.61 31.4496C164.072 31.4496 162.852 30.8597 161.952 29.6801C161.051 28.5004 160.601 26.8226 160.601 24.6466ZM164.63 24.8977C164.63 27.1932 165.299 28.341 166.638 28.341C167.531 28.341 168.169 27.9664 168.551 27.2171V22.2913C168.185 21.5261 167.555 21.1435 166.662 21.1435C165.419 21.1435 164.745 22.1478 164.642 24.1564L164.63 24.8977Z" fill="white"/>
<defs>
<linearGradient id="paint0_linear" x1="3.93194" y1="42.214" x2="41.7343" y2="4.39744" gradientUnits="userSpaceOnUse">
<stop stop-color="#F34F93"/>
<stop offset="1" stop-color="#8F4FF6"/>
</linearGradient>
</defs>
</svg>
