<svg width="18" height="18" viewBox="0 0 18 18" fill="none" xmlns="http://www.w3.org/2000/svg"><path d="M0 6.75021L8.667 12.2661C8.766 12.3392 8.883 12.3752 9 12.3752C9.117 12.3752 9.234 12.3392 9.333 12.2661L18 6.75021L9.3375 0.112707C9.13725 -0.036918 8.86275 -0.036918 8.6625 0.112707L0 6.75021Z" fill="#EA6938"></path><path d="M14.625 0H3.375C2.75512 0 2.25 0.505125 2.25 1.125V13.5C2.25 13.8105 2.502 14.0625 2.8125 14.0625H15.1875C15.498 14.0625 15.75 13.8105 15.75 13.5V1.125C15.75 0.505125 15.246 0 14.625 0Z" fill="#E5E5E5"></path><path fill-rule="evenodd" clip-rule="evenodd" d="M9 7L14 12H4L9 7Z" fill="#5A81EA"></path><path fill-rule="evenodd" clip-rule="evenodd" d="M9 7L14 2H4L9 7Z" fill="#E14B51"></path><path d="M9.333 12.2659C9.234 12.339 9.117 12.375 9 12.375C8.883 12.375 8.766 12.339 8.667 12.2659L0 6.75V16.875C0 17.496 0.504 18 1.125 18H16.875C17.496 18 18 17.496 18 16.875V6.75L9.333 12.2659Z" fill="#FFA654"></path><path d="M16.875 18H1.125C0.493875 18 0 17.5061 0 16.875C0 16.6961 0.0855 16.5274 0.2295 16.4216L8.667 10.7966C8.766 10.7235 8.883 10.6875 9 10.6875C9.117 10.6875 9.234 10.7235 9.333 10.7966L17.7705 16.4216C17.9145 16.5274 18 16.6961 18 16.875C18 17.5061 17.5061 18 16.875 18Z" fill="#FFC650"></path></svg>