<svg xmlns="http://www.w3.org/2000/svg" xmlns:xlink="http://www.w3.org/1999/xlink" viewBox="0 0 3710 3710"><defs><style>.a{fill:none;}.b{isolation:isolate;}.c{fill:#f0f4f8;}.d{clip-path:url(#a);}.e{fill:url(#b);}.f{clip-path:url(#c);}.g{fill:#fafbfd;}.h{clip-path:url(#d);}.i{fill:url(#e);}.j{fill:#b1bbcc;}.k{fill:#ced5e2;}.fc,.l{fill:#fff;}.m{fill:url(#f);}.fi,.fp,.fr,.fy,.n{opacity:0.3;}.fc,.n{mix-blend-mode:soft-light;}.o{opacity:0.69;}.p{fill:url(#g);}.q{fill:url(#h);}.r{fill:url(#i);}.s{fill:url(#j);}.t{fill:url(#k);}.u{fill:url(#l);}.v{fill:url(#m);}.w{fill:url(#n);}.x{fill:url(#o);}.y{fill:url(#p);}.z{fill:url(#q);}.aa{fill:url(#r);}.ab{fill:url(#s);}.ac{fill:url(#t);}.ad{fill:url(#u);}.ae{fill:url(#v);}.af{fill:url(#w);}.ag{fill:url(#x);}.ah{fill:url(#y);}.ai{fill:url(#z);}.aj{fill:url(#aa);}.ak{fill:url(#ab);}.al{fill:url(#ac);}.am{fill:url(#ad);}.an{fill:url(#ae);}.ao{fill:url(#af);}.ap{fill:url(#ag);}.aq{fill:url(#ah);}.ar{fill:url(#ai);}.as{fill:url(#aj);}.at{fill:url(#ak);}.au{fill:url(#al);}.av{fill:url(#am);}.aw{fill:url(#an);}.ax{fill:url(#ao);}.ay{fill:url(#ap);}.az{fill:url(#aq);}.ba{fill:url(#ar);}.bb{fill:url(#as);}.bc{fill:url(#at);}.bd{fill:url(#au);}.be{fill:url(#av);}.bf{fill:url(#aw);}.bg{fill:url(#ax);}.bh{fill:url(#ay);}.bi{fill:url(#az);}.bj{fill:url(#ba);}.bk{fill:url(#bb);}.bl{fill:url(#bc);}.bm{fill:url(#bd);}.bn{fill:url(#be);}.bo{fill:url(#bf);}.bp{fill:url(#bg);}.bq{fill:url(#bh);}.br{fill:url(#bi);}.bs{fill:url(#bj);}.bt{fill:url(#bk);}.bu{fill:url(#bl);}.bv{fill:url(#bm);}.bw{fill:url(#bn);}.bx{fill:url(#bo);}.by{fill:url(#bp);}.bz{fill:url(#bq);}.ca{fill:url(#br);}.cb{fill:url(#bs);}.cc{fill:url(#bt);}.cd{fill:url(#bu);}.ce{fill:url(#bv);}.cf{fill:url(#bw);}.cg{fill:url(#bx);}.ch{fill:url(#by);}.ci{fill:url(#bz);}.cj{fill:url(#ca);}.ck{fill:url(#cb);}.cl{fill:url(#cc);}.cm{fill:url(#cd);}.cn{fill:url(#ce);}.co{fill:url(#cf);}.cp{fill:url(#cg);}.cq{fill:url(#ch);}.cr{fill:url(#ci);}.cs{fill:url(#cj);}.ct{fill:url(#ck);}.cu{fill:url(#cl);}.cv{fill:url(#cm);}.cw{fill:url(#cn);}.cx{fill:url(#co);}.cy{fill:url(#cp);}.cz{fill:url(#cq);}.da{fill:url(#cr);}.db{fill:url(#cs);}.dc{fill:url(#ct);}.dd{fill:url(#cu);}.de{fill:url(#cv);}.df{fill:url(#cw);}.dg{fill:url(#cx);}.dh{fill:url(#cy);}.di{fill:url(#cz);}.dj{fill:url(#da);}.dk{fill:url(#db);}.dl{fill:url(#dc);}.dm{fill:url(#dd);}.dn{fill:url(#de);}.do{fill:url(#df);}.dp{fill:url(#dg);}.dq{fill:url(#dh);}.dr{fill:url(#di);}.ds{fill:url(#dj);}.dt{fill:url(#dk);}.du{fill:url(#dl);}.dv{fill:url(#dm);}.dw{fill:url(#dn);}.dx{fill:url(#do);}.dy{fill:url(#dp);}.dz{fill:url(#dq);}.ea{fill:url(#dr);}.eb{fill:url(#ds);}.ec{fill:url(#dt);}.ed{fill:url(#du);}.ee{fill:url(#dv);}.ef{fill:url(#dw);}.eg{fill:url(#dx);}.eh{fill:url(#dy);}.ei{fill:url(#dz);}.ej{fill:url(#ea);}.ek{fill:url(#eb);}.el{fill:url(#ec);}.em{fill:url(#ed);}.en{fill:url(#ee);}.eo{fill:url(#ef);}.ep{fill:url(#eg);}.eq{fill:url(#eh);}.er{fill:url(#ei);}.es{fill:url(#ej);}.et{fill:url(#ek);}.eu{fill:url(#el);}.ev{fill:url(#em);}.ew{fill:url(#en);}.ex{fill:url(#eo);}.ey{fill:url(#ep);}.ez{fill:url(#eq);}.fa{fill:url(#er);}.fb{fill:url(#es);}.fc{opacity:0.35;}.fd{fill:url(#et);}.fe{fill:url(#eu);}.ff{fill:url(#ev);}.fg{fill:url(#ew);}.fh{fill:url(#ex);}.fi,.fp,.fr,.fy{mix-blend-mode:multiply;}.fi{fill:url(#ey);}.fj{fill:url(#ez);}.fk{fill:url(#fa);}.fl{fill:url(#fb);}.fm{fill:url(#fc);}.fn{fill:url(#fd);}.fo{fill:url(#fe);}.fp{fill:url(#ff);}.fq{fill:url(#fg);}.fr{fill:url(#fh);}.fs{fill:url(#fi);}.ft{fill:url(#fj);}.fu{fill:url(#fk);}.fv{fill:url(#fl);}.fw{fill:url(#fm);}.fx{fill:url(#fn);}.fy{fill:url(#fo);}</style><clipPath id="a"><rect class="a" x="913.85" y="515.56" width="2159.01" height="2371.66"/></clipPath><linearGradient id="b" x1="-3910.62" y1="-3347.99" x2="-3179.68" y2="1324.8" gradientTransform="matrix(-0.58, -0.81, -0.81, 0.58, -1862.42, 659.31)" gradientUnits="userSpaceOnUse"><stop offset="0" stop-color="#f77971"/><stop offset="1" stop-color="#f154ae"/></linearGradient><clipPath id="c"><path class="a" d="M954.71,2692c.2,183.91-7.17,371.05-8,556.26,96.9,40.26,211.88,85.26,273.48-30,85.66-160.21,402.2-130.22,542.74-88.48,174,51.65,560.33,128.36,559.81-138.47-.43-222.13-88.78-358.83,177.16-413.06s412-199.5,375.32-445.22c-38.61-258.59,277.46-489.77,108.3-701.68-294.74-369.24-786,187.31-876,549.94s-259.08,223.19-509.77,219.16c-342.25-5.49-170.1,367.81-329.51,469.35C1143.31,2749.43,1078.94,2706.68,954.71,2692Z"/></clipPath><clipPath id="d"><path class="a" d="M1756.45,3547.47q-201.84-29.68-403.18-68.64c-2.19,2-46.3-290.53,92.64-443.93,274.76-297.17,89.69-563.88,36.9-721.92-84.49-222.85-41.18-493.71,204.27-443,239.13,43.69,275.4-448.61,234.13-827.86C1886,857.55,2060.14,633.59,2234,582.4c177.42-56.71,354.48,59.37,408.74,427.3,82.15,426-228.75,682.91-343.87,896.49-113.28,209.68,150.23,379.32-61.87,565.09-178.4,165.08-403.25,283.74-321,491.09C2000.46,3167.37,1980.23,3335,1756.45,3547.47Z"/></clipPath><linearGradient id="e" x1="765.3" y1="-1253.11" x2="-200.92" y2="1492.99" gradientTransform="matrix(-0.87, -0.5, -0.5, 0.87, 2274.71, 2110.01)" gradientUnits="userSpaceOnUse"><stop offset="0" stop-color="#fbb62b"/><stop offset="1" stop-color="#e85743"/></linearGradient><linearGradient id="f" x1="1646.13" y1="920.36" x2="2070.13" y2="1157.97" gradientUnits="userSpaceOnUse"><stop offset="0" stop-color="#34397b"/><stop offset="1" stop-color="#1c1c3f"/></linearGradient><linearGradient id="g" x1="1573.5" y1="987.24" x2="1584.06" y2="1148.28" gradientTransform="matrix(1, 0, 0, 1, 0, 0)" xlink:href="#b"/><linearGradient id="h" x1="1611.89" y1="1087.33" x2="1613.3" y2="1108.88" gradientTransform="matrix(1, 0, 0, 1, 0, 0)" xlink:href="#b"/><linearGradient id="i" x1="1645.04" y1="1022.63" x2="1652.3" y2="1133.33" gradientTransform="matrix(1, 0, 0, 1, 0, 0)" xlink:href="#b"/><linearGradient id="j" x1="1681.59" y1="1068.32" x2="1684.82" y2="1117.47" gradientTransform="matrix(1, 0, 0, 1, 0, 0)" xlink:href="#b"/><linearGradient id="k" x1="1714.81" y1="1013.73" x2="1722.79" y2="1135.57" gradientTransform="matrix(1, 0, 0, 1, 0, 0)" xlink:href="#b"/><linearGradient id="l" x1="1750.62" y1="1041.96" x2="1756.17" y2="1126.62" gradientTransform="matrix(1, 0, 0, 1, 0, 0)" xlink:href="#b"/><linearGradient id="m" x1="1783.83" y1="994.93" x2="1793.33" y2="1139.94" gradientTransform="matrix(1, 0, 0, 1, 0, 0)" xlink:href="#b"/><linearGradient id="n" x1="1818.09" y1="982.87" x2="1828.54" y2="1142.31" gradientTransform="matrix(1, 0, 0, 1, 0, 0)" xlink:href="#b"/><linearGradient id="o" x1="1854.82" y1="1045.21" x2="1860.12" y2="1126.04" gradientTransform="matrix(1, 0, 0, 1, 0, 0)" xlink:href="#b"/><linearGradient id="p" x1="1886.67" y1="969.56" x2="1898.07" y2="1143.38" gradientTransform="matrix(1, 0, 0, 1, 0, 0)" xlink:href="#b"/><linearGradient id="q" x1="1921.76" y1="989.76" x2="1931.48" y2="1137.95" gradientTransform="matrix(1, 0, 0, 1, 0, 0)" xlink:href="#b"/><linearGradient id="r" x1="1959.23" y1="1078.46" x2="1961.95" y2="1119.92" gradientTransform="matrix(1, 0, 0, 1, 0, 0)" xlink:href="#b"/><linearGradient id="s" x1="1991.86" y1="1034.38" x2="1998.03" y2="1128.4" gradientTransform="matrix(1, 0, 0, 1, 0, 0)" xlink:href="#b"/><linearGradient id="t" x1="2024.7" y1="999.7" x2="2033.51" y2="1133.96" gradientTransform="matrix(1, 0, 0, 1, 0, 0)" xlink:href="#b"/><linearGradient id="u" x1="2059.85" y1="1030.41" x2="2066.31" y2="1128.83" gradientTransform="matrix(1, 0, 0, 1, 0, 0)" xlink:href="#b"/><linearGradient id="v" x1="2092.03" y1="983.74" x2="2101.94" y2="1134.87" gradientTransform="matrix(1, 0, 0, 1, 0, 0)" xlink:href="#b"/><linearGradient id="w" x1="2125.27" y1="968.39" x2="2136.25" y2="1135.87" gradientTransform="matrix(1, 0, 0, 1, 0, 0)" xlink:href="#b"/><linearGradient id="x" x1="1647.23" y1="1195.07" x2="2068.97" y2="1431.42" xlink:href="#f"/><linearGradient id="y" x1="1573.51" y1="1264.49" x2="1584.05" y2="1425.24" gradientTransform="matrix(1, 0, 0, 1, 0, 0)" xlink:href="#b"/><linearGradient id="z" x1="1611.89" y1="1364.19" x2="1613.29" y2="1385.45" gradientTransform="matrix(1, 0, 0, 1, 0, 0)" xlink:href="#b"/><linearGradient id="aa" x1="1645.05" y1="1299.1" x2="1652.29" y2="1409.51" gradientTransform="matrix(1, 0, 0, 1, 0, 0)" xlink:href="#b"/><linearGradient id="ab" x1="1681.6" y1="1344.41" x2="1684.81" y2="1393.27" gradientTransform="matrix(1, 0, 0, 1, 0, 0)" xlink:href="#b"/><linearGradient id="ac" x1="1714.81" y1="1289.44" x2="1722.78" y2="1410.98" gradientTransform="matrix(1, 0, 0, 1, 0, 0)" xlink:href="#b"/><linearGradient id="ad" x1="1750.63" y1="1317.28" x2="1756.16" y2="1401.65" gradientTransform="matrix(1, 0, 0, 1, 0, 0)" xlink:href="#b"/><linearGradient id="ae" x1="1783.83" y1="1269.87" x2="1793.32" y2="1414.59" gradientTransform="matrix(1, 0, 0, 1, 0, 0)" xlink:href="#b"/><linearGradient id="af" x1="1818.09" y1="1257.42" x2="1828.53" y2="1416.58" gradientTransform="matrix(1, 0, 0, 1, 0, 0)" xlink:href="#b"/><linearGradient id="ag" x1="1854.83" y1="1319.38" x2="1860.11" y2="1399.93" gradientTransform="matrix(1, 0, 0, 1, 0, 0)" xlink:href="#b"/><linearGradient id="ah" x1="1886.68" y1="1243.35" x2="1898.05" y2="1416.89" gradientTransform="matrix(1, 0, 0, 1, 0, 0)" xlink:href="#b"/><linearGradient id="ai" x1="1921.77" y1="1263.18" x2="1931.47" y2="1411.08" gradientTransform="matrix(1, 0, 0, 1, 0, 0)" xlink:href="#b"/><linearGradient id="aj" x1="1959.24" y1="1351.5" x2="1961.94" y2="1392.67" gradientTransform="matrix(1, 0, 0, 1, 0, 0)" xlink:href="#b"/><linearGradient id="ak" x1="1991.87" y1="1307.04" x2="1998.02" y2="1400.78" gradientTransform="matrix(1, 0, 0, 1, 0, 0)" xlink:href="#b"/><linearGradient id="al" x1="2024.71" y1="1271.99" x2="2033.5" y2="1405.97" gradientTransform="matrix(1, 0, 0, 1, 0, 0)" xlink:href="#b"/><linearGradient id="am" x1="2059.86" y1="1302.32" x2="2066.3" y2="1400.47" gradientTransform="matrix(1, 0, 0, 1, 0, 0)" xlink:href="#b"/><linearGradient id="an" x1="2092.04" y1="1255.28" x2="2101.93" y2="1406.13" gradientTransform="matrix(1, 0, 0, 1, 0, 0)" xlink:href="#b"/><linearGradient id="ao" x1="2125.28" y1="1239.56" x2="2136.24" y2="1406.76" gradientTransform="matrix(1, 0, 0, 1, 0, 0)" xlink:href="#b"/><linearGradient id="ap" x1="1648.32" y1="1469.79" x2="2067.8" y2="1704.87" xlink:href="#f"/><linearGradient id="aq" x1="1573.52" y1="1541.73" x2="1584.04" y2="1702.19" gradientTransform="matrix(1, 0, 0, 1, 0, 0)" xlink:href="#b"/><linearGradient id="ar" x1="1611.9" y1="1641.04" x2="1613.28" y2="1662.02" gradientTransform="matrix(1, 0, 0, 1, 0, 0)" xlink:href="#b"/><linearGradient id="as" x1="1645.06" y1="1575.57" x2="1652.28" y2="1685.69" gradientTransform="matrix(1, 0, 0, 1, 0, 0)" xlink:href="#b"/><linearGradient id="at" x1="1681.61" y1="1620.49" x2="1684.79" y2="1669.06" gradientTransform="matrix(1, 0, 0, 1, 0, 0)" xlink:href="#b"/><linearGradient id="au" x1="1714.82" y1="1565.14" x2="1722.77" y2="1686.4" gradientTransform="matrix(1, 0, 0, 1, 0, 0)" xlink:href="#b"/><linearGradient id="av" x1="1750.64" y1="1592.59" x2="1756.15" y2="1676.68" gradientTransform="matrix(1, 0, 0, 1, 0, 0)" xlink:href="#b"/><linearGradient id="aw" x1="1783.84" y1="1544.8" x2="1793.31" y2="1689.24" gradientTransform="matrix(1, 0, 0, 1, 0, 0)" xlink:href="#b"/><linearGradient id="ax" x1="1818.1" y1="1531.98" x2="1828.52" y2="1690.85" gradientTransform="matrix(1, 0, 0, 1, 0, 0)" xlink:href="#b"/><linearGradient id="ay" x1="1854.84" y1="1593.56" x2="1860.1" y2="1673.82" gradientTransform="matrix(1, 0, 0, 1, 0, 0)" xlink:href="#b"/><linearGradient id="az" x1="1886.68" y1="1517.15" x2="1898.04" y2="1690.4" gradientTransform="matrix(1, 0, 0, 1, 0, 0)" xlink:href="#b"/><linearGradient id="ba" x1="1921.78" y1="1536.59" x2="1931.46" y2="1684.22" gradientTransform="matrix(1, 0, 0, 1, 0, 0)" xlink:href="#b"/><linearGradient id="bb" x1="1959.25" y1="1624.54" x2="1961.93" y2="1665.43" gradientTransform="matrix(1, 0, 0, 1, 0, 0)" xlink:href="#b"/><linearGradient id="bc" x1="1991.88" y1="1579.7" x2="1998.01" y2="1673.17" gradientTransform="matrix(1, 0, 0, 1, 0, 0)" xlink:href="#b"/><linearGradient id="bd" x1="2024.72" y1="1544.28" x2="2033.49" y2="1677.98" gradientTransform="matrix(1, 0, 0, 1, 0, 0)" xlink:href="#b"/><linearGradient id="be" x1="2059.87" y1="1574.24" x2="2066.29" y2="1672.1" gradientTransform="matrix(1, 0, 0, 1, 0, 0)" xlink:href="#b"/><linearGradient id="bf" x1="2092.05" y1="1526.83" x2="2101.92" y2="1677.4" gradientTransform="matrix(1, 0, 0, 1, 0, 0)" xlink:href="#b"/><linearGradient id="bg" x1="2125.28" y1="1510.73" x2="2136.23" y2="1677.66" gradientTransform="matrix(1, 0, 0, 1, 0, 0)" xlink:href="#b"/><linearGradient id="bh" x1="1649.41" y1="1744.5" x2="2066.64" y2="1978.32" xlink:href="#f"/><linearGradient id="bi" x1="1573.52" y1="1818.98" x2="1584.03" y2="1979.15" gradientTransform="matrix(1, 0, 0, 1, 0, 0)" xlink:href="#b"/><linearGradient id="bj" x1="1611.91" y1="1917.9" x2="1613.26" y2="1938.58" gradientTransform="matrix(1, 0, 0, 1, 0, 0)" xlink:href="#b"/><linearGradient id="bk" x1="1645.06" y1="1852.04" x2="1652.26" y2="1961.87" gradientTransform="matrix(1, 0, 0, 1, 0, 0)" xlink:href="#b"/><linearGradient id="bl" x1="1681.62" y1="1896.58" x2="1684.78" y2="1944.86" gradientTransform="matrix(1, 0, 0, 1, 0, 0)" xlink:href="#b"/><linearGradient id="bm" x1="1714.83" y1="1840.84" x2="1722.76" y2="1961.81" gradientTransform="matrix(1, 0, 0, 1, 0, 0)" xlink:href="#b"/><linearGradient id="bn" x1="1750.64" y1="1867.91" x2="1756.14" y2="1951.71" gradientTransform="matrix(1, 0, 0, 1, 0, 0)" xlink:href="#b"/><linearGradient id="bo" x1="1783.85" y1="1819.74" x2="1793.3" y2="1963.89" gradientTransform="matrix(1, 0, 0, 1, 0, 0)" xlink:href="#b"/><linearGradient id="bp" x1="1818.11" y1="1806.53" x2="1828.51" y2="1965.12" gradientTransform="matrix(1, 0, 0, 1, 0, 0)" xlink:href="#b"/><linearGradient id="bq" x1="1854.84" y1="1867.73" x2="1860.09" y2="1947.71" gradientTransform="matrix(1, 0, 0, 1, 0, 0)" xlink:href="#b"/><linearGradient id="br" x1="1886.69" y1="1790.94" x2="1898.03" y2="1963.91" gradientTransform="matrix(1, 0, 0, 1, 0, 0)" xlink:href="#b"/><linearGradient id="bs" x1="1921.78" y1="1810.01" x2="1931.45" y2="1957.35" gradientTransform="matrix(1, 0, 0, 1, 0, 0)" xlink:href="#b"/><linearGradient id="bt" x1="1959.26" y1="1897.58" x2="1961.92" y2="1938.19" gradientTransform="matrix(1, 0, 0, 1, 0, 0)" xlink:href="#b"/><linearGradient id="bu" x1="1991.89" y1="1852.37" x2="1998" y2="1945.55" gradientTransform="matrix(1, 0, 0, 1, 0, 0)" xlink:href="#b"/><linearGradient id="bv" x1="2024.73" y1="1816.57" x2="2033.48" y2="1949.99" gradientTransform="matrix(1, 0, 0, 1, 0, 0)" xlink:href="#b"/><linearGradient id="bw" x1="2059.88" y1="1846.15" x2="2066.28" y2="1943.74" gradientTransform="matrix(1, 0, 0, 1, 0, 0)" xlink:href="#b"/><linearGradient id="bx" x1="2092.06" y1="1798.37" x2="2101.91" y2="1948.66" gradientTransform="matrix(1, 0, 0, 1, 0, 0)" xlink:href="#b"/><linearGradient id="by" x1="2125.29" y1="1781.9" x2="2136.22" y2="1948.55" gradientTransform="matrix(1, 0, 0, 1, 0, 0)" xlink:href="#b"/><linearGradient id="bz" x1="1650.51" y1="2019.22" x2="2065.48" y2="2251.77" xlink:href="#f"/><linearGradient id="ca" x1="1573.53" y1="2096.22" x2="1584.01" y2="2256.1" gradientTransform="matrix(1, 0, 0, 1, 0, 0)" xlink:href="#b"/><linearGradient id="cb" x1="1611.91" y1="2194.76" x2="1613.25" y2="2215.15" gradientTransform="matrix(1, 0, 0, 1, 0, 0)" xlink:href="#b"/><linearGradient id="cc" x1="1645.07" y1="2128.51" x2="1652.25" y2="2238.06" gradientTransform="matrix(1, 0, 0, 1, 0, 0)" xlink:href="#b"/><linearGradient id="cd" x1="1681.62" y1="2172.67" x2="1684.77" y2="2220.66" gradientTransform="matrix(1, 0, 0, 1, 0, 0)" xlink:href="#b"/><linearGradient id="ce" x1="1714.83" y1="2116.54" x2="1722.75" y2="2237.23" gradientTransform="matrix(1, 0, 0, 1, 0, 0)" xlink:href="#b"/><linearGradient id="cf" x1="1750.65" y1="2143.23" x2="1756.13" y2="2226.74" gradientTransform="matrix(1, 0, 0, 1, 0, 0)" xlink:href="#b"/><linearGradient id="cg" x1="1783.86" y1="2094.68" x2="1793.29" y2="2238.53" gradientTransform="matrix(1, 0, 0, 1, 0, 0)" xlink:href="#b"/><linearGradient id="ch" x1="1818.12" y1="2081.09" x2="1828.5" y2="2239.39" gradientTransform="matrix(1, 0, 0, 1, 0, 0)" xlink:href="#b"/><linearGradient id="ci" x1="1854.85" y1="2141.91" x2="1860.08" y2="2221.6" gradientTransform="matrix(1, 0, 0, 1, 0, 0)" xlink:href="#b"/><linearGradient id="cj" x1="1886.7" y1="2064.74" x2="1898.02" y2="2237.43" gradientTransform="matrix(1, 0, 0, 1, 0, 0)" xlink:href="#b"/><linearGradient id="ck" x1="1921.79" y1="2083.43" x2="1931.44" y2="2230.49" gradientTransform="matrix(1, 0, 0, 1, 0, 0)" xlink:href="#b"/><linearGradient id="cl" x1="1959.27" y1="2170.62" x2="1961.91" y2="2210.95" gradientTransform="matrix(1, 0, 0, 1, 0, 0)" xlink:href="#b"/><linearGradient id="cm" x1="1991.9" y1="2125.03" x2="1997.99" y2="2217.93" gradientTransform="matrix(1, 0, 0, 1, 0, 0)" xlink:href="#b"/><linearGradient id="cn" x1="2024.74" y1="2088.86" x2="2033.47" y2="2221.99" gradientTransform="matrix(1, 0, 0, 1, 0, 0)" xlink:href="#b"/><linearGradient id="co" x1="2059.89" y1="2118.07" x2="2066.27" y2="2215.37" gradientTransform="matrix(1, 0, 0, 1, 0, 0)" xlink:href="#b"/><linearGradient id="cp" x1="2092.07" y1="2069.91" x2="2101.9" y2="2219.93" gradientTransform="matrix(1, 0, 0, 1, 0, 0)" xlink:href="#b"/><linearGradient id="cq" x1="2125.3" y1="2053.07" x2="2136.21" y2="2219.44" gradientTransform="matrix(1, 0, 0, 1, 0, 0)" xlink:href="#b"/><linearGradient id="cr" x1="1651.6" y1="2293.93" x2="2064.32" y2="2525.23" xlink:href="#f"/><linearGradient id="cs" x1="1573.54" y1="2373.47" x2="1584" y2="2533.05" gradientTransform="matrix(1, 0, 0, 1, 0, 0)" xlink:href="#b"/><linearGradient id="ct" x1="1611.92" y1="2471.61" x2="1613.24" y2="2491.72" gradientTransform="matrix(1, 0, 0, 1, 0, 0)" xlink:href="#b"/><linearGradient id="cu" x1="1645.08" y1="2404.98" x2="1652.24" y2="2514.24" gradientTransform="matrix(1, 0, 0, 1, 0, 0)" xlink:href="#b"/><linearGradient id="cv" x1="1681.63" y1="2448.75" x2="1684.76" y2="2496.46" gradientTransform="matrix(1, 0, 0, 1, 0, 0)" xlink:href="#b"/><linearGradient id="cw" x1="1714.84" y1="2392.24" x2="1722.74" y2="2512.64" gradientTransform="matrix(1, 0, 0, 1, 0, 0)" xlink:href="#b"/><linearGradient id="cx" x1="1750.66" y1="2418.55" x2="1756.12" y2="2501.78" gradientTransform="matrix(1, 0, 0, 1, 0, 0)" xlink:href="#b"/><linearGradient id="cy" x1="1783.86" y1="2369.61" x2="1793.28" y2="2513.19" gradientTransform="matrix(1, 0, 0, 1, 0, 0)" xlink:href="#b"/><linearGradient id="cz" x1="1818.13" y1="2355.64" x2="1828.49" y2="2513.66" gradientTransform="matrix(1, 0, 0, 1, 0, 0)" xlink:href="#b"/><linearGradient id="da" x1="1854.86" y1="2416.08" x2="1860.07" y2="2495.49" gradientTransform="matrix(1, 0, 0, 1, 0, 0)" xlink:href="#b"/><linearGradient id="db" x1="1886.71" y1="2338.53" x2="1898.01" y2="2510.94" gradientTransform="matrix(1, 0, 0, 1, 0, 0)" xlink:href="#b"/><linearGradient id="dc" x1="1921.8" y1="2356.85" x2="1931.43" y2="2503.62" gradientTransform="matrix(1, 0, 0, 1, 0, 0)" xlink:href="#b"/><linearGradient id="dd" x1="1959.28" y1="2443.66" x2="1961.9" y2="2483.71" gradientTransform="matrix(1, 0, 0, 1, 0, 0)" xlink:href="#b"/><linearGradient id="de" x1="1991.9" y1="2397.7" x2="1997.98" y2="2490.32" gradientTransform="matrix(1, 0, 0, 1, 0, 0)" xlink:href="#b"/><linearGradient id="df" x1="2024.75" y1="2361.15" x2="2033.46" y2="2494" gradientTransform="matrix(1, 0, 0, 1, 0, 0)" xlink:href="#b"/><linearGradient id="dg" x1="2059.9" y1="2389.99" x2="2066.26" y2="2487.01" gradientTransform="matrix(1, 0, 0, 1, 0, 0)" xlink:href="#b"/><linearGradient id="dh" x1="2092.08" y1="2341.46" x2="2101.9" y2="2491.19" gradientTransform="matrix(1, 0, 0, 1, 0, 0)" xlink:href="#b"/><linearGradient id="di" x1="2125.31" y1="2324.24" x2="2136.2" y2="2490.34" gradientTransform="matrix(1, 0, 0, 1, 0, 0)" xlink:href="#b"/><linearGradient id="dj" x1="1652.69" y1="2568.65" x2="2063.16" y2="2798.68" xlink:href="#f"/><linearGradient id="dk" x1="1573.54" y1="2650.71" x2="1583.99" y2="2810.01" gradientTransform="matrix(1, 0, 0, 1, 0, 0)" xlink:href="#b"/><linearGradient id="dl" x1="1611.93" y1="2748.47" x2="1613.23" y2="2768.29" gradientTransform="matrix(1, 0, 0, 1, 0, 0)" xlink:href="#b"/><linearGradient id="dm" x1="1645.08" y1="2681.45" x2="1652.23" y2="2790.42" gradientTransform="matrix(1, 0, 0, 1, 0, 0)" xlink:href="#b"/><linearGradient id="dn" x1="1681.64" y1="2724.84" x2="1684.75" y2="2772.25" gradientTransform="matrix(1, 0, 0, 1, 0, 0)" xlink:href="#b"/><linearGradient id="do" x1="1714.85" y1="2667.94" x2="1722.72" y2="2788.05" gradientTransform="matrix(1, 0, 0, 1, 0, 0)" xlink:href="#b"/><linearGradient id="dp" x1="1750.67" y1="2693.87" x2="1756.1" y2="2776.81" gradientTransform="matrix(1, 0, 0, 1, 0, 0)" xlink:href="#b"/><linearGradient id="dq" x1="1783.87" y1="2644.55" x2="1793.27" y2="2787.83" gradientTransform="matrix(1, 0, 0, 1, 0, 0)" xlink:href="#b"/><linearGradient id="dr" x1="1818.13" y1="2630.2" x2="1828.48" y2="2787.93" gradientTransform="matrix(1, 0, 0, 1, 0, 0)" xlink:href="#b"/><linearGradient id="ds" x1="1854.87" y1="2690.25" x2="1860.06" y2="2769.38" gradientTransform="matrix(1, 0, 0, 1, 0, 0)" xlink:href="#b"/><linearGradient id="dt" x1="1886.72" y1="2612.33" x2="1898" y2="2784.45" gradientTransform="matrix(1, 0, 0, 1, 0, 0)" xlink:href="#b"/><linearGradient id="du" x1="1921.81" y1="2630.26" x2="1931.42" y2="2776.76" gradientTransform="matrix(1, 0, 0, 1, 0, 0)" xlink:href="#b"/><linearGradient id="dv" x1="1959.29" y1="2716.7" x2="1961.89" y2="2756.47" gradientTransform="matrix(1, 0, 0, 1, 0, 0)" xlink:href="#b"/><linearGradient id="dw" x1="1991.91" y1="2670.36" x2="1997.97" y2="2762.7" gradientTransform="matrix(1, 0, 0, 1, 0, 0)" xlink:href="#b"/><linearGradient id="dx" x1="2024.76" y1="2633.44" x2="2033.45" y2="2766.01" gradientTransform="matrix(1, 0, 0, 1, 0, 0)" xlink:href="#b"/><linearGradient id="dy" x1="2059.91" y1="2661.9" x2="2066.25" y2="2758.65" gradientTransform="matrix(1, 0, 0, 1, 0, 0)" xlink:href="#b"/><linearGradient id="dz" x1="2092.09" y1="2613" x2="2101.89" y2="2762.46" gradientTransform="matrix(1, 0, 0, 1, 0, 0)" xlink:href="#b"/><linearGradient id="ea" x1="2125.32" y1="2595.41" x2="2136.2" y2="2761.23" gradientTransform="matrix(1, 0, 0, 1, 0, 0)" xlink:href="#b"/><linearGradient id="eb" x1="1653.78" y1="2843.36" x2="2062" y2="3072.13" xlink:href="#f"/><linearGradient id="ec" x1="1573.55" y1="2927.95" x2="1583.98" y2="3086.96" gradientTransform="matrix(1, 0, 0, 1, 0, 0)" xlink:href="#b"/><linearGradient id="ed" x1="1611.93" y1="3025.33" x2="1613.21" y2="3044.85" gradientTransform="matrix(1, 0, 0, 1, 0, 0)" xlink:href="#b"/><linearGradient id="ee" x1="1645.09" y1="2957.92" x2="1652.22" y2="3066.6" gradientTransform="matrix(1, 0, 0, 1, 0, 0)" xlink:href="#b"/><linearGradient id="ef" x1="1681.64" y1="3000.92" x2="1684.73" y2="3048.05" gradientTransform="matrix(1, 0, 0, 1, 0, 0)" xlink:href="#b"/><linearGradient id="eg" x1="1714.86" y1="2943.64" x2="1722.71" y2="3063.47" gradientTransform="matrix(1, 0, 0, 1, 0, 0)" xlink:href="#b"/><linearGradient id="eh" x1="1750.67" y1="2969.18" x2="1756.09" y2="3051.84" gradientTransform="matrix(1, 0, 0, 1, 0, 0)" xlink:href="#b"/><linearGradient id="ei" x1="1783.88" y1="2919.48" x2="1793.26" y2="3062.48" gradientTransform="matrix(1, 0, 0, 1, 0, 0)" xlink:href="#b"/><linearGradient id="ej" x1="1818.14" y1="2904.75" x2="1828.47" y2="3062.2" gradientTransform="matrix(1, 0, 0, 1, 0, 0)" xlink:href="#b"/><linearGradient id="ek" x1="1854.87" y1="2964.43" x2="1860.04" y2="3043.27" gradientTransform="matrix(1, 0, 0, 1, 0, 0)" xlink:href="#b"/><linearGradient id="el" x1="1886.72" y1="2886.12" x2="1897.99" y2="3057.96" gradientTransform="matrix(1, 0, 0, 1, 0, 0)" xlink:href="#b"/><linearGradient id="em" x1="1921.82" y1="2903.68" x2="1931.4" y2="3049.89" gradientTransform="matrix(1, 0, 0, 1, 0, 0)" xlink:href="#b"/><linearGradient id="en" x1="1959.29" y1="2989.74" x2="1961.88" y2="3029.23" gradientTransform="matrix(1, 0, 0, 1, 0, 0)" xlink:href="#b"/><linearGradient id="eo" x1="1991.92" y1="2943.03" x2="1997.96" y2="3035.08" gradientTransform="matrix(1, 0, 0, 1, 0, 0)" xlink:href="#b"/><linearGradient id="ep" x1="2024.77" y1="2905.73" x2="2033.44" y2="3038.02" gradientTransform="matrix(1, 0, 0, 1, 0, 0)" xlink:href="#b"/><linearGradient id="eq" x1="2059.92" y1="2933.82" x2="2066.24" y2="3030.28" gradientTransform="matrix(1, 0, 0, 1, 0, 0)" xlink:href="#b"/><linearGradient id="er" x1="2092.09" y1="2884.54" x2="2101.88" y2="3033.72" gradientTransform="matrix(1, 0, 0, 1, 0, 0)" xlink:href="#b"/><linearGradient id="es" x1="2125.33" y1="2866.59" x2="2136.19" y2="3032.12" gradientTransform="matrix(1, 0, 0, 1, 0, 0)" xlink:href="#b"/><linearGradient id="et" x1="2965.71" y1="3071.5" x2="2985.77" y2="3326.82" gradientTransform="translate(-626.26)" gradientUnits="userSpaceOnUse"><stop offset="0" stop-color="#1c1c3f"/><stop offset="1" stop-color="#34397b"/></linearGradient><linearGradient id="eu" x1="3017.5" y1="3213.64" x2="3013.85" y2="2949.21" gradientTransform="translate(-626.26)" gradientUnits="userSpaceOnUse"><stop offset="0" stop-color="#722764"/><stop offset="1" stop-color="#241235"/></linearGradient><linearGradient id="ev" x1="3344.81" y1="3041.72" x2="3364.87" y2="3297.03" xlink:href="#et"/><linearGradient id="ew" x1="3364.93" y1="3208.85" x2="3361.28" y2="2944.42" xlink:href="#eu"/><linearGradient id="ex" x1="2519.47" y1="4326.03" x2="2421.24" y2="2485.87" gradientUnits="userSpaceOnUse"><stop offset="0" stop-color="#241235"/><stop offset="0.74" stop-color="#472257"/><stop offset="1" stop-color="#552864"/></linearGradient><linearGradient id="ey" x1="2341.65" y1="2785.28" x2="2523.64" y2="2785.28" gradientTransform="matrix(1, 0, 0, 1, 0, 0)" xlink:href="#b"/><linearGradient id="ez" x1="2664.33" y1="4318.3" x2="2566.1" y2="2478.13" xlink:href="#ex"/><linearGradient id="fa" x1="2547.66" y1="1496.77" x2="2909.99" y2="1828.39" gradientTransform="translate(620.22 -120.3) rotate(13.87)" xlink:href="#et"/><linearGradient id="fb" x1="2490.2" y1="1449.77" x2="2591.12" y2="3201.48" gradientUnits="userSpaceOnUse"><stop offset="0" stop-color="#9468fa"/><stop offset="1" stop-color="#4c4fd0"/></linearGradient><linearGradient id="fc" x1="2323.44" y1="1971.12" x2="2211.37" y2="2156.88" gradientTransform="matrix(0.99, 0.1, -0.1, 0.99, 190.49, -26.87)" gradientUnits="userSpaceOnUse"><stop offset="0" stop-color="#4c4fd0"/><stop offset="1" stop-color="#9468fa"/></linearGradient><linearGradient id="fd" x1="2130.15" y1="2216.62" x2="2403.62" y2="2216.62" gradientTransform="matrix(1, 0, 0, 1, 0, 0)" xlink:href="#b"/><linearGradient id="fe" x1="2269.29" y1="1776.88" x2="2235.52" y2="1887.41" gradientTransform="matrix(0.99, 0.1, -0.1, 0.99, 190.49, -26.87)" xlink:href="#et"/><linearGradient id="ff" x1="2130.15" y1="2208.5" x2="2321.12" y2="2208.5" gradientTransform="matrix(1, 0, 0, 1, 0, 0)" xlink:href="#b"/><linearGradient id="fg" x1="2358.74" y1="2060.06" x2="2469.29" y2="2060.06" gradientTransform="matrix(0.99, 0.1, -0.1, 0.99, 190.49, -26.87)" xlink:href="#eu"/><linearGradient id="fh" x1="2253.51" y1="2288.26" x2="2968.91" y2="2288.26" xlink:href="#fb"/><linearGradient id="fi" x1="2543.16" y1="1446.72" x2="2644.08" y2="3198.43" xlink:href="#fb"/><linearGradient id="fj" x1="2644.76" y1="1927.57" x2="2774.74" y2="1738.89" gradientTransform="matrix(0.99, -0.1, 0.1, 0.99, -459.17, 280.44)" xlink:href="#eu"/><linearGradient id="fk" x1="2632.98" y1="1831.87" x2="2838.43" y2="1708.18" gradientTransform="matrix(0.99, -0.1, 0.1, 0.99, -459.17, 280.44)" xlink:href="#eu"/><linearGradient id="fl" x1="2158.88" y1="2099.3" x2="2177.53" y2="2135.37" gradientTransform="matrix(1, 0, 0, 1, 0, 0)" xlink:href="#eu"/><linearGradient id="fm" x1="2645.98" y1="-6.99" x2="1539.23" y2="1108" gradientTransform="translate(-185.48 -138.28) rotate(2.55)" xlink:href="#f"/><linearGradient id="fn" x1="1018.14" y1="1135.94" x2="4855.23" y2="1169.1" xlink:href="#fb"/><linearGradient id="fo" x1="1007.43" y1="1295.07" x2="4770.31" y2="1327.59" xlink:href="#fb"/></defs><g class="b"><path class="c" d="M1905.36,430.86c-746.3-21.73-1392.76,512.3-1490.42,1213C308.15,2410,895.89,3099.35,1619.07,3209.75c899.52,137.33,1772-657.13,1693.67-1519C3253.72,1041.4,2664,453,1905.36,430.86Z"/><g class="d"><path class="e" d="M1160.15,3244c-24.19-11.43-66.73-57.62-72.86-74.24-40.77-110.56-130.55-312.61-85.3-428.68,7.73-19.82,104.11-9.36,122.77-23.81,63.06-8.25,85.45-7.2,141.56-44.49,165.64-110.1-12.75-475.18,331.19-471.93,251.93,2.38,419.65,143.7,509.94-219.39s581.28-919.09,876.11-550c169.21,211.8-147,443.1-108.3,701.68,36.74,245.72-109.37,390.95-375.34,445.22s-177.44,190.8-177.17,413.1c.32,267-385.23,189.57-560.18,138.63C1621.69,3089,1235.29,3079.6,1160.15,3244Z"/><g class="f"><path class="g" d="M1044.35,2965.58l-.5-3.56c222.78-31.52,437.4-96.84,637.9-194.14,192.66-93.5,372.59-216.61,534.78-365.9,314.92-289.88,558-673.88,702.83-1110.49l3.42,1.13c-145.06,437.2-388.44,821.72-703.81,1112-162.45,149.54-342.67,272.84-535.65,366.49C1482.49,2868.59,1267.51,2934,1044.35,2965.58Z"/><path class="g" d="M2336.22,3101.51c-94.84-69.14-232.56-135-387.77-185.46-149.69-48.65-302.51-78-419.3-80.44l.07-3.61c117.13,2.48,270.34,31.87,420.34,80.62,155.57,50.57,293.65,116.62,388.79,186Z"/><path class="g" d="M1214.12,2939.62l-1.47-3.29c119.38-53.5,207.1-165.25,260.74-332.14,39.29-122.26,59.71-270.73,60.7-441.29l3.61,0c-1,170.93-21.48,319.77-60.88,442.37C1422.86,2773.19,1334.47,2885.68,1214.12,2939.62Z"/><path class="g" d="M2262.38,2361.51l-1.64-3.21c120.89-61.82,332.15-117.15,652.14-29.63l-1,3.48C2593.06,2244.93,2382.7,2300,2262.38,2361.51Z"/><path class="g" d="M2620.87,1927.19l-3.33-1.35c44.82-110.52,100.92-346.31-27-683.66l3.37-1.28c43.14,113.78,69.68,232.15,76.75,342.31C2678.79,1710,2662,1825.69,2620.87,1927.19Z"/></g><g class="h"><path class="i" d="M1756.45,3547.47q-201.84-29.68-403.18-68.64c-2.19,2-46.3-290.53,92.64-443.93,274.76-297.17,89.69-563.88,36.9-721.92-83.64-222.69-39.65-463.83,187-467.4,251.38-8.87,297-424.95,251.4-803.44C1886,857.55,2060.14,633.59,2234,582.4c177.42-56.71,354.48,59.37,408.74,427.3,82.15,426-228.75,682.91-343.87,896.49-113.28,209.68,150.23,379.32-61.87,565.09-178.4,165.08-403.25,283.74-321,491.09C2000.46,3167.37,1980.23,3335,1756.45,3547.47Z"/><path class="g" d="M1575.57,3564.76l-3.61,0c0-2.6,128.5-617.64,350.24-1216.54,30.63-97,63.9-194.81,96.07-289.39,86.16-253.31,175.26-515.25,217.58-776.1,47.31-291.63,30.44-554.3-51.56-803l3.42-1.13c82.19,249.28,99.1,512.51,51.69,804.73C2197,1544.43,2107.89,1806.52,2021.68,2060c-32.17,94.56-65.43,192.35-96.07,289.4C1713.55,2922.13,1576.84,3547.42,1575.57,3564.76Z"/><path class="g" d="M2177.59,1568.39l-2.68-2.41C2325,1399.27,2506,1162.38,2603.23,1035.1c72.57-95,78.28-101.84,81-101.41l-.56,3.56.28-1.78.61,1.65c-3.65,2.23-35,43.31-78.49,100.17C2508.81,1164.6,2327.73,1401.58,2177.59,1568.39Z"/><path class="g" d="M2224.55,1340.26c-31.18-191.86-110.33-317.91-171.24-389.86-67.44-79.67-128.87-113.67-134.54-114a1.33,1.33,0,0,0,.69-.24l-2-3c.9-.6,2.07-.63,5.74,1,16.55,7.2,78.44,45.92,143.44,126.7,81.92,101.81,137.75,232.8,161.47,378.81Z"/><path class="g" d="M1793.9,2739.55l-3.58-.43c21.18-177.92-20.27-369.28-123.2-568.76-53.66-104-122.1-205.9-203.41-302.84-5.61-6.68-7.9-9.43-8.53-10.51l3.12-1.81c.49.85,3.71,4.69,8.17,10,81.48,97.15,150.07,199.26,203.86,303.51C1773.59,2368.84,1815.17,2560.9,1793.9,2739.55Z"/><path class="g" d="M1854.67,2552l-3.06-1.89c161.12-260.32,500.56-278.25,503.4-277.48l1.34,1.69-1.23,1.77-.57-1.67-.19,1.74h0c-1.5,0-85.61,3.53-192.55,41.35C2067.19,2351,1937.12,2418.84,1854.67,2552Z"/><path class="g" d="M1598,3464.43l-3.6-.14c2.85-77.53-24.84-209.66-172.94-398.84-7.78-9.94-7.78-10-7.62-11.08l3.57.51-1.79-.25,1.68-.6c.37.73,3.29,4.47,7,9.2C1573.09,3253.26,1600.9,3386.29,1598,3464.43Z"/><path class="g" d="M1632.23,3318.44l-3.46-1c19.23-66.36,76.72-131.63,170.89-194,73.9-49,146.78-80.33,170.73-90.64,3.58-1.54,5.95-2.56,6.74-3l1.64,3.21c-.89.46-3.17,1.44-7,3.07-23.88,10.28-96.54,41.56-170.17,90.34C1708.22,3188.33,1651.21,3252.93,1632.23,3318.44Z"/></g></g><path class="j" d="M629.89,945.89V3137.36a48,48,0,0,0,38.5,47l562.88,113.7,153.22-1451L1236,824.4,671.66,898.3A48,48,0,0,0,629.89,945.89Z"/><path class="k" d="M2231.25,863.82l-991.18-39.7c-39.08-1.56-70.84,26.2-70.84,62v2351c0,35.82,31.76,63,70.84,60.8l991.18-56.77c36-2.06,65.06-31.48,65.06-65.72V928.41C2296.31,894.18,2267.23,865.26,2231.25,863.82Z"/><path class="l" d="M1237.6,1098.9V932.54c0-25.46,22.52-45.25,50.25-44.21L2187,922.13c25.74,1,46.57,21.58,46.57,46V1128c0,24.46-20.83,43.71-46.57,43l-899.11-24.66C1260.12,1145.61,1237.6,1124.36,1237.6,1098.9Z"/><path class="k" d="M1331.26,951.14c0,11.74-10.36,20.9-23.15,20.46s-23.18-10.33-23.18-22.09,10.38-20.91,23.18-20.45S1331.26,939.41,1331.26,951.14Z"/><path class="k" d="M1404.37,953.71c0,11.7-10.29,20.84-23,20.4s-23-10.29-23-22,10.32-20.85,23-20.39S1404.37,942,1404.37,953.71Z"/><path class="k" d="M1477.07,956.27c0,11.67-10.24,20.78-22.89,20.34s-22.92-10.26-22.92-22,10.27-20.8,22.92-20.34S1477.07,944.6,1477.07,956.27Z"/><polygon class="m" points="2182.67 1130.84 1522.7 1111.67 1522.7 936.79 2182.67 960.56 2182.67 1130.84"/><g class="n"><polygon class="l" points="1586.98 1101.22 1567.07 1100.63 1567.07 959.44 1586.98 960.14 1586.98 1101.22"/><polygon class="l" points="1622.3 1102.27 1602.45 1101.68 1602.45 960.68 1622.3 961.38 1622.3 1102.27"/><polygon class="l" points="1657.53 1103.31 1637.72 1102.72 1637.72 961.92 1657.53 962.62 1657.53 1103.31"/><polygon class="l" points="1692.65 1104.34 1672.91 1103.76 1672.91 963.16 1692.65 963.85 1692.65 1104.34"/><polygon class="l" points="1727.68 1105.38 1707.99 1104.8 1707.99 964.39 1727.68 965.09 1727.68 1105.38"/><polygon class="l" points="1762.61 1106.41 1742.97 1105.83 1742.97 965.62 1762.61 966.31 1762.61 1106.41"/><polygon class="l" points="1797.44 1107.44 1777.86 1106.86 1777.86 966.85 1797.44 967.54 1797.44 1107.44"/><polygon class="l" points="1832.17 1108.47 1812.64 1107.89 1812.64 968.07 1832.17 968.76 1832.17 1108.47"/><polygon class="l" points="1866.81 1109.49 1847.33 1108.91 1847.33 969.29 1866.81 969.98 1866.81 1109.49"/><polygon class="l" points="1901.34 1110.51 1881.93 1109.94 1881.93 970.51 1901.34 971.2 1901.34 1110.51"/><polygon class="l" points="1935.79 1111.53 1916.42 1110.96 1916.42 971.73 1935.79 972.41 1935.79 1111.53"/><polygon class="l" points="1970.14 1112.54 1950.83 1111.97 1950.83 972.93 1970.14 973.62 1970.14 1112.54"/><polygon class="l" points="2004.39 1113.56 1985.13 1112.99 1985.13 974.14 2004.39 974.82 2004.39 1113.56"/><polygon class="l" points="2038.55 1114.56 2019.34 1114 2019.34 975.35 2038.55 976.02 2038.55 1114.56"/><polygon class="l" points="2072.61 1115.57 2053.46 1115.01 2053.46 976.55 2072.61 977.22 2072.61 1115.57"/><polygon class="l" points="2106.58 1116.57 2087.48 1116.01 2087.48 977.74 2106.58 978.41 2106.58 1116.57"/><polygon class="l" points="2140.45 1117.58 2121.41 1117.01 2121.41 978.94 2140.45 979.61 2140.45 1117.58"/></g><g class="o"><polygon class="p" points="1586.98 1101.22 1567.07 1100.63 1567.07 980.49 1586.98 981.17 1586.98 1101.22"/><polygon class="q" points="1622.3 1102.27 1602.45 1101.68 1602.45 1087.23 1622.3 1087.83 1622.3 1102.27"/><polygon class="r" points="1657.53 1103.31 1637.72 1102.72 1637.72 1020.71 1657.53 1021.36 1657.53 1103.31"/><polygon class="s" points="1692.65 1104.34 1672.91 1103.76 1672.91 1068.39 1692.65 1069.01 1692.65 1104.34"/><polygon class="t" points="1727.68 1105.38 1707.99 1104.8 1707.99 1014.34 1727.68 1014.99 1727.68 1105.38"/><polygon class="u" points="1762.61 1106.41 1742.97 1105.83 1742.97 1043.54 1762.61 1044.17 1762.61 1106.41"/><polygon class="v" points="1797.44 1107.44 1777.86 1106.86 1777.86 998.84 1797.44 999.5 1797.44 1107.44"/><polygon class="w" points="1832.17 1108.47 1812.64 1107.89 1812.64 988.92 1832.17 989.59 1832.17 1108.47"/><polygon class="x" points="1866.81 1109.49 1847.33 1108.91 1847.33 1049.51 1866.81 1050.13 1866.81 1109.49"/><polygon class="y" points="1901.34 1110.51 1881.93 1109.94 1881.93 980.06 1901.34 980.73 1901.34 1110.51"/><polygon class="z" points="1935.79 1111.53 1916.42 1110.96 1916.42 1000.5 1935.79 1001.16 1935.79 1111.53"/><polygon class="aa" points="1970.14 1112.54 1950.83 1111.97 1950.83 1082.39 1970.14 1082.99 1970.14 1112.54"/><polygon class="ab" points="2004.39 1113.56 1985.13 1112.99 1985.13 1043.56 2004.39 1044.19 2004.39 1113.56"/><polygon class="ac" points="2038.55 1114.56 2019.34 1114 2019.34 1014.08 2038.55 1014.73 2038.55 1114.56"/><polygon class="ad" points="2072.61 1115.57 2053.46 1115.01 2053.46 1042.24 2072.61 1042.86 2072.61 1115.57"/><polygon class="ae" points="2106.58 1116.57 2087.48 1116.01 2087.48 1003.3 2106.58 1003.95 2106.58 1116.57"/><polygon class="af" points="2140.45 1117.58 2121.41 1117.01 2121.41 991.9 2140.45 992.57 2140.45 1117.58"/></g><path class="l" d="M1237.6,1379.8V1213.44c0-25.46,22.52-45.5,50.25-44.76L2187,1192.54c25.74.68,46.57,21.07,46.57,45.52v159.85c0,24.46-20.83,43.95-46.57,43.53l-899.11-14.72C1260.12,1426.26,1237.6,1405.26,1237.6,1379.8Z"/><path class="k" d="M1331.26,1231c0,11.73-10.36,21-23.15,20.7s-23.18-10.07-23.18-21.82,10.38-21,23.18-20.71S1331.26,1219.27,1331.26,1231Z"/><path class="k" d="M1404.37,1232.77c0,11.7-10.29,21-23,20.65s-23-10-23-21.76,10.32-21,23-20.65S1404.37,1221.07,1404.37,1232.77Z"/><path class="k" d="M1477.07,1234.52c0,11.67-10.24,20.89-22.89,20.6s-22.92-10-22.92-21.7,10.27-20.91,22.92-20.59S1477.07,1222.85,1477.07,1234.52Z"/><polygon class="ag" points="2182.67 1401.3 1522.7 1389.41 1522.7 1214.54 2182.67 1231.01 2182.67 1401.3"/><g class="n"><polygon class="l" points="1586.98 1378.26 1567.07 1377.89 1567.07 1236.69 1586.98 1237.17 1586.98 1378.26"/><polygon class="l" points="1622.3 1378.91 1602.45 1378.55 1602.45 1237.55 1622.3 1238.03 1622.3 1378.91"/><polygon class="l" points="1657.53 1379.56 1637.72 1379.2 1637.72 1238.4 1657.53 1238.88 1657.53 1379.56"/><polygon class="l" points="1692.65 1380.21 1672.91 1379.85 1672.91 1239.25 1692.65 1239.72 1692.65 1380.21"/><polygon class="l" points="1727.68 1380.86 1707.99 1380.5 1707.99 1240.09 1727.68 1240.57 1727.68 1380.86"/><polygon class="l" points="1762.61 1381.51 1742.97 1381.14 1742.97 1240.94 1762.61 1241.41 1762.61 1381.51"/><polygon class="l" points="1797.44 1382.15 1777.86 1381.79 1777.86 1241.78 1797.44 1242.25 1797.44 1382.15"/><polygon class="l" points="1832.17 1382.8 1812.64 1382.43 1812.64 1242.62 1832.17 1243.09 1832.17 1382.8"/><polygon class="l" points="1866.81 1383.43 1847.33 1383.08 1847.33 1243.46 1866.81 1243.93 1866.81 1383.43"/><polygon class="l" points="1901.34 1384.07 1881.93 1383.71 1881.93 1244.29 1901.34 1244.76 1901.34 1384.07"/><polygon class="l" points="1935.79 1384.71 1916.42 1384.35 1916.42 1245.12 1935.79 1245.59 1935.79 1384.71"/><polygon class="l" points="1970.14 1385.35 1950.83 1384.99 1950.83 1245.95 1970.14 1246.42 1970.14 1385.35"/><polygon class="l" points="2004.39 1385.98 1985.13 1385.62 1985.13 1246.78 2004.39 1247.24 2004.39 1385.98"/><polygon class="l" points="2038.55 1386.61 2019.34 1386.26 2019.34 1247.61 2038.55 1248.07 2038.55 1386.61"/><polygon class="l" points="2072.61 1387.24 2053.46 1386.89 2053.46 1248.43 2072.61 1248.89 2072.61 1387.24"/><polygon class="l" points="2106.58 1387.87 2087.48 1387.52 2087.48 1249.25 2106.58 1249.71 2106.58 1387.87"/><polygon class="l" points="2140.45 1388.5 2121.41 1388.14 2121.41 1250.07 2140.45 1250.53 2140.45 1388.5"/></g><g class="o"><polygon class="ah" points="1586.98 1378.26 1567.07 1377.89 1567.07 1257.74 1586.98 1258.21 1586.98 1378.26"/><polygon class="ai" points="1622.3 1378.91 1602.45 1378.55 1602.45 1364.1 1622.3 1364.48 1622.3 1378.91"/><polygon class="aj" points="1657.53 1379.56 1637.72 1379.2 1637.72 1297.19 1657.53 1297.62 1657.53 1379.56"/><polygon class="ak" points="1692.65 1380.21 1672.91 1379.85 1672.91 1344.48 1692.65 1344.88 1692.65 1380.21"/><polygon class="al" points="1727.68 1380.86 1707.99 1380.5 1707.99 1290.04 1727.68 1290.48 1727.68 1380.86"/><polygon class="am" points="1762.61 1381.51 1742.97 1381.14 1742.97 1318.86 1762.61 1319.27 1762.61 1381.51"/><polygon class="an" points="1797.44 1382.15 1777.86 1381.79 1777.86 1273.77 1797.44 1274.21 1797.44 1382.15"/><polygon class="ao" points="1832.17 1382.8 1812.64 1382.43 1812.64 1263.46 1832.17 1263.92 1832.17 1382.8"/><polygon class="ap" points="1866.81 1383.43 1847.33 1383.08 1847.33 1323.67 1866.81 1324.08 1866.81 1383.43"/><polygon class="aq" points="1901.34 1384.07 1881.93 1383.71 1881.93 1253.84 1901.34 1254.3 1901.34 1384.07"/><polygon class="ar" points="1935.79 1384.71 1916.42 1384.35 1916.42 1273.9 1935.79 1274.34 1935.79 1384.71"/><polygon class="as" points="1970.14 1385.35 1950.83 1384.99 1950.83 1355.41 1970.14 1355.79 1970.14 1385.35"/><polygon class="at" points="2004.39 1385.98 1985.13 1385.62 1985.13 1316.2 2004.39 1316.61 2004.39 1385.98"/><polygon class="au" points="2038.55 1386.61 2019.34 1386.26 2019.34 1286.34 2038.55 1286.78 2038.55 1386.61"/><polygon class="av" points="2072.61 1387.24 2053.46 1386.89 2053.46 1314.12 2072.61 1314.54 2072.61 1387.24"/><polygon class="aw" points="2106.58 1387.87 2087.48 1387.52 2087.48 1274.81 2106.58 1275.25 2106.58 1387.87"/><polygon class="ax" points="2140.45 1388.5 2121.41 1388.14 2121.41 1263.04 2140.45 1263.49 2140.45 1388.5"/></g><path class="l" d="M1237.6,1660.7V1494.34c0-25.46,22.52-45.75,50.25-45.32L2187,1463c25.74.4,46.57,20.55,46.57,45v159.85c0,24.46-20.83,44.17-46.57,44l-899.11-4.79C1260.12,1706.91,1237.6,1686.16,1237.6,1660.7Z"/><path class="k" d="M1331.26,1510.87c0,11.73-10.36,21.12-23.15,21s-23.18-9.81-23.18-21.57,10.38-21.14,23.18-21S1331.26,1499.13,1331.26,1510.87Z"/><path class="k" d="M1404.37,1511.82c0,11.71-10.29,21.07-23,20.91s-23-9.78-23-21.51,10.32-21.08,23-20.9S1404.37,1500.12,1404.37,1511.82Z"/><path class="k" d="M1477.07,1512.78c0,11.66-10.24,21-22.89,20.84s-22.92-9.75-22.92-21.44,10.27-21,22.92-20.85S1477.07,1501.11,1477.07,1512.78Z"/><polygon class="ay" points="2182.67 1671.76 1522.7 1667.16 1522.7 1492.28 2182.67 1501.47 2182.67 1671.76"/><g class="n"><polygon class="l" points="1586.98 1655.3 1567.07 1655.15 1567.07 1513.95 1586.98 1514.21 1586.98 1655.3"/><polygon class="l" points="1622.3 1655.56 1602.45 1655.41 1602.45 1514.41 1622.3 1514.67 1622.3 1655.56"/><polygon class="l" points="1657.53 1655.82 1637.72 1655.67 1637.72 1514.88 1657.53 1515.13 1657.53 1655.82"/><polygon class="l" points="1692.65 1656.08 1672.91 1655.94 1672.91 1515.34 1692.65 1515.59 1692.65 1656.08"/><polygon class="l" points="1727.68 1656.35 1707.99 1656.2 1707.99 1515.8 1727.68 1516.05 1727.68 1656.35"/><polygon class="l" points="1762.61 1656.61 1742.97 1656.46 1742.97 1516.25 1762.61 1516.51 1762.61 1656.61"/><polygon class="l" points="1797.44 1656.87 1777.86 1656.72 1777.86 1516.71 1797.44 1516.96 1797.44 1656.87"/><polygon class="l" points="1832.17 1657.12 1812.64 1656.98 1812.64 1517.16 1832.17 1517.42 1832.17 1657.12"/><polygon class="l" points="1866.81 1657.38 1847.33 1657.24 1847.33 1517.62 1866.81 1517.87 1866.81 1657.38"/><polygon class="l" points="1901.34 1657.64 1881.93 1657.49 1881.93 1518.07 1901.34 1518.32 1901.34 1657.64"/><polygon class="l" points="1935.79 1657.9 1916.42 1657.75 1916.42 1518.52 1935.79 1518.77 1935.79 1657.9"/><polygon class="l" points="1970.14 1658.15 1950.83 1658.01 1950.83 1518.97 1970.14 1519.22 1970.14 1658.15"/><polygon class="l" points="2004.39 1658.41 1985.13 1658.26 1985.13 1519.42 2004.39 1519.67 2004.39 1658.41"/><polygon class="l" points="2038.55 1658.66 2019.34 1658.52 2019.34 1519.87 2038.55 1520.12 2038.55 1658.66"/><polygon class="l" points="2072.61 1658.91 2053.46 1658.77 2053.46 1520.31 2072.61 1520.56 2072.61 1658.91"/><polygon class="l" points="2106.58 1659.17 2087.48 1659.03 2087.48 1520.76 2106.58 1521.01 2106.58 1659.17"/><polygon class="l" points="2140.45 1659.42 2121.41 1659.28 2121.41 1521.2 2140.45 1521.45 2140.45 1659.42"/></g><g class="o"><polygon class="az" points="1586.98 1655.3 1567.07 1655.15 1567.07 1535 1586.98 1535.25 1586.98 1655.3"/><polygon class="ba" points="1622.3 1655.56 1602.45 1655.41 1602.45 1640.97 1622.3 1641.13 1622.3 1655.56"/><polygon class="bb" points="1657.53 1655.82 1637.72 1655.67 1637.72 1573.67 1657.53 1573.88 1657.53 1655.82"/><polygon class="bc" points="1692.65 1656.08 1672.91 1655.94 1672.91 1620.57 1692.65 1620.75 1692.65 1656.08"/><polygon class="bd" points="1727.68 1656.35 1707.99 1656.2 1707.99 1565.74 1727.68 1565.96 1727.68 1656.35"/><polygon class="be" points="1762.61 1656.61 1742.97 1656.46 1742.97 1594.17 1762.61 1594.37 1762.61 1656.61"/><polygon class="bf" points="1797.44 1656.87 1777.86 1656.72 1777.86 1548.7 1797.44 1548.93 1797.44 1656.87"/><polygon class="bg" points="1832.17 1657.12 1812.64 1656.98 1812.64 1538.01 1832.17 1538.25 1832.17 1657.12"/><polygon class="bh" points="1866.81 1657.38 1847.33 1657.24 1847.33 1597.84 1866.81 1598.03 1866.81 1657.38"/><polygon class="bi" points="1901.34 1657.64 1881.93 1657.49 1881.93 1527.62 1901.34 1527.86 1901.34 1657.64"/><polygon class="bj" points="1935.79 1657.9 1916.42 1657.75 1916.42 1547.29 1935.79 1547.52 1935.79 1657.9"/><polygon class="bk" points="1970.14 1658.15 1950.83 1658.01 1950.83 1628.43 1970.14 1628.6 1970.14 1658.15"/><polygon class="bl" points="2004.39 1658.41 1985.13 1658.26 1985.13 1588.84 2004.39 1589.04 2004.39 1658.41"/><polygon class="bm" points="2038.55 1658.66 2019.34 1658.52 2019.34 1558.6 2038.55 1558.82 2038.55 1658.66"/><polygon class="bn" points="2072.61 1658.91 2053.46 1658.77 2053.46 1586.01 2072.61 1586.21 2072.61 1658.91"/><polygon class="bo" points="2106.58 1659.17 2087.48 1659.03 2087.48 1546.32 2106.58 1546.54 2106.58 1659.17"/><polygon class="bp" points="2140.45 1659.42 2121.41 1659.28 2121.41 1534.17 2140.45 1534.41 2140.45 1659.42"/></g><path class="l" d="M1237.6,1941.6V1775.23c0-25.45,22.52-46,50.25-45.87l899.11,4c25.74.11,46.57,20,46.57,44.49V1937.7c0,24.46-20.83,44.41-46.57,44.55l-899.11,5.15C1260.12,1987.56,1237.6,1967.05,1237.6,1941.6Z"/><path class="k" d="M1331.26,1790.73c0,11.74-10.36,21.24-23.15,21.22s-23.18-9.55-23.18-21.31,10.38-21.26,23.18-21.22S1331.26,1779,1331.26,1790.73Z"/><path class="k" d="M1404.37,1790.88c0,11.7-10.29,21.18-23,21.16s-23-9.53-23-21.25,10.32-21.2,23-21.16S1404.37,1779.18,1404.37,1790.88Z"/><path class="k" d="M1477.07,1791c0,11.67-10.24,21.11-22.89,21.1s-22.92-9.51-22.92-21.2,10.27-21.13,22.92-21.09S1477.07,1779.36,1477.07,1791Z"/><polygon class="bq" points="2182.67 1942.21 1522.7 1944.91 1522.7 1770.03 2182.67 1771.92 2182.67 1942.21"/><g class="n"><polygon class="l" points="1586.98 1932.34 1567.07 1932.41 1567.07 1791.21 1586.98 1791.25 1586.98 1932.34"/><polygon class="l" points="1622.3 1932.21 1602.45 1932.28 1602.45 1791.28 1622.3 1791.32 1622.3 1932.21"/><polygon class="l" points="1657.53 1932.08 1637.72 1932.15 1637.72 1791.35 1657.53 1791.39 1657.53 1932.08"/><polygon class="l" points="1692.65 1931.95 1672.91 1932.03 1672.91 1791.42 1692.65 1791.46 1692.65 1931.95"/><polygon class="l" points="1727.68 1931.83 1707.99 1931.9 1707.99 1791.5 1727.68 1791.54 1727.68 1931.83"/><polygon class="l" points="1762.61 1931.7 1742.97 1931.77 1742.97 1791.57 1762.61 1791.61 1762.61 1931.7"/><polygon class="l" points="1797.44 1931.58 1777.86 1931.65 1777.86 1791.64 1797.44 1791.68 1797.44 1931.58"/><polygon class="l" points="1832.17 1931.45 1812.64 1931.52 1812.64 1791.71 1832.17 1791.75 1832.17 1931.45"/><polygon class="l" points="1866.81 1931.33 1847.33 1931.4 1847.33 1791.78 1866.81 1791.82 1866.81 1931.33"/><polygon class="l" points="1901.34 1931.2 1881.93 1931.27 1881.93 1791.85 1901.34 1791.89 1901.34 1931.2"/><polygon class="l" points="1935.79 1931.08 1916.42 1931.15 1916.42 1791.92 1935.79 1791.96 1935.79 1931.08"/><polygon class="l" points="1970.14 1930.96 1950.83 1931.03 1950.83 1791.99 1970.14 1792.03 1970.14 1930.96"/><polygon class="l" points="2004.39 1930.83 1985.13 1930.9 1985.13 1792.06 2004.39 1792.1 2004.39 1930.83"/><polygon class="l" points="2038.55 1930.71 2019.34 1930.78 2019.34 1792.13 2038.55 1792.17 2038.55 1930.71"/><polygon class="l" points="2072.61 1930.59 2053.46 1930.66 2053.46 1792.2 2072.61 1792.24 2072.61 1930.59"/><polygon class="l" points="2106.58 1930.46 2087.48 1930.53 2087.48 1792.27 2106.58 1792.3 2106.58 1930.46"/><polygon class="l" points="2140.45 1930.34 2121.41 1930.41 2121.41 1792.34 2140.45 1792.37 2140.45 1930.34"/></g><g class="o"><polygon class="br" points="1586.98 1932.34 1567.07 1932.41 1567.07 1812.26 1586.98 1812.29 1586.98 1932.34"/><polygon class="bs" points="1622.3 1932.21 1602.45 1932.28 1602.45 1917.84 1622.3 1917.78 1622.3 1932.21"/><polygon class="bt" points="1657.53 1932.08 1637.72 1932.15 1637.72 1850.15 1657.53 1850.14 1657.53 1932.08"/><polygon class="bu" points="1692.65 1931.95 1672.91 1932.03 1672.91 1896.66 1692.65 1896.62 1692.65 1931.95"/><polygon class="bv" points="1727.68 1931.83 1707.99 1931.9 1707.99 1841.44 1727.68 1841.44 1727.68 1931.83"/><polygon class="bw" points="1762.61 1931.7 1742.97 1931.77 1742.97 1869.49 1762.61 1869.46 1762.61 1931.7"/><polygon class="bx" points="1797.44 1931.58 1777.86 1931.65 1777.86 1823.63 1797.44 1823.64 1797.44 1931.58"/><polygon class="by" points="1832.17 1931.45 1812.64 1931.52 1812.64 1812.55 1832.17 1812.58 1832.17 1931.45"/><polygon class="bz" points="1866.81 1931.33 1847.33 1931.4 1847.33 1872 1866.81 1871.97 1866.81 1931.33"/><polygon class="ca" points="1901.34 1931.2 1881.93 1931.27 1881.93 1801.39 1901.34 1801.43 1901.34 1931.2"/><polygon class="cb" points="1935.79 1931.08 1916.42 1931.15 1916.42 1820.69 1935.79 1820.71 1935.79 1931.08"/><polygon class="cc" points="1970.14 1930.96 1950.83 1931.03 1950.83 1901.45 1970.14 1901.4 1970.14 1930.96"/><polygon class="cd" points="2004.39 1930.83 1985.13 1930.9 1985.13 1861.48 2004.39 1861.46 2004.39 1930.83"/><polygon class="ce" points="2038.55 1930.71 2019.34 1930.78 2019.34 1830.86 2038.55 1830.87 2038.55 1930.71"/><polygon class="cf" points="2072.61 1930.59 2053.46 1930.66 2053.46 1857.89 2072.61 1857.88 2072.61 1930.59"/><polygon class="cg" points="2106.58 1930.46 2087.48 1930.53 2087.48 1817.82 2106.58 1817.84 2106.58 1930.46"/><polygon class="ch" points="2140.45 1930.34 2121.41 1930.41 2121.41 1805.3 2140.45 1805.33 2140.45 1930.34"/></g><path class="l" d="M1237.6,2222.5V2056.13c0-25.45,22.52-46.24,50.25-46.42l899.11-5.94c25.74-.17,46.57,19.52,46.57,44v159.84c0,24.46-20.83,44.64-46.57,45.07l-899.11,15.09C1260.12,2268.21,1237.6,2248,1237.6,2222.5Z"/><path class="k" d="M1331.26,2070.6c0,11.73-10.36,21.35-23.15,21.47s-23.18-9.3-23.18-21.06,10.38-21.37,23.18-21.47S1331.26,2058.86,1331.26,2070.6Z"/><path class="k" d="M1404.37,2069.94c0,11.7-10.29,21.29-23,21.41s-23-9.28-23-21,10.32-21.31,23-21.41S1404.37,2058.23,1404.37,2069.94Z"/><path class="k" d="M1477.07,2069.28c0,11.67-10.24,21.23-22.89,21.35s-22.92-9.25-22.92-20.94,10.27-21.25,22.92-21.35S1477.07,2057.61,1477.07,2069.28Z"/><polygon class="ci" points="2182.67 2212.67 1522.7 2222.66 1522.7 2047.78 2182.67 2042.38 2182.67 2212.67"/><g class="n"><polygon class="l" points="1586.98 2209.37 1567.07 2209.66 1567.07 2068.47 1586.98 2068.29 1586.98 2209.37"/><polygon class="l" points="1622.3 2208.86 1602.45 2209.15 1602.45 2068.15 1622.3 2067.97 1622.3 2208.86"/><polygon class="l" points="1657.53 2208.34 1637.72 2208.63 1637.72 2067.83 1657.53 2067.65 1657.53 2208.34"/><polygon class="l" points="1692.65 2207.82 1672.91 2208.11 1672.91 2067.51 1692.65 2067.34 1692.65 2207.82"/><polygon class="l" points="1727.68 2207.31 1707.99 2207.6 1707.99 2067.2 1727.68 2067.02 1727.68 2207.31"/><polygon class="l" points="1762.61 2206.8 1742.97 2207.09 1742.97 2066.88 1762.61 2066.7 1762.61 2206.8"/><polygon class="l" points="1797.44 2206.29 1777.86 2206.58 1777.86 2066.57 1797.44 2066.39 1797.44 2206.29"/><polygon class="l" points="1832.17 2205.78 1812.64 2206.07 1812.64 2066.25 1832.17 2066.08 1832.17 2205.78"/><polygon class="l" points="1866.81 2205.27 1847.33 2205.56 1847.33 2065.94 1866.81 2065.76 1866.81 2205.27"/><polygon class="l" points="1901.34 2204.77 1881.93 2205.05 1881.93 2065.63 1901.34 2065.45 1901.34 2204.77"/><polygon class="l" points="1935.79 2204.26 1916.42 2204.55 1916.42 2065.32 1935.79 2065.14 1935.79 2204.26"/><polygon class="l" points="1970.14 2203.76 1950.83 2204.04 1950.83 2065.01 1970.14 2064.83 1970.14 2203.76"/><polygon class="l" points="2004.39 2203.26 1985.13 2203.54 1985.13 2064.7 2004.39 2064.52 2004.39 2203.26"/><polygon class="l" points="2038.55 2202.76 2019.34 2203.04 2019.34 2064.39 2038.55 2064.22 2038.55 2202.76"/><polygon class="l" points="2072.61 2202.26 2053.46 2202.54 2053.46 2064.08 2072.61 2063.91 2072.61 2202.26"/><polygon class="l" points="2106.58 2201.76 2087.48 2202.04 2087.48 2063.77 2106.58 2063.6 2106.58 2201.76"/><polygon class="l" points="2140.45 2201.27 2121.41 2201.54 2121.41 2063.47 2140.45 2063.3 2140.45 2201.27"/></g><g class="o"><polygon class="cj" points="1586.98 2209.37 1567.07 2209.66 1567.07 2089.52 1586.98 2089.32 1586.98 2209.37"/><polygon class="ck" points="1622.3 2208.86 1602.45 2209.15 1602.45 2194.7 1622.3 2194.42 1622.3 2208.86"/><polygon class="cl" points="1657.53 2208.34 1637.72 2208.63 1637.72 2126.62 1657.53 2126.4 1657.53 2208.34"/><polygon class="cm" points="1692.65 2207.82 1672.91 2208.11 1672.91 2172.75 1692.65 2172.49 1692.65 2207.82"/><polygon class="cn" points="1727.68 2207.31 1707.99 2207.6 1707.99 2117.14 1727.68 2116.93 1727.68 2207.31"/><polygon class="co" points="1762.61 2206.8 1742.97 2207.09 1742.97 2144.8 1762.61 2144.56 1762.61 2206.8"/><polygon class="cp" points="1797.44 2206.29 1777.86 2206.58 1777.86 2098.55 1797.44 2098.35 1797.44 2206.29"/><polygon class="cq" points="1832.17 2205.78 1812.64 2206.07 1812.64 2087.1 1832.17 2086.91 1832.17 2205.78"/><polygon class="cr" points="1866.81 2205.27 1847.33 2205.56 1847.33 2146.16 1866.81 2145.92 1866.81 2205.27"/><polygon class="cs" points="1901.34 2204.77 1881.93 2205.05 1881.93 2075.18 1901.34 2074.99 1901.34 2204.77"/><polygon class="ct" points="1935.79 2204.26 1916.42 2204.55 1916.42 2094.09 1935.79 2093.89 1935.79 2204.26"/><polygon class="cu" points="1970.14 2203.76 1950.83 2204.04 1950.83 2174.47 1970.14 2174.21 1970.14 2203.76"/><polygon class="cv" points="2004.39 2203.26 1985.13 2203.54 1985.13 2134.12 2004.39 2133.89 2004.39 2203.26"/><polygon class="cw" points="2038.55 2202.76 2019.34 2203.04 2019.34 2103.13 2038.55 2102.92 2038.55 2202.76"/><polygon class="cx" points="2072.61 2202.26 2053.46 2202.54 2053.46 2129.78 2072.61 2129.55 2072.61 2202.26"/><polygon class="cy" points="2106.58 2201.76 2087.48 2202.04 2087.48 2089.33 2106.58 2089.14 2106.58 2201.76"/><polygon class="cz" points="2140.45 2201.27 2121.41 2201.54 2121.41 2076.44 2140.45 2076.25 2140.45 2201.27"/></g><path class="l" d="M1237.6,2503.39V2337c0-25.46,22.52-46.49,50.25-47L2187,2274.18c25.74-.46,46.57,19,46.57,43.46v159.85c0,24.46-20.83,44.87-46.57,45.58l-899.11,25C1260.12,2548.86,1237.6,2528.85,1237.6,2503.39Z"/><path class="k" d="M1331.26,2350.46c0,11.73-10.36,21.46-23.15,21.73s-23.18-9-23.18-20.8,10.38-21.49,23.18-21.73S1331.26,2338.72,1331.26,2350.46Z"/><path class="k" d="M1404.37,2349c0,11.7-10.29,21.41-23,21.67s-23-9-23-20.74,10.32-21.43,23-21.67S1404.37,2337.29,1404.37,2349Z"/><path class="k" d="M1477.07,2347.53c0,11.67-10.24,21.34-22.89,21.61s-22.92-9-22.92-20.69,10.27-21.36,22.92-21.6S1477.07,2335.86,1477.07,2347.53Z"/><polygon class="da" points="2182.67 2483.12 1522.7 2500.41 1522.7 2325.53 2182.67 2312.84 2182.67 2483.12"/><g class="n"><polygon class="l" points="1586.98 2486.41 1567.07 2486.92 1567.07 2345.73 1586.98 2345.33 1586.98 2486.41"/><polygon class="l" points="1622.3 2485.5 1602.45 2486.01 1602.45 2345.02 1622.3 2344.62 1622.3 2485.5"/><polygon class="l" points="1657.53 2484.6 1637.72 2485.11 1637.72 2344.31 1657.53 2343.91 1657.53 2484.6"/><polygon class="l" points="1692.65 2483.7 1672.91 2484.2 1672.91 2343.6 1692.65 2343.21 1692.65 2483.7"/><polygon class="l" points="1727.68 2482.8 1707.99 2483.3 1707.99 2342.9 1727.68 2342.5 1727.68 2482.8"/><polygon class="l" points="1762.61 2481.9 1742.97 2482.4 1742.97 2342.2 1762.61 2341.8 1762.61 2481.9"/><polygon class="l" points="1797.44 2481 1777.86 2481.51 1777.86 2341.49 1797.44 2341.1 1797.44 2481"/><polygon class="l" points="1832.17 2480.11 1812.64 2480.61 1812.64 2340.8 1832.17 2340.41 1832.17 2480.11"/><polygon class="l" points="1866.81 2479.22 1847.33 2479.72 1847.33 2340.1 1866.81 2339.71 1866.81 2479.22"/><polygon class="l" points="1901.34 2478.33 1881.93 2478.83 1881.93 2339.41 1901.34 2339.02 1901.34 2478.33"/><polygon class="l" points="1935.79 2477.45 1916.42 2477.95 1916.42 2338.72 1935.79 2338.33 1935.79 2477.45"/><polygon class="l" points="1970.14 2476.57 1950.83 2477.06 1950.83 2338.02 1970.14 2337.64 1970.14 2476.57"/><polygon class="l" points="2004.39 2475.68 1985.13 2476.18 1985.13 2337.34 2004.39 2336.95 2004.39 2475.68"/><polygon class="l" points="2038.55 2474.81 2019.34 2475.3 2019.34 2336.65 2038.55 2336.26 2038.55 2474.81"/><polygon class="l" points="2072.61 2473.93 2053.46 2474.42 2053.46 2335.96 2072.61 2335.58 2072.61 2473.93"/><polygon class="l" points="2106.58 2473.06 2087.48 2473.55 2087.48 2335.28 2106.58 2334.9 2106.58 2473.06"/><polygon class="l" points="2140.45 2472.19 2121.41 2472.68 2121.41 2334.6 2140.45 2334.22 2140.45 2472.19"/></g><g class="o"><polygon class="db" points="1586.98 2486.41 1567.07 2486.92 1567.07 2366.78 1586.98 2366.36 1586.98 2486.41"/><polygon class="dc" points="1622.3 2485.5 1602.45 2486.01 1602.45 2471.57 1622.3 2471.07 1622.3 2485.5"/><polygon class="dd" points="1657.53 2484.6 1637.72 2485.11 1637.72 2403.1 1657.53 2402.66 1657.53 2484.6"/><polygon class="de" points="1692.65 2483.7 1672.91 2484.2 1672.91 2448.84 1692.65 2448.36 1692.65 2483.7"/><polygon class="df" points="1727.68 2482.8 1707.99 2483.3 1707.99 2392.84 1727.68 2392.41 1727.68 2482.8"/><polygon class="dg" points="1762.61 2481.9 1742.97 2482.4 1742.97 2420.11 1762.61 2419.66 1762.61 2481.9"/><polygon class="dh" points="1797.44 2481 1777.86 2481.51 1777.86 2373.48 1797.44 2373.07 1797.44 2481"/><polygon class="di" points="1832.17 2480.11 1812.64 2480.61 1812.64 2361.64 1832.17 2361.23 1832.17 2480.11"/><polygon class="dj" points="1866.81 2479.22 1847.33 2479.72 1847.33 2420.32 1866.81 2419.86 1866.81 2479.22"/><polygon class="dk" points="1901.34 2478.33 1881.93 2478.83 1881.93 2348.95 1901.34 2348.56 1901.34 2478.33"/><polygon class="dl" points="1935.79 2477.45 1916.42 2477.95 1916.42 2367.49 1935.79 2367.07 1935.79 2477.45"/><polygon class="dm" points="1970.14 2476.57 1950.83 2477.06 1950.83 2447.48 1970.14 2447.01 1970.14 2476.57"/><polygon class="dn" points="2004.39 2475.68 1985.13 2476.18 1985.13 2406.76 2004.39 2406.32 2004.39 2475.68"/><polygon class="do" points="2038.55 2474.81 2019.34 2475.3 2019.34 2375.39 2038.55 2374.97 2038.55 2474.81"/><polygon class="dp" points="2072.61 2473.93 2053.46 2474.42 2053.46 2401.66 2072.61 2401.22 2072.61 2473.93"/><polygon class="dq" points="2106.58 2473.06 2087.48 2473.55 2087.48 2360.84 2106.58 2360.43 2106.58 2473.06"/><polygon class="dr" points="2140.45 2472.19 2121.41 2472.68 2121.41 2347.57 2140.45 2347.18 2140.45 2472.19"/></g><path class="l" d="M1237.6,2784.29V2617.93c0-25.46,22.52-46.74,50.25-47.54L2187,2544.58c25.74-.73,46.57,18.5,46.57,43v159.84c0,24.46-20.83,45.1-46.57,46.1l-899.11,34.95C1260.12,2829.51,1237.6,2809.75,1237.6,2784.29Z"/><path class="k" d="M1331.26,2630.32c0,11.74-10.36,21.58-23.15,22s-23.18-8.79-23.18-20.54,10.38-21.61,23.18-22S1331.26,2618.59,1331.26,2630.32Z"/><path class="k" d="M1404.37,2628.05c0,11.7-10.29,21.51-23,21.92s-23-8.77-23-20.49,10.32-21.54,23-21.92S1404.37,2616.35,1404.37,2628.05Z"/><path class="k" d="M1477.07,2625.78c0,11.67-10.24,21.46-22.89,21.86s-22.92-8.74-22.92-20.43,10.27-21.47,22.92-21.86S1477.07,2614.12,1477.07,2625.78Z"/><polygon class="ds" points="2182.67 2753.58 1522.7 2778.16 1522.7 2603.28 2182.67 2583.29 2182.67 2753.58"/><g class="n"><polygon class="l" points="1586.98 2763.45 1567.07 2764.18 1567.07 2622.98 1586.98 2622.36 1586.98 2763.45"/><polygon class="l" points="1622.3 2762.15 1602.45 2762.88 1602.45 2621.88 1622.3 2621.27 1622.3 2762.15"/><polygon class="l" points="1657.53 2760.86 1637.72 2761.59 1637.72 2620.79 1657.53 2620.17 1657.53 2760.86"/><polygon class="l" points="1692.65 2759.57 1672.91 2760.29 1672.91 2619.69 1692.65 2619.08 1692.65 2759.57"/><polygon class="l" points="1727.68 2758.28 1707.99 2759 1707.99 2618.6 1727.68 2617.99 1727.68 2758.28"/><polygon class="l" points="1762.61 2756.99 1742.97 2757.72 1742.97 2617.51 1762.61 2616.9 1762.61 2756.99"/><polygon class="l" points="1797.44 2755.72 1777.86 2756.43 1777.86 2616.43 1797.44 2615.82 1797.44 2755.72"/><polygon class="l" points="1832.17 2754.44 1812.64 2755.16 1812.64 2615.34 1832.17 2614.73 1832.17 2754.44"/><polygon class="l" points="1866.81 2753.17 1847.33 2753.88 1847.33 2614.26 1866.81 2613.66 1866.81 2753.17"/><polygon class="l" points="1901.34 2751.9 1881.93 2752.61 1881.93 2613.19 1901.34 2612.58 1901.34 2751.9"/><polygon class="l" points="1935.79 2750.63 1916.42 2751.34 1916.42 2612.11 1935.79 2611.51 1935.79 2750.63"/><polygon class="l" points="1970.14 2749.37 1950.83 2750.08 1950.83 2611.04 1970.14 2610.44 1970.14 2749.37"/><polygon class="l" points="2004.39 2748.11 1985.13 2748.82 1985.13 2609.97 2004.39 2609.38 2004.39 2748.11"/><polygon class="l" points="2038.55 2746.86 2019.34 2747.56 2019.34 2608.91 2038.55 2608.31 2038.55 2746.86"/><polygon class="l" points="2072.61 2745.6 2053.46 2746.31 2053.46 2607.85 2072.61 2607.25 2072.61 2745.6"/><polygon class="l" points="2106.58 2744.36 2087.48 2745.06 2087.48 2606.79 2106.58 2606.2 2106.58 2744.36"/><polygon class="l" points="2140.45 2743.11 2121.41 2743.81 2121.41 2605.73 2140.45 2605.14 2140.45 2743.11"/></g><g class="o"><polygon class="dt" points="1586.98 2763.45 1567.07 2764.18 1567.07 2644.03 1586.98 2643.4 1586.98 2763.45"/><polygon class="du" points="1622.3 2762.15 1602.45 2762.88 1602.45 2748.44 1622.3 2747.72 1622.3 2762.15"/><polygon class="dv" points="1657.53 2760.86 1637.72 2761.59 1637.72 2679.58 1657.53 2678.91 1657.53 2760.86"/><polygon class="dw" points="1692.65 2759.57 1672.91 2760.29 1672.91 2724.93 1692.65 2724.23 1692.65 2759.57"/><polygon class="dx" points="1727.68 2758.28 1707.99 2759 1707.99 2668.55 1727.68 2667.89 1727.68 2758.28"/><polygon class="dy" points="1762.61 2756.99 1742.97 2757.72 1742.97 2695.43 1762.61 2694.76 1762.61 2756.99"/><polygon class="dz" points="1797.44 2755.72 1777.86 2756.43 1777.86 2648.41 1797.44 2647.78 1797.44 2755.72"/><polygon class="ea" points="1832.17 2754.44 1812.64 2755.16 1812.64 2636.19 1832.17 2635.56 1832.17 2754.44"/><polygon class="eb" points="1866.81 2753.17 1847.33 2753.88 1847.33 2694.48 1866.81 2693.81 1866.81 2753.17"/><polygon class="ec" points="1901.34 2751.9 1881.93 2752.61 1881.93 2622.73 1901.34 2622.12 1901.34 2751.9"/><polygon class="ed" points="1935.79 2750.63 1916.42 2751.34 1916.42 2640.89 1935.79 2640.26 1935.79 2750.63"/><polygon class="ee" points="1970.14 2749.37 1950.83 2750.08 1950.83 2720.5 1970.14 2719.82 1970.14 2749.37"/><polygon class="ef" points="2004.39 2748.11 1985.13 2748.82 1985.13 2679.4 2004.39 2678.74 2004.39 2748.11"/><polygon class="eg" points="2038.55 2746.86 2019.34 2747.56 2019.34 2647.64 2038.55 2647.02 2038.55 2746.86"/><polygon class="eh" points="2072.61 2745.6 2053.46 2746.31 2053.46 2673.54 2072.61 2672.9 2072.61 2745.6"/><polygon class="ei" points="2106.58 2744.36 2087.48 2745.06 2087.48 2632.35 2106.58 2631.73 2106.58 2744.36"/><polygon class="ej" points="2140.45 2743.11 2121.41 2743.81 2121.41 2618.7 2140.45 2618.1 2140.45 2743.11"/></g><path class="l" d="M1237.6,3065.19V2898.83c0-25.46,22.52-47,50.25-48.09L2187,2815c25.74-1,46.57,18,46.57,42.44v159.85c0,24.46-20.83,45.32-46.57,46.61l-899.11,44.89C1260.12,3110.16,1237.6,3090.65,1237.6,3065.19Z"/><path class="k" d="M1331.26,2910.19c0,11.73-10.36,21.69-23.15,22.24s-23.18-8.53-23.18-20.29,10.38-21.72,23.18-22.25S1331.26,2898.45,1331.26,2910.19Z"/><path class="k" d="M1404.37,2907.1c0,11.71-10.29,21.63-23,22.18s-23-8.51-23-20.23,10.32-21.66,23-22.18S1404.37,2895.4,1404.37,2907.1Z"/><path class="k" d="M1477.07,2904c0,11.67-10.24,21.56-22.89,22.11s-22.92-8.49-22.92-20.18,10.27-21.59,22.92-22.11S1477.07,2892.37,1477.07,2904Z"/><polygon class="ek" points="2182.67 3024.03 1522.7 3055.9 1522.7 2881.03 2182.67 2853.75 2182.67 3024.03"/><g class="n"><polygon class="l" points="1586.98 3040.49 1567.07 3041.44 1567.07 2900.24 1586.98 2899.4 1586.98 3040.49"/><polygon class="l" points="1622.3 3038.8 1602.45 3039.75 1602.45 2898.75 1622.3 2897.91 1622.3 3038.8"/><polygon class="l" points="1657.53 3037.11 1637.72 3038.06 1637.72 2897.26 1657.53 2896.43 1657.53 3037.11"/><polygon class="l" points="1692.65 3035.44 1672.91 3036.38 1672.91 2895.78 1692.65 2894.95 1692.65 3035.44"/><polygon class="l" points="1727.68 3033.76 1707.99 3034.7 1707.99 2894.3 1727.68 2893.47 1727.68 3033.76"/><polygon class="l" points="1762.61 3032.09 1742.97 3033.03 1742.97 2892.82 1762.61 2892 1762.61 3032.09"/><polygon class="l" points="1797.44 3030.43 1777.86 3031.36 1777.86 2891.35 1797.44 2890.53 1797.44 3030.43"/><polygon class="l" points="1832.17 3028.77 1812.64 3029.7 1812.64 2889.89 1832.17 2889.06 1832.17 3028.77"/><polygon class="l" points="1866.81 3027.11 1847.33 3028.04 1847.33 2888.42 1866.81 2887.6 1866.81 3027.11"/><polygon class="l" points="1901.34 3025.46 1881.93 3026.39 1881.93 2886.97 1901.34 2886.15 1901.34 3025.46"/><polygon class="l" points="1935.79 3023.82 1916.42 3024.74 1916.42 2885.51 1935.79 2884.69 1935.79 3023.82"/><polygon class="l" points="1970.14 3022.17 1950.83 3023.1 1950.83 2884.06 1970.14 2883.25 1970.14 3022.17"/><polygon class="l" points="2004.39 3020.54 1985.13 3021.46 1985.13 2882.61 2004.39 2881.8 2004.39 3020.54"/><polygon class="l" points="2038.55 3018.9 2019.34 3019.82 2019.34 2881.17 2038.55 2880.36 2038.55 3018.9"/><polygon class="l" points="2072.61 3017.28 2053.46 3018.19 2053.46 2879.73 2072.61 2878.92 2072.61 3017.28"/><polygon class="l" points="2106.58 3015.65 2087.48 3016.57 2087.48 2878.3 2106.58 2877.49 2106.58 3015.65"/><polygon class="l" points="2140.45 3014.03 2121.41 3014.94 2121.41 2876.87 2140.45 2876.06 2140.45 3014.03"/></g><g class="o"><polygon class="el" points="1586.98 3040.49 1567.07 3041.44 1567.07 2921.29 1586.98 2920.44 1586.98 3040.49"/><polygon class="em" points="1622.3 3038.8 1602.45 3039.75 1602.45 3025.3 1622.3 3024.37 1622.3 3038.8"/><polygon class="en" points="1657.53 3037.11 1637.72 3038.06 1637.72 2956.05 1657.53 2955.17 1657.53 3037.11"/><polygon class="eo" points="1692.65 3035.44 1672.91 3036.38 1672.91 3001.01 1692.65 3000.1 1692.65 3035.44"/><polygon class="ep" points="1727.68 3033.76 1707.99 3034.7 1707.99 2944.25 1727.68 2943.38 1727.68 3033.76"/><polygon class="eq" points="1762.61 3032.09 1742.97 3033.03 1742.97 2970.74 1762.61 2969.85 1762.61 3032.09"/><polygon class="er" points="1797.44 3030.43 1777.86 3031.36 1777.86 2923.34 1797.44 2922.49 1797.44 3030.43"/><polygon class="es" points="1832.17 3028.77 1812.64 3029.7 1812.64 2910.73 1832.17 2909.89 1832.17 3028.77"/><polygon class="et" points="1866.81 3027.11 1847.33 3028.04 1847.33 2968.64 1866.81 2967.76 1866.81 3027.11"/><polygon class="eu" points="1901.34 3025.46 1881.93 3026.39 1881.93 2896.51 1901.34 2895.68 1901.34 3025.46"/><polygon class="ev" points="1935.79 3023.82 1916.42 3024.74 1916.42 2914.28 1935.79 2913.44 1935.79 3023.82"/><polygon class="ew" points="1970.14 3022.17 1950.83 3023.1 1950.83 2993.52 1970.14 2992.62 1970.14 3022.17"/><polygon class="ex" points="2004.39 3020.54 1985.13 3021.46 1985.13 2952.03 2004.39 2951.17 2004.39 3020.54"/><polygon class="ey" points="2038.55 3018.9 2019.34 3019.82 2019.34 2919.91 2038.55 2919.07 2038.55 3018.9"/><polygon class="ez" points="2072.61 3017.28 2053.46 3018.19 2053.46 2945.43 2072.61 2944.57 2072.61 3017.28"/><polygon class="fa" points="2106.58 3015.65 2087.48 3016.57 2087.48 2903.85 2106.58 2903.03 2106.58 3015.65"/><polygon class="fb" points="2140.45 3014.03 2121.41 3014.94 2121.41 2889.84 2140.45 2889.02 2140.45 3014.03"/></g><path class="fc" d="M2136.75,2920c-145.75-187.47-333.39-182.1-386.68-358.14-57-188.38,129-270.37,82.1-474.91-47.64-207.9-276.28-209.52-309.47-419.75-26.94-170.63,115.92-219.75,69.25-372.85-47.75-156.65-219.14-178.22-253-331.59-10.51-47.6-4.43-93.25,9.41-134.26l-108.31-4.34c-39.08-1.56-70.84,26.2-70.84,62v2351c0,35.82,31.76,63,70.84,60.8l991.18-56.77a70.16,70.16,0,0,0,28.07-7.73C2241.11,3086.9,2189.81,2988.2,2136.75,2920Z"/><path class="fd" d="M2378.57,3198.83s-80.75,36.7-82.07,42.56,51.93-2,73.67-1.12,39.62-5.58,37.65-14.78-9.57-32.37-9.57-32.37Z"/><path class="fe" d="M2375.62,3169.05l4.91,36.35s12.78,4.56,21.37-.82l3.66-39.88Z"/><path class="ff" d="M2755.91,3169.92l9.39,15.08a18,18,0,0,1,2.15,14.1c-3.28,12.54-9.84,37-12.7,43.35-3.9,8.68-56.16,13.83-56.16,13.83s-4.66-6.56,6.19-14.48,17.83-9.16,21.66-20.85,6.38-44.75,6.38-44.75Z"/><path class="fg" d="M2716.81,3131.6c3.43,2.74,20.22,53.68,20.22,53.68s5.43,6.95,15.75-3.31,4.67-4.59,4.67-4.59l-1.93-50.11Z"/><path class="fh" d="M2331.19,2438.6c-4.26,108.45-4.44,226.28,1.8,352.16,7,141.75,21.15,272.76,38.94,391.53,6.62.21,13.57.24,20.83,0,4.9-.14,9.65-.38,14.24-.69a901.68,901.68,0,0,0,29.93-95.7,922,922,0,0,0,20.89-112c15.55-122.84-2.68-133.56,9.94-224.6,11.18-80.62,27.07-83.77,45.73-198.24,20.25-124.2,5.18-142.84-2.15-149.57C2480.14,2372.83,2406.85,2392.34,2331.19,2438.6Z"/><path class="fi" d="M2511.34,2401.49c-29.76-27.33-97.81-10.79-169.69,30.93,82.69,89.34,91.7,147.3,81.79,184.9-11.2,42.5-45.27,54.74-45.14,101.22.16,57.11,51.7,72.23,50.61,132.67-.73,40-23.37,39.55-28.72,88.9-6.33,58.4,23.26,78.53,13.67,121.73-4.12,18.59-15.89,42.88-49.4,67.91,2.41,17.74,4.89,35.3,7.47,52.54,6.62.21,13.57.24,20.83,0,4.9-.14,9.65-.38,14.24-.69a902.15,902.15,0,0,0,29.93-95.69,922.46,922.46,0,0,0,20.89-112c15.55-122.84-2.68-133.56,9.94-224.6,11.18-80.62,27.07-83.77,45.73-198.24C2533.74,2426.85,2518.67,2408.22,2511.34,2401.49Z"/><path class="fj" d="M2382.41,2436.78a2435.46,2435.46,0,0,1,333.85,714.56,43.54,43.54,0,0,0,23.84,3.69,44.35,44.35,0,0,0,27-14.58,701.73,701.73,0,0,0,6.19-172.94c-2.45-27.53-6.77-73.38-24.32-130-19.66-63.4-33.17-67-58.82-134-26.61-69.62-20.17-87-45.66-174.13a1150.41,1150.41,0,0,0-56.92-152.77Z"/><path class="fk" d="M2415.78,1991.27c-65.31-63.44-99.28-66.37-111.52-111.88-12.11-45,3.46-107.84,47.9-132.19,53.07-29.08,104,3.34,144.16,38.32,46.13,40.2,84.69,71.5,149.14,72.44,54.75.8,109.37-9.06,164-.89a178.32,178.32,0,0,1,45.35,12.8c59.32,26,42.79,116.49,103.16,137.22,40.35,13.86,59.74-22.42,116.61-19.69,66.83,3.21,127.62,57.52,155.72,112.25,51.36,100,2.13,218.24-61.25,282.16-52.07,52.52-148.81,103.83-211.79,72.1-49.75-25.07-52.24-88.76-99.06-94-33.29-3.76-42.2,27.29-84.3,34-69.14,11-134-58.54-151.64-77.52-50.4-54.08-34.63-76.82-92.68-174.63C2506.64,2103.08,2473.62,2047.44,2415.78,1991.27Z"/><path class="fl" d="M2189.52,1982.12c-55.1,60.57-95.84,161.35-63.23,197.05,11.22,12.3,29,14.49,42.64,16.18,58.46,7.23,86.24-35.79,109.09-24.61,29.35,14.37,12,102.82,5.21,170.29-11.95,119-43.8,139.9-22.62,180.82,27.57,53.25,105.71,64.47,126.83,67.5,72.24,10.37,84.37-23.21,163.5-19.27,90.37,4.5,98.7,49.51,164.89,37.45,60.47-11,84.87-54.28,129.64-40.23,28,8.79,33.43,30.39,60.62,30.9s57.8-20.64,62.23-45.08c5.51-30.36-28-72.75-86.59-78.82-24.13,5.8-63.72,11.33-105.59-3.6-68.61-24.46-99.09-88-132.94-158.67-23.42-48.86-66.47-138.66-55.74-249.53,4.42-45.73,14.43-58.21,4.47-83.91-13.82-35.68-101.68-91.2-203.84-87.89C2374.64,1891.13,2267.61,1896.3,2189.52,1982.12Z"/><path class="fm" d="M2140,2057.89l196.29,27.86a5.34,5.34,0,0,1,4.44,4l66.48,267.05c1,3.83-4.17,12.64-8,11.82L2207,2322.17a5.33,5.33,0,0,1-4.05-3.82l-72-250.28C2130,2064.36,2136.15,2057.35,2140,2057.89Z"/><path class="fn" d="M2136.25,2063.88l196.29,27.86a5.34,5.34,0,0,1,4.44,4l66.47,267.05a5.34,5.34,0,0,1-6.29,6.52l-193.87-41.15a5.31,5.31,0,0,1-4-3.82l-68.91-253.77A5.35,5.35,0,0,1,2136.25,2063.88Z"/><path class="fo" d="M2189.16,2079l-5.49-21.31a2.85,2.85,0,0,1,3-3.55l71.74,7.35a2.85,2.85,0,0,1,2.5,2.25l4.89,23.45a2.85,2.85,0,0,1-3.17,3.41l-71.13-9.48A2.84,2.84,0,0,1,2189.16,2079Z"/><path class="fp" d="M2289.61,2295.3c-8.56-42.82,15.28-67.69-2.92-102.15-25.75-48.74-93.07-36.12-109.61-75-4.46-10.49-5.57-25.55,4.18-47.88l-45-6.38a5.35,5.35,0,0,0-5.91,6.69l68.91,253.77a5.31,5.31,0,0,0,4,3.82l117.83,25C2301.79,2332.49,2293.08,2312.7,2289.61,2295.3Z"/><path class="fq" d="M2436.68,2279.18s-29.18-9-39.92-17.37-21.74-21.27-38.74-22.37-34.92,5.76-27.3,8.54,20.65,19.79,31.19,27,36,10.42,40.77,10.57,22.38,13.35,22.38,13.35Z"/><path class="fr" d="M2881.73,2474.3c-24.13,5.8-63.72,11.33-105.59-3.6-68.61-24.46-99.09-88-132.94-158.67-23.42-48.86-66.47-138.66-55.74-249.53,4.42-45.73,14.43-58.21,4.47-83.91a81.67,81.67,0,0,0-5.71-11.65c-32.84,17.62-46.88,37.2-52.23,55.1-13,43.58,23.21,84-1.51,120.22-23.67,34.68-71.87,19.48-85.35,49.91-14.55,32.82,37.84,58.88,34.87,111.59-3.56,63.26-82.43,86.35-73.47,129.83,7.77,37.68,71.4,41.53,69.36,61.11-2.42,23.28-95.89,51.56-169.75,15a160.81,160.81,0,0,1-50.94-40.18c-5,20.23-5.89,34.33,3.41,52.29,27.57,53.25,105.71,64.47,126.83,67.5,72.24,10.37,84.37-23.21,163.5-19.27,90.37,4.5,98.7,49.51,164.89,37.45,60.47-11,84.87-54.29,129.64-40.23,28,8.79,33.43,30.39,60.62,30.9s57.8-20.65,62.23-45.08C2973.83,2522.76,2940.36,2480.36,2881.73,2474.3Z"/><path class="fs" d="M2437.18,2266.77l-32.49,46.05c13.42,8.37,157.14,95.29,273.86,35.75,14.43-7.36,52.79-26.93,76.84-70.47,26.5-48,19.29-95.87,14.61-127-11.57-77-58-161.24-132-200.75-28.27-15.1-62.68-24.79-95-33.91-27.45-7.74-70.75-18.2-72.12-14.07-.67,2,9.27,5.7,15.94,10.44,41,29.07-24.66,125.1,21.5,179.09,44.22,51.73,108.61,50.53,114.53,93.91,2.75,20.17-8.92,36.87-14.13,44.3C2579.69,2271.65,2511.68,2284.6,2437.18,2266.77Z"/><path class="ft" d="M2379.73,1815.94s12.46,53.39,33.73,63.68,55.25,23.08,59.27,27.1-121.78,31.09-188.19,5.91h0c20.33-6.53,25.81-8.71,25.81-8.71,5.47-2.19,15.68-6.26,25.59-13.38a91.3,91.3,0,0,0,26.5-30.25l-3.38-29.93Z"/><path class="fu" d="M2384.78,1834.78s-11.14,19.24-32.33,13.94c-19-4.74-13-53.1.89-60,4.64-2.3,13.61-2.44,19.94.64,4.45,2.16,17,14.84,12.3,31,4.47-1.82,8.66-1,9.92,1.14,1.6,2.77-1.89,7.13-2.68,8.12A15.61,15.61,0,0,1,2384.78,1834.78Z"/><path class="fv" d="M2150.18,2143.62s-16.18-31,0-39.81,42.65,0,42.65,0-3.93,7.7-15.75,14.33S2150.18,2143.62,2150.18,2143.62Z"/><path class="fw" d="M833.37,1532.19l159,187.62,44.37,16.14,3-7.54L1201.82,1558l11.9-7.84-46.54-15.38-68.67-.53a14.51,14.51,0,0,1-14.44-14.89l51.73-257.62-45.6-13.46-87.46,2.7a13.48,13.48,0,0,1-13-8.28,15.15,15.15,0,0,1,2.85-15.82l210.07-236.65c5.92-6.67,17-7.4,22.63-1.46l212.58,222.85a14.65,14.65,0,0,1,2.41,16.62,17.34,17.34,0,0,1-15,9.68l-95.52,2.95-3,128.76,48.55,14.66,310-19.7c134.64-1.89,252.12-104.7,257.74-229.33,2.8-62.27-21.64-119.53-68.41-160.82-24.25-21.41-4.62-26.28-36.17-35.73-5.57-1.67-58.91-13.76-64.56-15a255,255,0,0,0-73.06-5.25q-5.74.4-11.41,1c-29.69,3.47-54.49-15.19-56.71-42.22-18.53-225.8-211.81-372.88-437.46-344.47C1031.71,553.38,886.92,665.18,821.59,816c-8.26,19.09-26.69,31.41-45.82,30.74a245.15,245.15,0,0,0-43.51,2.38c-125.59,18.06-227,134.36-234.83,265-4.23,70.76,17.53,136.86,61.71,186.7,44.77,50.52,106.84,78.09,175.38,77.13l168-2.36a13.65,13.65,0,0,1,13.73,14.25l-2.8,128.54a14.49,14.49,0,0,1-14.36,14.32Z"/><path class="fx" d="M1999.75,1149.53c-1.57,34.88-11.94,68.07-29,97.82-44.26,77.22-133.7,131.4-232.21,132.55l-363.23,4.4,3.1-129.56,96.75-2.8a17.6,17.6,0,0,0,15.21-9.72,14.73,14.73,0,0,0-2.46-16.73l-215.28-224.63c-5.71-6-16.89-5.29-22.9,1.45L1037,1240a15.08,15.08,0,0,0-2.87,15.89,13.62,13.62,0,0,0,13.09,8.38l88.56-2.56-6.24,272.71a14.64,14.64,0,0,0,14.62,15l69.53.69-177,185.77L875.84,1546.87l66.54.65a14.6,14.6,0,0,0,14.51-14.4l2.84-129.29a13.78,13.78,0,0,0-13.9-14.36l-170,2c-69.34.84-132.13-27-177.42-77.88-44.68-50.23-66.7-116.73-62.41-187.87,7.93-131.36,110.54-248.18,237.57-266.17a251.1,251.1,0,0,1,44-2.34A44.38,44.38,0,0,0,838.2,853,52,52,0,0,0,864,826.42C930.09,674.81,1076.62,562.51,1242.21,542c228.49-28.3,424.29,120,443.06,347.3,2.25,27.18,27.37,46,57.46,42.57,3.83-.42,7.7-.76,11.57-1,66.54-4.52,129.25,15.47,176.16,56.67C1977.85,1029.11,2002.62,1086.81,1999.75,1149.53Z"/><path class="fy" d="M1970.73,1247.35c-44.26,77.22-133.7,131.4-232.21,132.55l-363.23,4.4,3.1-129.56,96.75-2.8a17.6,17.6,0,0,0,15.21-9.72,14.73,14.73,0,0,0-2.46-16.73l-215.28-224.63c-5.71-6-16.89-5.29-22.9,1.45L1037,1240a15.08,15.08,0,0,0-2.87,15.89,13.62,13.62,0,0,0,13.09,8.38l88.56-2.56-6.24,272.71a14.64,14.64,0,0,0,14.62,15l69.53.69-177,185.77L875.84,1546.87l66.54.65a14.6,14.6,0,0,0,14.51-14.4l2.84-129.29a13.78,13.78,0,0,0-13.9-14.36l-170,2c-69.34.84-132.13-27-177.42-77.88-44.68-50.23-66.7-116.73-62.41-187.87,7.93-131.36,110.54-248.18,237.57-266.17a251.1,251.1,0,0,1,44-2.34A44.38,44.38,0,0,0,838.2,853c4.17,5.21,8.27,10.53,12.25,15.93,36,48.63,73,110.61,140.71,113.87,65.85,3.14,125.92-41,186.65-59.54,76.34-23.2,151.92-18.84,216.4,31.93,64.86,51.08,107.28,124.74,172.48,175.55,52.8,41.12,116,64.36,182.25,72,68.11,7.88,138.4,4.55,202.15,34.07A177.72,177.72,0,0,1,1970.73,1247.35Z"/></g></svg>