<svg xmlns="http://www.w3.org/2000/svg" width="30" height="30" viewBox="0 0 30 30">
    <g fill="none" fill-rule="nonzero">
        <path fill="#4EAF94" d="M15 0C6.716 0 0 6.715 0 15c0 8.284 6.716 15 15 15 8.284 0 15-6.716 15-15 0-8.285-6.716-15-15-15z"/>
        <path fill="#FFF" d="M21.017 7.5v3.39h-4.448v1.628c3.563.196 6.244 1.05 6.244 2.071 0 1.022-2.681 1.875-6.244 2.071v5.84H13.3v-5.848c-3.497-.21-6.114-1.053-6.114-2.063 0-1.01 2.617-1.853 6.114-2.064V10.89H8.853V7.5h12.164zm-4.448 5.388v1.982a30.248 30.248 0 0 1-3.267-.007V12.894c-3.003.15-5.226.689-5.226 1.33 0 .758 3.1 1.372 6.924 1.372 3.824 0 6.924-.614 6.924-1.372 0-.65-2.287-1.195-5.355-1.336z"/>
    </g>
</svg>
