<svg width="170" height="45" viewBox="0 0 170 45" fill="none" xmlns="http://www.w3.org/2000/svg">
<path d="M32.2207 42.917C28.5557 42.917 25.5713 39.9337 25.5713 36.2701V32.261C25.5713 30.8898 24.4509 29.7697 23.0791 29.7697H20.9953C19.6235 29.7697 18.5031 30.8898 18.5031 32.261V36.2806C18.5031 39.9442 15.5187 42.9274 11.8537 42.9274H8.7227C5.05768 42.9274 2.0733 39.9442 2.0733 36.2806V8.7195C2.0733 5.05585 5.05768 2.0726 8.7227 2.0726H11.8537C15.5187 2.0726 18.5031 5.05585 18.5031 8.7195V12.5297C18.5031 13.9009 19.6235 15.021 20.9953 15.021H23.0791C24.4509 15.021 25.5713 13.9009 25.5713 12.5297V8.7195C25.5713 5.05585 28.5557 2.0726 32.2207 2.0726H35.3517C39.0167 2.0726 42.0011 5.05585 42.0011 8.7195V36.2806C42.0011 39.9442 39.0167 42.9274 35.3517 42.9274H32.2207V42.917Z" fill="url(#paint0_linear)"/>
<path d="M35.3517 4.14515C37.8754 4.14515 39.9173 6.18632 39.9173 8.709V36.2701C39.9173 38.7927 37.8754 40.8339 35.3517 40.8339H32.2208C29.6971 40.8339 27.6552 38.7927 27.6552 36.2701V32.261C27.6552 29.7383 25.6133 27.6971 23.0896 27.6971H21.0058C18.4822 27.6971 16.4402 29.7383 16.4402 32.261V36.2805C16.4402 38.8032 14.3983 40.8444 11.8747 40.8444H8.74369C6.22006 40.8444 4.17812 38.8032 4.17812 36.2805V8.71947C4.17812 6.19679 6.22006 4.15562 8.74369 4.15562H11.8747C14.3983 4.15562 16.4402 6.19679 16.4402 8.71947V12.5297C16.4402 15.0523 18.4822 17.0935 21.0058 17.0935H23.0896C25.6133 17.0935 27.6552 15.0523 27.6552 12.5297V8.71947C27.6552 6.19679 29.6971 4.15562 32.2208 4.15562H35.3517V4.14515ZM35.3517 0H32.2208C27.4143 0 23.498 3.91486 23.498 8.71947V12.5297C23.498 12.7599 23.3095 12.9484 23.0792 12.9484H20.9953C20.765 12.9484 20.5765 12.7599 20.5765 12.5297V8.71947C20.5765 3.91486 16.6601 0 11.8537 0H8.72275C3.91633 0 0 3.91486 0 8.71947V36.2805C0 41.0851 3.91633 45 8.72275 45H11.8537C16.6601 45 20.5765 41.0851 20.5765 36.2805V32.261C20.5765 32.0307 20.765 31.8423 20.9953 31.8423H23.0792C23.3095 31.8423 23.498 32.0307 23.498 32.261V36.2805C23.498 41.0851 27.4143 45 32.2208 45H35.3517C40.1581 45 44.0745 41.0851 44.0745 36.2805V8.71947C44.0745 3.91486 40.1686 0 35.3517 0Z" fill="white"/>
<path d="M67.0075 29.9233H62.9808V22.9083H57.0157V29.9233H52.9659V13.1242H57.0157V19.7931H62.9808V13.1242H67.0075V29.9233ZM76.4339 29.9233C76.2955 29.6694 76.1724 29.2964 76.0647 28.8041C75.3494 29.7041 74.3494 30.154 73.0649 30.154C71.888 30.154 70.8881 29.8002 70.065 29.0926C69.242 28.3772 68.8305 27.4811 68.8305 26.4042C68.8305 25.0505 69.3304 24.0274 70.3304 23.3352C71.3303 22.6429 72.7841 22.2968 74.6917 22.2968H75.8916V21.6391C75.8916 20.493 75.3955 19.92 74.4033 19.92C73.4802 19.92 73.0187 20.3738 73.0187 21.2814H69.1305C69.1305 20.0738 69.642 19.0931 70.665 18.3393C71.6957 17.5855 73.0072 17.2086 74.5994 17.2086C76.1916 17.2086 77.4492 17.597 78.3723 18.3739C79.2953 19.1508 79.7684 20.2161 79.7914 21.5699V27.0965C79.8068 28.2426 79.9837 29.1195 80.3222 29.7271V29.9233H76.4339ZM73.9994 27.385C74.484 27.385 74.884 27.2811 75.1994 27.0734C75.5224 26.8658 75.7532 26.6311 75.8916 26.3696V24.3736H74.7609C73.4072 24.3736 72.7303 24.9812 72.7303 26.1966C72.7303 26.5504 72.8495 26.8388 73.0879 27.0619C73.3264 27.2773 73.6302 27.385 73.9994 27.385ZM88.491 26.4158C88.491 26.085 88.3179 25.8197 87.9718 25.6197C87.6256 25.4197 86.968 25.212 85.9988 24.9966C85.0296 24.7812 84.2297 24.5005 83.5989 24.1544C82.9682 23.8005 82.4874 23.3736 82.1567 22.8737C81.8259 22.3737 81.6606 21.8006 81.6606 21.1545C81.6606 20.0084 82.1336 19.0662 83.0797 18.3277C84.0258 17.5816 85.2642 17.2086 86.7949 17.2086C88.441 17.2086 89.764 17.5816 90.7639 18.3277C91.7639 19.0739 92.2638 20.0546 92.2638 21.2699H88.364C88.364 20.2699 87.8372 19.77 86.7834 19.77C86.3757 19.77 86.0334 19.8854 85.7565 20.1161C85.4796 20.3392 85.3411 20.6199 85.3411 20.9584C85.3411 21.3045 85.5104 21.5853 85.8488 21.8006C86.1872 22.016 86.7257 22.1929 87.4641 22.3314C88.2102 22.4698 88.864 22.6352 89.4255 22.8275C91.3024 23.4736 92.2408 24.6313 92.2408 26.3004C92.2408 27.4388 91.7331 28.3657 90.7178 29.081C89.7101 29.7964 88.4025 30.154 86.7949 30.154C85.7257 30.154 84.7719 29.9617 83.9335 29.5771C83.0951 29.1925 82.4413 28.6695 81.9721 28.008C81.5029 27.3465 81.2683 26.6504 81.2683 25.9196H84.9027C84.9181 26.4965 85.1104 26.9196 85.4796 27.1888C85.8488 27.4503 86.3218 27.5811 86.8987 27.5811C87.4295 27.5811 87.8256 27.4734 88.0871 27.258C88.3564 27.0427 88.491 26.7619 88.491 26.4158ZM97.8712 18.7777C98.702 17.7316 99.7634 17.2086 101.056 17.2086C102.433 17.2086 103.471 17.6162 104.171 18.4316C104.871 19.2469 105.229 20.4507 105.244 22.0429V29.9233H101.344V22.1352C101.344 21.4737 101.21 20.9891 100.94 20.6815C100.671 20.3661 100.213 20.2084 99.5673 20.2084C98.7673 20.2084 98.202 20.4622 97.8712 20.9699V29.9233H93.983V12.2011H97.8712V18.7777ZM106.952 23.589C106.952 22.3275 107.159 21.2122 107.575 20.243C107.99 19.2738 108.586 18.5277 109.363 18.0047C110.14 17.4739 111.044 17.2086 112.074 17.2086C113.374 17.2086 114.39 17.647 115.12 18.5239L115.259 17.4393H118.789V29.4502C118.789 30.5502 118.532 31.504 118.016 32.3116C117.509 33.127 116.77 33.75 115.801 34.1807C114.832 34.6192 113.709 34.8384 112.432 34.8384C111.517 34.8384 110.628 34.6653 109.767 34.3192C108.913 33.9731 108.259 33.5231 107.805 32.9693L109.432 30.6848C110.155 31.5386 111.109 31.9655 112.294 31.9655C114.017 31.9655 114.878 31.0809 114.878 29.3118V28.9195C114.132 29.7425 113.19 30.154 112.051 30.154C110.528 30.154 109.298 29.5733 108.359 28.4118C107.421 27.2427 106.952 25.6812 106.952 23.7275V23.589ZM110.851 23.8313C110.851 24.8543 111.044 25.6658 111.428 26.2658C111.813 26.8581 112.351 27.1542 113.043 27.1542C113.882 27.1542 114.493 26.8734 114.878 26.3119V21.0622C114.501 20.493 113.897 20.2084 113.067 20.2084C112.374 20.2084 111.832 20.5199 111.44 21.143C111.047 21.7583 110.851 22.6544 110.851 23.8313ZM128.55 20.9584L127.27 20.8661C126.047 20.8661 125.262 21.2507 124.916 22.0199V29.9233H121.028V17.4393H124.674L124.801 19.0431C125.454 17.8201 126.366 17.2086 127.535 17.2086C127.95 17.2086 128.312 17.2547 128.62 17.347L128.55 20.9584ZM135.762 30.154C133.846 30.154 132.296 29.5848 131.112 28.4464C129.927 27.3003 129.335 25.812 129.335 23.9813V23.6582C129.335 22.3814 129.57 21.2545 130.039 20.2776C130.516 19.3008 131.208 18.547 132.116 18.0162C133.023 17.4778 134.1 17.2086 135.346 17.2086C137.1 17.2086 138.484 17.7547 139.5 18.8469C140.515 19.9315 141.023 21.4468 141.023 23.3929V24.9043H133.292C133.431 25.6043 133.735 26.1542 134.204 26.5542C134.673 26.9542 135.281 27.1542 136.027 27.1542C137.258 27.1542 138.219 26.7234 138.911 25.862L140.688 27.9618C140.204 28.631 139.515 29.1656 138.623 29.5656C137.738 29.9579 136.785 30.154 135.762 30.154ZM135.323 20.2084C134.185 20.2084 133.508 20.9622 133.292 22.4698H137.215V22.1698C137.231 21.5468 137.073 21.0661 136.742 20.7276C136.411 20.3815 135.938 20.2084 135.323 20.2084ZM148.638 30.154C146.722 30.154 145.173 29.5848 143.988 28.4464C142.803 27.3003 142.211 25.812 142.211 23.9813V23.6582C142.211 22.3814 142.446 21.2545 142.915 20.2776C143.392 19.3008 144.084 18.547 144.992 18.0162C145.899 17.4778 146.976 17.2086 148.222 17.2086C149.976 17.2086 151.361 17.7547 152.376 18.8469C153.391 19.9315 153.899 21.4468 153.899 23.3929V24.9043H146.169C146.307 25.6043 146.611 26.1542 147.08 26.5542C147.549 26.9542 148.157 27.1542 148.903 27.1542C150.134 27.1542 151.095 26.7234 151.788 25.862L153.564 27.9618C153.08 28.631 152.391 29.1656 151.499 29.5656C150.615 29.9579 149.661 30.154 148.638 30.154ZM148.199 20.2084C147.061 20.2084 146.384 20.9622 146.169 22.4698H150.092V22.1698C150.107 21.5468 149.949 21.0661 149.618 20.7276C149.288 20.3815 148.815 20.2084 148.199 20.2084ZM154.984 23.589C154.984 21.6122 155.41 20.0546 156.264 18.9162C157.118 17.7778 158.31 17.2086 159.841 17.2086C160.956 17.2086 161.895 17.647 162.656 18.5239V12.2011H166.556V29.9233H163.06L162.864 28.5849C162.064 29.631 161.049 30.154 159.818 30.154C158.333 30.154 157.157 29.5848 156.287 28.4464C155.418 27.308 154.984 25.6889 154.984 23.589ZM158.872 23.8313C158.872 26.0466 159.518 27.1542 160.81 27.1542C161.672 27.1542 162.287 26.7927 162.656 26.0696V21.316C162.302 20.5776 161.695 20.2084 160.833 20.2084C159.633 20.2084 158.983 21.1776 158.883 23.116L158.872 23.8313Z" fill="#000451"/>
<defs>
<linearGradient id="paint0_linear" x1="3.79436" y1="40.7375" x2="40.2745" y2="4.24365" gradientUnits="userSpaceOnUse">
<stop stop-color="#F34F93"/>
<stop offset="1" stop-color="#8F4FF6"/>
</linearGradient>
</defs>
</svg>
