<svg width="21" height="21" viewBox="0 0 21 21" fill="none" xmlns="http://www.w3.org/2000/svg">
<path d="M14.7785 19.6846C13.0975 19.6846 11.7287 18.3163 11.7287 16.6359V14.7971C11.7287 14.1681 11.2148 13.6544 10.5856 13.6544H9.62981C9.00063 13.6544 8.48671 14.1681 8.48671 14.7971V16.6407C8.48671 18.3211 7.11788 19.6894 5.43686 19.6894H4.00078C2.31976 19.6894 0.950928 18.3211 0.950928 16.6407V3.99936C0.950928 2.31897 2.31976 0.950653 4.00078 0.950653H5.43686C7.11788 0.950653 8.48671 2.31897 8.48671 3.99936V5.74697C8.48671 6.37591 9.00063 6.88963 9.62981 6.88963H10.5856C11.2148 6.88963 11.7287 6.37591 11.7287 5.74697V3.99936C11.7287 2.31897 13.0975 0.950653 14.7785 0.950653H16.2146C17.8956 0.950653 19.2645 2.31897 19.2645 3.99936V16.6407C19.2645 18.3211 17.8956 19.6894 16.2146 19.6894H14.7785V19.6846Z" fill="url(#paint0_linear)"/>
<path d="M16.2147 1.90124C17.3722 1.90124 18.3087 2.83746 18.3087 3.99453V16.6359C18.3087 17.7929 17.3722 18.7292 16.2147 18.7292H14.7786C13.6211 18.7292 12.6845 17.7929 12.6845 16.6359V14.797C12.6845 13.64 11.7479 12.7038 10.5904 12.7038H9.63466C8.47716 12.7038 7.54059 13.64 7.54059 14.797V16.6407C7.54059 17.7977 6.60402 18.734 5.44651 18.734H4.01044C2.85293 18.734 1.91637 17.7977 1.91637 16.6407V3.99933C1.91637 2.84226 2.85293 1.90604 4.01044 1.90604H5.44651C6.60402 1.90604 7.54059 2.84226 7.54059 3.99933V5.74694C7.54059 6.90401 8.47716 7.84022 9.63466 7.84022H10.5904C11.7479 7.84022 12.6845 6.90401 12.6845 5.74694V3.99933C12.6845 2.84226 13.6211 1.90604 14.7786 1.90604H16.2147V1.90124ZM16.2147 0H14.7786C12.574 0 10.7778 1.79562 10.7778 3.99933V5.74694C10.7778 5.85256 10.6913 5.93898 10.5856 5.93898H9.62986C9.52419 5.93898 9.43774 5.85256 9.43774 5.74694V3.99933C9.43774 1.79562 7.64145 0 5.43691 0H4.00083C1.79629 0 0 1.79562 0 3.99933V16.6407C0 18.8444 1.79629 20.64 4.00083 20.64H5.43691C7.64145 20.64 9.43774 18.8444 9.43774 16.6407V14.797C9.43774 14.6914 9.52419 14.605 9.62986 14.605H10.5856C10.6913 14.605 10.7778 14.6914 10.7778 14.797V16.6407C10.7778 18.8444 12.574 20.64 14.7786 20.64H16.2147C18.4192 20.64 20.2155 18.8444 20.2155 16.6407V3.99933C20.2155 1.79562 18.424 0 16.2147 0Z" fill="white"/>
<defs>
<linearGradient id="paint0_linear" x1="1.74032" y1="18.685" x2="18.4726" y2="1.94644" gradientUnits="userSpaceOnUse">
<stop stop-color="#F34F93"/>
<stop offset="1" stop-color="#8F4FF6"/>
</linearGradient>
</defs>
</svg>
