<svg xmlns="http://www.w3.org/2000/svg" viewBox="0 0 1569.2 1253.79"><defs><style>.cls-1{fill:#898989;}.cls-2{fill:#dbdbdb;}.cls-3{fill:#1e243a;}.cls-4{fill:#fff;}</style></defs><title>Fichier 2_1</title><g id="Calque_2" data-name="Calque 2"><g id="Color"><circle class="cls-1" cx="1431.27" cy="607.59" r="130.42" transform="translate(-10.42 1190.02) rotate(-45)"/><circle class="cls-2" cx="144.32" cy="607.59" r="114.57"/></g><g id="USER"><path class="cls-3" d="M1072.52,1213.69h-571A34.61,34.61,0,0,1,467,1179.13V36.06A34.6,34.6,0,0,1,501.54,1.5h571a34.59,34.59,0,0,1,34.55,34.56V1179.13A34.6,34.6,0,0,1,1072.52,1213.69ZM501.54,16.5A19.58,19.58,0,0,0,482,36.06V1179.13a19.59,19.59,0,0,0,19.56,19.56h571a19.58,19.58,0,0,0,19.55-19.56V36.06a19.57,19.57,0,0,0-19.55-19.56Z"/><path class="cls-3" d="M1101.17,175h-626a7.5,7.5,0,0,1,0-15h626a7.5,7.5,0,0,1,0,15Z"/><path class="cls-3" d="M1101.17,1057h-626a7.5,7.5,0,0,1,0-15h626a7.5,7.5,0,0,1,0,15Z"/><path class="cls-3" d="M845.17,97h-112a7.5,7.5,0,0,1,0-15h112a7.5,7.5,0,0,1,0,15Z"/><path class="cls-3" d="M787.75,1171.73a44.47,44.47,0,1,1,44.47-44.47A44.52,44.52,0,0,1,787.75,1171.73Zm0-73.94a29.47,29.47,0,1,0,29.47,29.47A29.5,29.5,0,0,0,787.75,1097.79Z"/><path class="cls-3" d="M787.29,523.76c-76.2,0-138.19-62-138.19-138.19s62-138.2,138.19-138.2,138.2,62,138.2,138.2S863.49,523.76,787.29,523.76Zm0-261.39a123.2,123.2,0,1,0,123.2,123.2A123.33,123.33,0,0,0,787.29,262.37Z"/><path class="cls-3" d="M707.5,490.74a7.58,7.58,0,0,1-2.42-.4,7.5,7.5,0,0,1-4.68-9.52A91.79,91.79,0,0,1,873.92,480a7.5,7.5,0,0,1-14.16,5,76.79,76.79,0,0,0-145.16.65A7.51,7.51,0,0,1,707.5,490.74Z"/><path class="cls-3" d="M787.29,433.6a56.31,56.31,0,1,1,56.31-56.3A56.37,56.37,0,0,1,787.29,433.6Zm0-97.61A41.31,41.31,0,1,0,828.6,377.3,41.35,41.35,0,0,0,787.29,336Z"/><path class="cls-3" d="M1018.17,607h-460a7.5,7.5,0,1,1,0-15h460a7.5,7.5,0,1,1,0,15Z"/><path class="cls-3" d="M1018.17,690h-460a7.5,7.5,0,1,1,0-15h460a7.5,7.5,0,1,1,0,15Z"/><path class="cls-3" d="M1018.17,772h-460a7.5,7.5,0,1,1,0-15h460a7.5,7.5,0,1,1,0,15Z"/><path class="cls-3" d="M1018.17,853h-460a7.5,7.5,0,1,1,0-15h460a7.5,7.5,0,1,1,0,15Z"/><path class="cls-3" d="M1018.17,936h-460a7.5,7.5,0,1,1,0-15h460a7.5,7.5,0,1,1,0,15Z"/><path class="cls-4" d="M1419.05,659.58a7.54,7.54,0,0,1-5.31-2.19l-59-59a7.5,7.5,0,1,1,10.61-10.6l53.73,53.73,78.18-78.19a7.5,7.5,0,0,1,10.61,10.61l-83.49,83.49A7.54,7.54,0,0,1,1419.05,659.58Z"/><path class="cls-4" d="M1431.27,745.52c-76,0-137.92-61.88-137.92-137.93s61.87-137.92,137.92-137.92,137.93,61.87,137.93,137.92S1507.32,745.52,1431.27,745.52Zm0-260.85A122.93,122.93,0,1,0,1554.2,607.59,123.06,123.06,0,0,0,1431.27,484.67Z"/><path class="cls-3" d="M270.21,568.1a7.5,7.5,0,0,1-7-4.88,126.9,126.9,0,0,0-237.74,0,7.5,7.5,0,0,1-14-5.25,141.9,141.9,0,0,1,265.84,0,7.5,7.5,0,0,1-4.4,9.65A7.63,7.63,0,0,1,270.21,568.1Z"/><path class="cls-3" d="M144.32,749.44A141.92,141.92,0,0,1,11.4,657.22,7.5,7.5,0,0,1,25.45,652a126.9,126.9,0,0,0,237.74,0,7.5,7.5,0,1,1,14.05,5.25,141.92,141.92,0,0,1-132.92,92.22Z"/><path class="cls-3" d="M61.4,652.56a7.51,7.51,0,0,1-6.83-4.39,98.66,98.66,0,0,1,130.7-130.69A7.5,7.5,0,0,1,179,531.13,83.66,83.66,0,0,0,68.22,642a7.5,7.5,0,0,1-6.82,10.61Z"/><path class="cls-3" d="M144.1,705.78A98.15,98.15,0,0,1,103.37,697a7.5,7.5,0,0,1,6.22-13.65A83.65,83.65,0,0,0,220.41,572.5a7.5,7.5,0,0,1,13.65-6.23,98.56,98.56,0,0,1-90,139.51Z"/><path class="cls-3" d="M186.57,627.45a7.39,7.39,0,0,1-2.16-.32,7.5,7.5,0,0,1-5-9.34,36.62,36.62,0,0,0-45.63-45.63,7.5,7.5,0,1,1-4.31-14.37,51.62,51.62,0,0,1,64.31,64.31A7.5,7.5,0,0,1,186.57,627.45Z"/><path class="cls-3" d="M144.31,658.85a51.64,51.64,0,0,1-49.42-66.51,7.5,7.5,0,1,1,14.36,4.32,36.63,36.63,0,0,0,45.64,45.63,7.5,7.5,0,1,1,4.31,14.36A51.6,51.6,0,0,1,144.31,658.85Z"/><path class="cls-3" d="M27.13,1252.84h0a10,10,0,0,1-4.82-13.29h0a10,10,0,0,1,13.29-4.82h0A10,10,0,0,1,40.43,1248h0a10,10,0,0,1-9.07,5.77h0A10,10,0,0,1,27.13,1252.84Zm29.12-5a10,10,0,0,1,4.44-13.43h0a10,10,0,0,1,13.43,4.44h0a10,10,0,0,1-4.44,13.43h0a10.07,10.07,0,0,1-4.49,1.07h0A10,10,0,0,1,56.25,1247.79Zm-56-27.93a10,10,0,0,1,7.44-12h0a10,10,0,0,1,12,7.43h0a10,10,0,0,1-7.44,12h0a9.57,9.57,0,0,1-2.3.27h0A10,10,0,0,1,.27,1219.86Zm83.49,6.4A10,10,0,0,1,76,1214.45h0a10,10,0,0,1,11.8-7.78h0a10,10,0,0,1,7.79,11.81h0a10,10,0,0,1-9.79,8h0A10,10,0,0,1,83.76,1226.26Zm-72.63-33.87a10,10,0,0,1-1.64-14.05h0a10,10,0,0,1,14.05-1.63h0a10,10,0,0,1,1.63,14h0a10,10,0,0,1-7.84,3.79h0A10,10,0,0,1,11.13,1192.39Zm58.7-2.28A10,10,0,0,1,71.06,1176h0a10,10,0,0,1,14.09,1.23h0a10,10,0,0,1-1.23,14.08h0a9.91,9.91,0,0,1-6.42,2.35h0A10,10,0,0,1,69.83,1190.11Zm-32.06-20.29a10,10,0,0,1,10-10h0a10,10,0,0,1,10,10h0a10,10,0,0,1-10,10h0A10,10,0,0,1,37.77,1169.82Z"/><path class="cls-3" d="M315.79,960.72A10,10,0,0,1,311,947.43h0a10,10,0,0,1,13.29-4.83h0a10,10,0,0,1,4.83,13.29h0a10,10,0,0,1-9.07,5.77h0A10,10,0,0,1,315.79,960.72Zm29.11-5.06a10,10,0,0,1,4.44-13.42h0a10,10,0,0,1,13.43,4.44h0a10,10,0,0,1-4.44,13.42h0a9.88,9.88,0,0,1-4.49,1.07h0A10,10,0,0,1,344.9,955.66Zm-56-27.92a10,10,0,0,1,7.44-12h0a10,10,0,0,1,12,7.43h0a10,10,0,0,1-7.43,12h0a10.18,10.18,0,0,1-2.31.27h0A10,10,0,0,1,288.93,927.74Zm83.49,6.39a10,10,0,0,1-7.79-11.81h0a10,10,0,0,1,11.81-7.78h0a10,10,0,0,1,7.78,11.81h0a10,10,0,0,1-9.78,8h0A9.9,9.9,0,0,1,372.42,934.13Zm-72.64-33.87a10,10,0,0,1-1.63-14h0a10,10,0,0,1,14.05-1.64h0a10,10,0,0,1,1.63,14h0a10,10,0,0,1-7.85,3.8h0A10,10,0,0,1,299.78,900.26ZM358.49,898h0a10,10,0,0,1,1.23-14.09h0a10,10,0,0,1,14.08,1.23h0a10,10,0,0,1-1.22,14.09h0a10,10,0,0,1-6.43,2.34h0A10,10,0,0,1,358.49,898Zm-32.07-20.29a10,10,0,0,1,10-10h0a10,10,0,0,1,10,10h0a10,10,0,0,1-10,10h0A10,10,0,0,1,326.42,877.69Z"/><path class="cls-3" d="M79.57,93a10,10,0,0,1-4.83-13.3h0A10,10,0,0,1,88,74.9h0a10,10,0,0,1,4.83,13.3h0A10,10,0,0,1,83.8,94h0A10.12,10.12,0,0,1,79.57,93ZM108.69,88a10,10,0,0,1,4.44-13.43h0A10,10,0,0,1,126.55,79h0a10,10,0,0,1-4.43,13.43h0a10,10,0,0,1-4.48,1.07h0A10,10,0,0,1,108.69,88ZM52.71,60a10,10,0,0,1,7.44-12h0a10,10,0,0,1,12,7.43h0a10,10,0,0,1-7.44,12h0a10.08,10.08,0,0,1-2.3.26h0A10,10,0,0,1,52.71,60Zm83.49,6.4a10,10,0,0,1-7.78-11.81h0a10,10,0,0,1,11.8-7.79h0A10,10,0,0,1,148,58.65h0a10,10,0,0,1-9.79,8h0A10,10,0,0,1,136.2,66.44ZM63.56,32.57a10,10,0,0,1-1.63-14h0A10,10,0,0,1,76,16.89h0a10,10,0,0,1,1.63,14.05h0a10,10,0,0,1-7.84,3.79h0A10,10,0,0,1,63.56,32.57Zm58.71-2.28A10,10,0,0,1,123.5,16.2h0a10,10,0,0,1,14.09,1.22h0a10,10,0,0,1-1.23,14.09h0a9.91,9.91,0,0,1-6.42,2.35h0A10,10,0,0,1,122.27,30.29ZM90.21,10a10,10,0,0,1,10-10h0a10,10,0,0,1,10,10h0a10,10,0,0,1-10,10h0A10,10,0,0,1,90.21,10Z"/><path class="cls-3" d="M1242.32,378.72h0a10,10,0,0,1-4.83-13.29h0a10,10,0,0,1,13.3-4.83h0a10,10,0,0,1,4.83,13.29h0a10,10,0,0,1-9.07,5.77h0A10,10,0,0,1,1242.32,378.72Zm29.12-5.06a10,10,0,0,1,4.44-13.42h0a10,10,0,0,1,13.42,4.43h0a10,10,0,0,1-4.43,13.43h0a9.94,9.94,0,0,1-4.49,1.07h0A10,10,0,0,1,1271.44,373.66Zm-56-27.92a10,10,0,0,1,7.44-12h0a10,10,0,0,1,12,7.44h0a10,10,0,0,1-7.44,12h0a10.1,10.1,0,0,1-2.3.27h0A10,10,0,0,1,1215.46,345.74Zm83.49,6.39a10,10,0,0,1-7.78-11.8h0a10,10,0,0,1,11.8-7.79h0a10,10,0,0,1,7.79,11.81h0a10,10,0,0,1-9.79,8h0A10,10,0,0,1,1299,352.13Zm-72.64-33.87a10,10,0,0,1-1.63-14h0a10,10,0,0,1,14-1.63h0a10,10,0,0,1,1.63,14h0a10,10,0,0,1-7.85,3.8h0A10,10,0,0,1,1226.31,318.26ZM1285,316a10,10,0,0,1,1.23-14.08h0a10,10,0,0,1,14.09,1.22h0a10,10,0,0,1-1.23,14.09h0a10,10,0,0,1-6.42,2.34h0A10,10,0,0,1,1285,316ZM1253,295.69a10,10,0,0,1,10-10h0a10,10,0,0,1,10,10h0a10,10,0,0,1-10,10h0A10,10,0,0,1,1253,295.69Z"/><path class="cls-3" d="M1461.46,1183.22a10,10,0,0,1-4.82-13.29h0a10,10,0,0,1,13.29-4.83h0a10,10,0,0,1,4.83,13.29h0a10,10,0,0,1-9.07,5.77h0A10,10,0,0,1,1461.46,1183.22Zm29.12-5a10,10,0,0,1,4.44-13.43h0a10,10,0,0,1,13.42,4.44h0a10,10,0,0,1-4.43,13.42h0a9.94,9.94,0,0,1-4.49,1.07h0A10,10,0,0,1,1490.58,1178.17Zm-56-27.93a10,10,0,0,1,7.44-12h0a10,10,0,0,1,12,7.43h0a10,10,0,0,1-7.44,12h0a10.1,10.1,0,0,1-2.3.27h0A10,10,0,0,1,1434.6,1150.24Zm83.49,6.39a10,10,0,0,1-7.78-11.8h0a10,10,0,0,1,11.81-7.79h0a10,10,0,0,1,7.79,11.81h0a10,10,0,0,1-9.79,8h0A10,10,0,0,1,1518.09,1156.63Zm-72.63-33.86a10,10,0,0,1-1.64-14h0a10,10,0,0,1,14-1.63h0a10,10,0,0,1,1.63,14h0a10,10,0,0,1-7.84,3.8h0A10,10,0,0,1,1445.46,1122.77Zm58.7-2.29a10,10,0,0,1,1.23-14.09h0a10,10,0,0,1,14.09,1.23h0a10,10,0,0,1-1.23,14.09h0a10,10,0,0,1-6.43,2.34h0A10,10,0,0,1,1504.16,1120.48Zm-32.06-20.29a10,10,0,0,1,10-10h0a10,10,0,0,1,10,10h0a10,10,0,0,1-10,10h0A10,10,0,0,1,1472.1,1100.19Z"/><path class="cls-3" d="M84.67,949.49a7.5,7.5,0,0,1-7.5-7.5V891a7.5,7.5,0,0,1,15,0v51A7.5,7.5,0,0,1,84.67,949.49Z"/><path class="cls-3" d="M110.17,924h-51a7.5,7.5,0,1,1,0-15h51a7.5,7.5,0,1,1,0,15Z"/><path class="cls-3" d="M365.67,349.49a7.5,7.5,0,0,1-7.5-7.5V291a7.5,7.5,0,0,1,15,0v51A7.5,7.5,0,0,1,365.67,349.49Z"/><path class="cls-3" d="M391.17,324h-51a7.5,7.5,0,0,1,0-15h51a7.5,7.5,0,1,1,0,15Z"/><path class="cls-3" d="M1502.67,66.49a7.5,7.5,0,0,1-7.5-7.5V8a7.5,7.5,0,0,1,15,0V59A7.5,7.5,0,0,1,1502.67,66.49Z"/><path class="cls-3" d="M1528.17,41h-51a7.5,7.5,0,1,1,0-15h51a7.5,7.5,0,0,1,0,15Z"/><path class="cls-3" d="M1206.67,900.49a7.5,7.5,0,0,1-7.5-7.5V842a7.5,7.5,0,1,1,15,0v51A7.5,7.5,0,0,1,1206.67,900.49Z"/><path class="cls-3" d="M1232.17,875h-51a7.5,7.5,0,0,1,0-15h51a7.5,7.5,0,0,1,0,15Z"/></g></g></svg>