<svg xmlns="http://www.w3.org/2000/svg" viewBox="0 0 1548.77 1283.32"><defs><style>.cls-1{fill:#707070;}.cls-2{fill:#b7b7b7;}.cls-3{fill:#fcd118;}.cls-4{fill:#8e8e8e;}.cls-5{fill:#bcbcbc;}.cls-6{fill:#ccc;}.cls-7{fill:#1e243a;}</style></defs><title>Fichier 2</title><g id="Calque_2" data-name="Calque 2"><g id="Color"><rect class="cls-1" x="160.5" y="263" width="651" height="104" rx="16.28"/><rect class="cls-2" x="160.5" y="537" width="651" height="104" rx="16.28"/><path class="cls-3" d="M1443.79,1244a202.15,202.15,0,0,1-109.13,31.79C1383.59,1275.82,1432.5,1265.22,1443.79,1244Z"/><path class="cls-4" d="M1334.66,869.7c-112.14,0-203.06,90.91-203.06,203.06A202.9,202.9,0,0,0,1225.54,1244a20,20,0,0,1-2.43-9.53A111.35,111.35,0,0,1,1335,1122.94h0a83.71,83.71,0,1,1,83.57-83.71,83.36,83.36,0,0,1-83.57,83.71h0a111.41,111.41,0,0,1,111.22,111.56,20,20,0,0,1-2.43,9.53,202.9,202.9,0,0,0,93.93-171.27C1537.72,960.61,1446.81,869.7,1334.66,869.7Z"/><path class="cls-3" d="M1334.66,1275.82A202.14,202.14,0,0,1,1225.54,1244C1236.82,1265.22,1285.74,1275.82,1334.66,1275.82Z"/><path class="cls-5" d="M1334.56,7.5c-70.35,0-127.53,57-127.53,127.38A127.17,127.17,0,0,0,1292,255.12l0,2.41v48h-25v49h25v44h-25v26h25v44h-25v40h25v37.74L1331.58,591,1375,546.24V255.54c50-17.06,86.69-64.63,86.69-120.66A127.17,127.17,0,0,0,1334.56,7.5Zm.14,113.88a40.08,40.08,0,1,1,40.08-40.08A40.07,40.07,0,0,1,1334.7,121.38Z"/><path class="cls-6" d="M939.65,7.5H34.35C20.07,7.5,8,19.07,8,33.35V107.5H965V33.35C965,19.07,953.93,7.5,939.65,7.5ZM67.52,74.2a15.7,15.7,0,1,1,15.7-15.7A15.7,15.7,0,0,1,67.52,74.2Zm63.16,0a15.7,15.7,0,1,1,15.7-15.7A15.7,15.7,0,0,1,130.68,74.2Z"/></g><g id="SECURE"><path class="cls-7" d="M932.63,803.5H39.85A39.78,39.78,0,0,1,0,763.87V38.94C0,17.74,17.56.5,39.15.5H933.29c21.35,0,38.71,17,38.71,38V764.35A39.3,39.3,0,0,1,932.63,803.5ZM39.15,15.5C25.83,15.5,15,26,15,38.94V763.87A24.77,24.77,0,0,0,39.85,788.5H932.63A24.28,24.28,0,0,0,957,764.35V38.49c0-12.68-10.63-23-23.71-23Z"/><path class="cls-7" d="M855,113.5H14a7.5,7.5,0,0,1,0-15H855a7.5,7.5,0,0,1,0,15Z"/><path class="cls-7" d="M188.5,107a7.5,7.5,0,0,1-7.5-7.5v-84a7.5,7.5,0,0,1,15,0v84A7.5,7.5,0,0,1,188.5,107Z"/><path class="cls-7" d="M66.52,80.7a23.2,23.2,0,1,1,23.2-23.2A23.23,23.23,0,0,1,66.52,80.7Zm0-31.4a8.2,8.2,0,1,0,8.2,8.2A8.21,8.21,0,0,0,66.52,49.3Z"/><path class="cls-7" d="M129.68,80.7a23.2,23.2,0,1,1,23.2-23.2A23.23,23.23,0,0,1,129.68,80.7Zm0-31.4a8.2,8.2,0,1,0,8.2,8.2A8.21,8.21,0,0,0,129.68,49.3Z"/><path class="cls-7" d="M713,49.5H223a7.5,7.5,0,0,1,0-15H713a7.5,7.5,0,0,1,0,15Z"/><path class="cls-7" d="M486,80.5H223a7.5,7.5,0,0,1,0-15H486a7.5,7.5,0,0,1,0,15Z"/><path class="cls-7" d="M958,113.5H916a7.5,7.5,0,0,1,0-15h42a7.5,7.5,0,0,1,0,15Z"/><path class="cls-7" d="M795.22,374.5H176.78A23.81,23.81,0,0,1,153,350.72V279.28a23.81,23.81,0,0,1,23.78-23.78H795.22A23.81,23.81,0,0,1,819,279.28v71.44A23.81,23.81,0,0,1,795.22,374.5Zm-618.44-104a8.79,8.79,0,0,0-8.78,8.78v71.44a8.79,8.79,0,0,0,8.78,8.78H795.22a8.79,8.79,0,0,0,8.78-8.78V279.28a8.79,8.79,0,0,0-8.78-8.78Z"/><path class="cls-7" d="M795.22,648.5H176.78A23.81,23.81,0,0,1,153,624.72V553.28a23.81,23.81,0,0,1,23.78-23.78H795.22A23.81,23.81,0,0,1,819,553.28v71.44A23.81,23.81,0,0,1,795.22,648.5Zm-618.44-104a8.79,8.79,0,0,0-8.78,8.78v71.44a8.79,8.79,0,0,0,8.78,8.78H795.22a8.79,8.79,0,0,0,8.78-8.78V553.28a8.79,8.79,0,0,0-8.78-8.78Z"/><path class="cls-7" d="M172.05,371.25a7.5,7.5,0,0,1-5.31-12.8L266,259.2a7.5,7.5,0,0,1,10.61,10.6l-99.25,99.25A7.44,7.44,0,0,1,172.05,371.25Z"/><path class="cls-7" d="M261.26,371.25a7.5,7.5,0,0,1-5.31-12.8L355.2,259.2a7.5,7.5,0,0,1,10.61,10.6l-99.25,99.25A7.46,7.46,0,0,1,261.26,371.25Z"/><path class="cls-7" d="M350.46,371.25a7.5,7.5,0,0,1-5.3-12.8l99.25-99.25A7.5,7.5,0,1,1,455,269.8l-99.25,99.25A7.48,7.48,0,0,1,350.46,371.25Z"/><path class="cls-7" d="M439.67,371.25a7.5,7.5,0,0,1-5.3-12.8l99.25-99.25a7.5,7.5,0,0,1,10.61,10.6L445,369.05A7.48,7.48,0,0,1,439.67,371.25Z"/><path class="cls-7" d="M170.94,646.25a7.5,7.5,0,0,1-5.31-12.8l99.25-99.25a7.5,7.5,0,1,1,10.61,10.6l-99.25,99.25A7.44,7.44,0,0,1,170.94,646.25Z"/><path class="cls-7" d="M260.15,646.25a7.5,7.5,0,0,1-5.31-12.8l99.25-99.25a7.5,7.5,0,1,1,10.61,10.6l-99.25,99.25A7.46,7.46,0,0,1,260.15,646.25Z"/><path class="cls-7" d="M66.5,271a7.5,7.5,0,0,1-7.5-7.5V171a7.5,7.5,0,0,1,7.5-7.5H291a7.5,7.5,0,0,1,0,15H74v85A7.5,7.5,0,0,1,66.5,271Z"/><path class="cls-7" d="M482,178.5H453a7.5,7.5,0,0,1,0-15h29a7.5,7.5,0,0,1,0,15Z"/><path class="cls-7" d="M913.5,745.5H723a7.5,7.5,0,0,1,0-15H906v-108a7.5,7.5,0,0,1,15,0V738A7.5,7.5,0,0,1,913.5,745.5Z"/><path class="cls-7" d="M913.5,583a7.5,7.5,0,0,1-7.5-7.5v-27a7.5,7.5,0,0,1,15,0v27A7.5,7.5,0,0,1,913.5,583Z"/><path class="cls-7" d="M1334.66,1283.32c-116.1,0-210.56-94.46-210.56-210.56s94.46-210.56,210.56-210.56,210.56,94.46,210.56,210.56S1450.77,1283.32,1334.66,1283.32Zm0-406.12c-107.83,0-195.56,87.73-195.56,195.56s87.73,195.56,195.56,195.56,195.56-87.73,195.56-195.56S1442.49,877.2,1334.66,877.2Z"/><path class="cls-7" d="M1334.66,1130.43a91.2,91.2,0,1,1,91.2-91.2A91.3,91.3,0,0,1,1334.66,1130.43Zm0-167.4a76.2,76.2,0,1,0,76.2,76.2A76.3,76.3,0,0,0,1334.66,963Z"/><path class="cls-7" d="M1446.22,1242a7.5,7.5,0,0,1-7.5-7.5,104.06,104.06,0,1,0-208.11,0,7.5,7.5,0,0,1-15,0,119.06,119.06,0,1,1,238.11,0A7.5,7.5,0,0,1,1446.22,1242Z"/><path class="cls-7" d="M1373.43,232.46a7.5,7.5,0,0,1-3-14.39,90.49,90.49,0,0,0,54.77-83.19,7.5,7.5,0,0,1,15,0,105.48,105.48,0,0,1-63.84,97A7.58,7.58,0,0,1,1373.43,232.46Z"/><path class="cls-7" d="M1332.08,598.5h-.17a7.54,7.54,0,0,1-5.45-2.53l-39.58-44.76a7.51,7.51,0,0,1-1.88-5V515.5h-17.5a7.5,7.5,0,0,1-7.5-7.5V468a7.5,7.5,0,0,1,7.5-7.5H1285v-29h-17.5a7.5,7.5,0,0,1-7.5-7.5V398a7.5,7.5,0,0,1,7.5-7.5H1285v-29h-17.5a7.5,7.5,0,0,1-7.5-7.5V305a7.5,7.5,0,0,1,7.5-7.5H1285V260.44a135.39,135.39,0,0,1-85.34-125.56c0-74.37,60.54-134.88,135-134.88s134.85,60.51,134.85,134.88A134.92,134.92,0,0,1,1383,260.79V546.24a7.49,7.49,0,0,1-2.12,5.22l-43.42,44.76A7.47,7.47,0,0,1,1332.08,598.5ZM1300,543.4,1332.34,580,1368,543.2V255.54a7.49,7.49,0,0,1,5.08-7.1A119.9,119.9,0,0,0,1334.62,15c-66.15,0-120,53.78-120,119.88a120,120,0,0,0,80,113.16,7.5,7.5,0,0,1,5,6.2l.29,2.41a8.49,8.49,0,0,1,0,.88V305a7.5,7.5,0,0,1-7.5,7.5H1275v34h17.5a7.5,7.5,0,0,1,7.5,7.5v44a7.5,7.5,0,0,1-7.5,7.5H1275v11h17.5a7.5,7.5,0,0,1,7.5,7.5v44a7.5,7.5,0,0,1-7.5,7.5H1275v25h17.5a7.5,7.5,0,0,1,7.5,7.5Zm75.5,3.1h0Z"/><path class="cls-7" d="M1332.5,296a7.5,7.5,0,0,1-7.5-7.5v-14a7.5,7.5,0,0,1,15,0v14A7.5,7.5,0,0,1,1332.5,296Z"/><path class="cls-7" d="M1332.5,516a7.5,7.5,0,0,1-7.5-7.5v-100a7.5,7.5,0,0,1,15,0v100A7.5,7.5,0,0,1,1332.5,516Z"/><path class="cls-7" d="M1332.5,592a7.5,7.5,0,0,1-7.5-7.5v-37a7.5,7.5,0,0,1,15,0v37A7.5,7.5,0,0,1,1332.5,592Z"/><path class="cls-7" d="M1332.5,370a7.5,7.5,0,0,1-7.5-7.5v-26a7.5,7.5,0,0,1,15,0v26A7.5,7.5,0,0,1,1332.5,370Z"/><path class="cls-7" d="M1334.7,128.88a47.58,47.58,0,1,1,47.58-47.58A47.63,47.63,0,0,1,1334.7,128.88Zm0-80.15a32.58,32.58,0,1,0,32.58,32.57A32.61,32.61,0,0,0,1334.7,48.73Z"/><path class="cls-7" d="M489.5,878a7.5,7.5,0,0,1-7.5-7.5v-13a7.5,7.5,0,0,1,15,0v13A7.5,7.5,0,0,1,489.5,878Z"/><path class="cls-7" d="M489.5,1076a7.5,7.5,0,0,1-7.5-7.5v-24a7.5,7.5,0,0,1,15,0v24A7.5,7.5,0,0,1,489.5,1076Zm0-66a7.5,7.5,0,0,1-7.5-7.5v-24a7.5,7.5,0,0,1,15,0v24A7.5,7.5,0,0,1,489.5,1010Zm0-66a7.5,7.5,0,0,1-7.5-7.5v-24a7.5,7.5,0,0,1,15,0v24A7.5,7.5,0,0,1,489.5,944Z"/><path class="cls-7" d="M502,1130.5H489.5a7.5,7.5,0,0,1-7.5-7.5v-12.5a7.5,7.5,0,0,1,15,0v5h5a7.5,7.5,0,0,1,0,15Z"/><path class="cls-7" d="M1038,1130.5h-24a7.5,7.5,0,0,1,0-15h24a7.5,7.5,0,0,1,0,15Zm-67,0H947a7.5,7.5,0,0,1,0-15h24a7.5,7.5,0,0,1,0,15Zm-67,0H880a7.5,7.5,0,0,1,0-15h24a7.5,7.5,0,0,1,0,15Zm-67,0H813a7.5,7.5,0,0,1,0-15h24a7.5,7.5,0,0,1,0,15Zm-67,0H746a7.5,7.5,0,0,1,0-15h24a7.5,7.5,0,0,1,0,15Zm-67,0H679a7.5,7.5,0,0,1,0-15h24a7.5,7.5,0,0,1,0,15Zm-67,0H612a7.5,7.5,0,0,1,0-15h24a7.5,7.5,0,0,1,0,15Zm-67,0H545a7.5,7.5,0,0,1,0-15h24a7.5,7.5,0,0,1,0,15Z"/><path class="cls-7" d="M1097,1130.5h-13a7.5,7.5,0,0,1,0-15h13a7.5,7.5,0,0,1,0,15Z"/><path class="cls-7" d="M1334.5,673a7.5,7.5,0,0,1-7.5-7.5v-13a7.5,7.5,0,0,1,15,0v13A7.5,7.5,0,0,1,1334.5,673Z"/><path class="cls-7" d="M1334.5,751a7.5,7.5,0,0,1-7.5-7.5v-28a7.5,7.5,0,0,1,15,0v28A7.5,7.5,0,0,1,1334.5,751Z"/><path class="cls-7" d="M1334.5,815a7.5,7.5,0,0,1-7.5-7.5v-12a7.5,7.5,0,0,1,15,0v12A7.5,7.5,0,0,1,1334.5,815Z"/><path class="cls-7" d="M975.87,1021.73a10,10,0,0,1-4.83-13.29h0a10,10,0,0,1,13.29-4.83h0a10,10,0,0,1,4.83,13.29h0a10,10,0,0,1-9.07,5.77h0A10,10,0,0,1,975.87,1021.73Zm29.11-5.06a10,10,0,0,1,4.44-13.42h0a10,10,0,0,1,13.43,4.44h0a10,10,0,0,1-4.44,13.42h0a9.91,9.91,0,0,1-4.49,1.07h0A10,10,0,0,1,1005,1016.67Zm-56-27.92a10,10,0,0,1,7.43-12h0a10,10,0,0,1,12,7.44h0a10,10,0,0,1-7.43,12h0a10.18,10.18,0,0,1-2.31.27h0A10,10,0,0,1,949,988.75Zm83.48,6.39a10,10,0,0,1-7.78-11.8h0a10,10,0,0,1,11.81-7.79h0a10,10,0,0,1,7.78,11.81h0a10,10,0,0,1-9.78,8h0A10.07,10.07,0,0,1,1032.49,995.14Zm-72.63-33.86a10,10,0,0,1-1.63-14h0a10,10,0,0,1,14-1.64h0a10,10,0,0,1,1.63,14h0a10,10,0,0,1-7.85,3.8h0A10,10,0,0,1,959.86,961.28Zm58.71-2.29a10,10,0,0,1,1.22-14.09h0a10,10,0,0,1,14.09,1.23h0a10,10,0,0,1-1.22,14.09h0a10,10,0,0,1-6.43,2.34h0A10,10,0,0,1,1018.57,959ZM986.5,938.7a10,10,0,0,1,10-10h0a10,10,0,0,1,10,10h0a10,10,0,0,1-10,10h0A10,10,0,0,1,986.5,938.7Z"/><path class="cls-7" d="M1480.13,666.73a10,10,0,0,1-4.83-13.29h0a10,10,0,0,1,13.3-4.83h0a10,10,0,0,1,4.83,13.29h0a10,10,0,0,1-9.07,5.77h0A10,10,0,0,1,1480.13,666.73Zm29.12-5.06a10,10,0,0,1,4.44-13.42h0a10,10,0,0,1,13.43,4.43h0a10,10,0,0,1-4.44,13.43h0a9.94,9.94,0,0,1-4.49,1.07h0A10,10,0,0,1,1509.25,661.67Zm-56-27.92a10,10,0,0,1,7.44-12h0a10,10,0,0,1,12,7.43h0a10,10,0,0,1-7.44,12h0a10.1,10.1,0,0,1-2.3.27h0A10,10,0,0,1,1453.27,633.75Zm83.49,6.39a10,10,0,0,1-7.78-11.81h0a10,10,0,0,1,11.8-7.78h0a10,10,0,0,1,7.79,11.81h0a10,10,0,0,1-9.79,8h0A10,10,0,0,1,1536.76,640.14Zm-72.64-33.87a10,10,0,0,1-1.63-14h0a10,10,0,0,1,14-1.64h0a10,10,0,0,1,1.63,14h0a10,10,0,0,1-7.84,3.8h0A10,10,0,0,1,1464.12,606.27Zm58.71-2.28a10,10,0,0,1,1.23-14.09h0a10,10,0,0,1,14.09,1.23h0a10,10,0,0,1-1.23,14.09h0a10,10,0,0,1-6.42,2.34h0A10,10,0,0,1,1522.83,604Zm-32.06-20.29a10,10,0,0,1,10-10h0a10,10,0,0,1,10,10h0a10,10,0,0,1-10,10h0A10,10,0,0,1,1490.77,583.7Z"/><path class="cls-7" d="M290.25,957.73h0a10,10,0,0,1-4.83-13.29h0a10,10,0,0,1,13.29-4.83h0a10,10,0,0,1,4.83,13.29h0a10,10,0,0,1-9.07,5.77h0A10,10,0,0,1,290.25,957.73Zm29.11-5.06a10,10,0,0,1,4.44-13.42h0a10,10,0,0,1,13.43,4.44h0a10,10,0,0,1-4.44,13.42h0a9.88,9.88,0,0,1-4.49,1.07h0A10,10,0,0,1,319.36,952.67Zm-56-27.92h0a10,10,0,0,1,7.43-12h0a10,10,0,0,1,12,7.44h0a10,10,0,0,1-7.43,12h0a10.18,10.18,0,0,1-2.31.27h0A10,10,0,0,1,263.39,924.75Zm83.48,6.39a10,10,0,0,1-7.78-11.8h0a10,10,0,0,1,11.81-7.78h0a10,10,0,0,1,7.78,11.81h0a10,10,0,0,1-9.78,8h0A10.07,10.07,0,0,1,346.87,931.14Zm-72.63-33.86a10,10,0,0,1-1.63-14h0a10,10,0,0,1,14.05-1.63h0a10,10,0,0,1,1.63,14h0a10,10,0,0,1-7.85,3.8h0A10,10,0,0,1,274.24,897.28ZM333,895a10,10,0,0,1,1.22-14.09h0a10,10,0,0,1,14.09,1.23h0A10,10,0,0,1,347,896.22h0a10,10,0,0,1-6.43,2.34h0A10,10,0,0,1,333,895ZM300.88,874.7a10,10,0,0,1,10-10h0a10,10,0,0,1,10,10h0a10,10,0,0,1-10,10h0A10,10,0,0,1,300.88,874.7Z"/><path class="cls-7" d="M1053.46,135.73a10,10,0,0,1-4.82-13.29h0a10,10,0,0,1,13.29-4.83h0a10,10,0,0,1,4.83,13.29h0a10,10,0,0,1-9.07,5.77h0A10,10,0,0,1,1053.46,135.73Zm29.12-5.06a10,10,0,0,1,4.44-13.42h0a10,10,0,0,1,13.43,4.44h0a10,10,0,0,1-4.44,13.42h0a9.91,9.91,0,0,1-4.49,1.07h0A10,10,0,0,1,1082.58,130.67Zm-56-27.92a10,10,0,0,1,7.43-12h0a10,10,0,0,1,12,7.43h0a10,10,0,0,1-7.44,12h0a10.1,10.1,0,0,1-2.3.27h0A10,10,0,0,1,1026.61,102.75Zm83.48,6.39a10,10,0,0,1-7.78-11.8h0a10,10,0,0,1,11.8-7.79h0a10,10,0,0,1,7.79,11.81h0a10,10,0,0,1-9.79,8h0A10,10,0,0,1,1110.09,109.14Zm-72.63-33.87a10,10,0,0,1-1.64-14h0a10,10,0,0,1,14-1.63h0a10,10,0,0,1,1.63,14h0a10,10,0,0,1-7.84,3.8h0A9.91,9.91,0,0,1,1037.46,75.27Zm58.7-2.28a10,10,0,0,1,1.23-14.09h0a10,10,0,0,1,14.09,1.23h0a10,10,0,0,1-1.23,14.09h0a10,10,0,0,1-6.42,2.34h0A10,10,0,0,1,1096.16,73ZM1064.1,52.7a10,10,0,0,1,10-10h0a10,10,0,0,1,10,10h0a10,10,0,0,1-10,10h0A10,10,0,0,1,1064.1,52.7Z"/><path class="cls-7" d="M1140.5,657a7.5,7.5,0,0,1-7.5-7.5v-51a7.5,7.5,0,0,1,15,0v51A7.5,7.5,0,0,1,1140.5,657Z"/><path class="cls-7" d="M1166,631.5h-51a7.5,7.5,0,0,1,0-15h51a7.5,7.5,0,0,1,0,15Z"/><path class="cls-7" d="M640.5,972a7.5,7.5,0,0,1-7.5-7.5v-51a7.5,7.5,0,0,1,15,0v51A7.5,7.5,0,0,1,640.5,972Z"/><path class="cls-7" d="M666,946.5H615a7.5,7.5,0,0,1,0-15h51a7.5,7.5,0,0,1,0,15Z"/><path class="cls-7" d="M39.5,1267a7.5,7.5,0,0,1-7.5-7.5v-51a7.5,7.5,0,0,1,15,0v51A7.5,7.5,0,0,1,39.5,1267Z"/><path class="cls-7" d="M65,1241.5H14a7.5,7.5,0,0,1,0-15H65a7.5,7.5,0,0,1,0,15Z"/><path class="cls-7" d="M913.5,1248a7.5,7.5,0,0,1-7.5-7.5v-51a7.5,7.5,0,0,1,15,0v51A7.5,7.5,0,0,1,913.5,1248Z"/><path class="cls-7" d="M939,1222.5H888a7.5,7.5,0,0,1,0-15h51a7.5,7.5,0,0,1,0,15Z"/></g></g></svg>