<svg xmlns="http://www.w3.org/2000/svg" xmlns:xlink="http://www.w3.org/1999/xlink" viewBox="0 0 3710 3710"><defs><style>.a{mask:url(#a);filter:url(#y);}.b{mix-blend-mode:multiply;fill:url(#c);}.c{fill:url(#d);}.d{fill:#afc4fb;}.e{fill:url(#e);}.f{fill:#80a2fa;}.g,.i,.m,.n{fill:#fff;}.g{opacity:0.5;}.h{fill:url(#f);}.i{opacity:0.78;}.j{fill:url(#g);}.k{fill:url(#h);}.l,.n{opacity:0.6;}.o{fill:url(#i);}.p{fill:url(#j);}.q{fill:url(#k);}.r{fill:url(#l);}.s{fill:url(#m);}.t{fill:url(#n);}.u{fill:#6a82f3;}.v{fill:url(#o);}.w{fill:url(#p);}.x{fill:url(#q);}.y{fill:url(#r);}.z{fill:url(#s);}.aa{fill:url(#t);}.ab{fill:url(#u);}.ac{fill:url(#v);}.ad{fill:url(#w);}.ae{mask:url(#x);}.af{fill:url(#z);}.ag{fill:url(#aa);}.ah{fill:url(#ab);}.ai{fill:url(#ac);}.aj{fill:url(#ad);}.ak{fill:url(#ae);}.al{fill:url(#af);}.am{fill:url(#ag);}.an{fill:url(#ah);}.ao{fill:url(#ai);}.ap{fill:url(#aj);}.aq{fill:url(#ak);}.ar{fill:url(#al);}.as{fill:url(#am);}.at{fill:url(#an);}.au{fill:url(#ao);}.av{fill:url(#ap);}.aw{fill:url(#aq);}.ax{fill:url(#ar);}.ay{filter:url(#b);}</style><filter id="b" x="732.37" y="-10047" width="108.84" height="32766" filterUnits="userSpaceOnUse" color-interpolation-filters="sRGB"><feFlood flood-color="#fff" result="bg"/><feBlend in="SourceGraphic" in2="bg"/></filter><mask id="a" x="732.37" y="-10047" width="108.84" height="32766" maskUnits="userSpaceOnUse"><g class="ay"/></mask><linearGradient id="c" x1="732.37" y1="3044.61" x2="841.22" y2="3044.61" gradientUnits="userSpaceOnUse"><stop offset="0" stop-color="#fff"/><stop offset="1"/></linearGradient><linearGradient id="d" x1="3231.94" y1="3481.47" x2="718.44" y2="617.99" gradientUnits="userSpaceOnUse"><stop offset="0" stop-color="#d1dbff"/><stop offset="1" stop-color="#e3eafc"/></linearGradient><linearGradient id="e" x1="2481.92" y1="616.93" x2="2986.78" y2="616.93" gradientTransform="translate(78.09 -171.12) rotate(9.98)" xlink:href="#d"/><linearGradient id="f" x1="1547.03" y1="3065.04" x2="1410.59" y2="-973.52" gradientUnits="userSpaceOnUse"><stop offset="0" stop-color="#07004c"/><stop offset="1" stop-color="#100080"/></linearGradient><linearGradient id="g" x1="1162.99" y1="1253.7" x2="1538.69" y2="229.08" gradientTransform="translate(1989.14 -300.17) rotate(74)" gradientUnits="userSpaceOnUse"><stop offset="0" stop-color="#f77c7b"/><stop offset="1" stop-color="#f5574f"/></linearGradient><linearGradient id="h" x1="1251.84" y1="1286.28" x2="1627.53" y2="261.65" gradientTransform="matrix(1, 0, 0, 1, 0, 0)" xlink:href="#g"/><linearGradient id="i" x1="1289.74" y1="1689.07" x2="749.56" y2="2611.03" gradientUnits="userSpaceOnUse"><stop offset="0" stop-color="#d12f2e"/><stop offset="1" stop-color="#db20d6"/></linearGradient><linearGradient id="j" x1="1388.63" y1="1747.01" x2="848.45" y2="2668.97" xlink:href="#i"/><linearGradient id="k" x1="1471.78" y1="1974.28" x2="761.02" y2="2965.29" xlink:href="#i"/><linearGradient id="l" x1="1571.76" y1="960.84" x2="1031.58" y2="1882.8" xlink:href="#i"/><linearGradient id="m" x1="1760.82" y1="248.27" x2="1078.48" y2="1145.86" xlink:href="#f"/><linearGradient id="n" x1="1835.66" y1="305.17" x2="1153.33" y2="1202.76" xlink:href="#f"/><linearGradient id="o" x1="2041.22" y1="2293.04" x2="3734" y2="1130.47" gradientUnits="userSpaceOnUse"><stop offset="0" stop-color="#3a3aff"/><stop offset="1" stop-color="#2d2cde"/></linearGradient><linearGradient id="p" x1="699.54" y1="3645.64" x2="761.01" y2="3193.09" xlink:href="#o"/><linearGradient id="q" x1="651.74" y1="2333.82" x2="650.04" y2="2610.47" xlink:href="#o"/><linearGradient id="r" x1="651.46" y1="2333.82" x2="649.75" y2="2610.47" xlink:href="#o"/><linearGradient id="s" x1="911.56" y1="2335.43" x2="909.85" y2="2612.08" xlink:href="#o"/><linearGradient id="t" x1="911.25" y1="2335.42" x2="909.54" y2="2612.07" xlink:href="#o"/><linearGradient id="u" x1="797.89" y1="2554.46" x2="771.97" y2="2744.5" xlink:href="#o"/><linearGradient id="v" x1="805.7" y1="2702.46" x2="710.68" y2="3589.32" xlink:href="#o"/><linearGradient id="w" x1="763.99" y1="2366.12" x2="775.95" y2="2700.83" xlink:href="#f"/><filter id="y" x="732.37" y="2997.83" width="108.84" height="93.55" filterUnits="userSpaceOnUse" color-interpolation-filters="sRGB"><feFlood flood-color="#fff" result="bg"/><feBlend in="SourceGraphic" in2="bg"/></filter><mask id="x" x="732.37" y="2997.83" width="108.84" height="93.55" maskUnits="userSpaceOnUse"><g class="a"><path class="b" d="M819.4,3091.38H756.08A16.35,16.35,0,0,1,739.81,3077l-7.32-60.93a16.34,16.34,0,0,1,16.27-18.25h76.07a16.34,16.34,0,0,1,16.32,17.75l-5.43,60.93A16.35,16.35,0,0,1,819.4,3091.38Z"/></g></mask><linearGradient id="z" x1="732.37" y1="3044.61" x2="841.22" y2="3044.61" xlink:href="#o"/><linearGradient id="aa" x1="2578.87" y1="2058.72" x2="3798.3" y2="583.11" gradientTransform="matrix(1, 0, 0, 1, 0, 0)" xlink:href="#g"/><linearGradient id="ab" x1="-1410.78" y1="1661.57" x2="-1327.17" y2="1900.45" gradientTransform="translate(3269.47)" gradientUnits="userSpaceOnUse"><stop offset="0" stop-color="#f8aaab"/><stop offset="1" stop-color="#f77c7b"/></linearGradient><linearGradient id="ac" x1="-1346.55" y1="1814.19" x2="-1409.53" y2="1687.15" xlink:href="#ab"/><linearGradient id="ad" x1="6088.01" y1="3111.76" x2="5554.54" y2="3692.03" gradientTransform="matrix(-1, 0, 0, 1, 8244.75, 0)" xlink:href="#f"/><linearGradient id="ae" x1="5914.85" y1="3154.85" x2="5962.24" y2="3154.85" gradientTransform="matrix(-1, 0, 0, 1, 8244.75, 0)" xlink:href="#ab"/><linearGradient id="af" x1="4295.37" y1="584.81" x2="1579.84" y2="3638.5" xlink:href="#f"/><linearGradient id="ag" x1="5968.33" y1="3001.73" x2="5434.86" y2="3582" gradientTransform="matrix(-1, 0, 0, 1, 8244.75, 0)" xlink:href="#f"/><linearGradient id="ah" x1="5744.07" y1="3152.42" x2="5784.99" y2="3152.42" gradientTransform="matrix(-1, 0, 0, 1, 8244.75, 0)" xlink:href="#ab"/><linearGradient id="ai" x1="4335.75" y1="620.71" x2="1620.21" y2="3674.4" xlink:href="#f"/><linearGradient id="aj" x1="2786.88" y1="805.28" x2="2336.04" y2="2178.28" gradientTransform="matrix(1, 0, 0, 1, 0, 0)" xlink:href="#g"/><linearGradient id="ak" x1="-1339.32" y1="1636.56" x2="-1255.71" y2="1875.44" xlink:href="#ab"/><linearGradient id="al" x1="2990.73" y1="872.22" x2="2539.9" y2="2245.22" gradientTransform="matrix(1, 0, 0, 1, 0, 0)" xlink:href="#g"/><linearGradient id="am" x1="5815.35" y1="1934.01" x2="5936.48" y2="1934.01" gradientTransform="matrix(-1, 0, 0, 1, 8244.75, 0)" xlink:href="#ab"/><linearGradient id="an" x1="-1145.59" y1="2543.26" x2="-1190.85" y2="2393.98" gradientTransform="matrix(-0.75, -0.67, -0.67, 0.75, 3118.42, -803.17)" xlink:href="#ab"/><linearGradient id="ao" x1="-1186.42" y1="2283.15" x2="-1148.56" y2="2499.11" gradientTransform="matrix(-0.75, -0.67, -0.67, 0.75, 3118.42, -803.17)" xlink:href="#f"/><linearGradient id="ap" x1="-1191.86" y1="2542.57" x2="-1232.58" y2="2408.25" gradientTransform="matrix(-0.75, -0.67, -0.67, 0.75, 3118.42, -803.17)" xlink:href="#ab"/><linearGradient id="aq" x1="-384.75" y1="2824.6" x2="-483.22" y2="2117.39" gradientTransform="matrix(-1, 0, 0, 1, 2146.07, 0)" xlink:href="#ab"/><linearGradient id="ar" x1="-396.47" y1="2756.57" x2="-475.05" y2="2192.22" gradientTransform="matrix(-1, 0, 0, 1, 2146.07, 0)" xlink:href="#ab"/></defs><path class="c" d="M2887.11,2848.7c-506.22,534.21-1283.8,376.17-1398.73,350.78-144.8-32-489.31-108.12-746.39-408.67C348.4,2330.68,388.14,1611.55,692.11,1126.73c88.45-141.08,386.1-560.31,945.07-651.46,32.66-5.33,616.35-90.91,1086,303.14,63.33,53.13,165.53,149.34,255.11,289.44C3256.15,1502.46,3387.66,2320.48,2887.11,2848.7Z"/><path class="d" d="M2318.5,1431.14c-31.31,113.52-84,261.61-138.18,387.68l-19.49-3.42c68.06-151.67,143.25-362.55,176.45-615C2370.77,945.73,2362.85,628,2504,501.78c117.51-105.09,528.27-51.62,662.76-30.73,16.81,2.61,23,23.59,10.27,34.87-62.75,55.61-196.68,186.4-229.05,315.49-42.67,170.15-200.4,281.85-343.38,314.74S2382.43,1199.38,2318.5,1431.14Z"/><path class="e" d="M2980.5,548.09a652.4,652.4,0,0,0-248,69.82,510.09,510.09,0,0,0-107.59,73.29c-32.38,29.19-61.16,62.77-83.65,100.33l-8.36,14.11c-2.75,4.72-5.06,9.69-7.61,14.52s-5.06,9.76-7.31,14.63l-6.77,14.6q-13.59,29.16-26.81,58.51-26.4,58.7-50.94,118.22c-32.76,79.34-63.08,159.66-88.45,241.82a3.73,3.73,0,0,0,7.07,2.4l.05-.11q22.2-60,46.73-119.43,24.26-59.4,49.87-118.22l25.79-58.73L2501,915.4q13.2-29.22,26.9-58.23l6.79-14.53c2.26-4.85,4.74-9.39,7.1-14.09s4.6-9.43,7.22-14l7.94-13.57c21.29-36.18,48.93-68.3,79.61-97,15.66-14,31.85-27.54,49.27-39.44l6.44-4.58,6.62-4.33c4.42-2.87,8.77-5.85,13.26-8.63,9.06-5.43,18.05-11,27.4-15.93,37-20.48,76.55-36.44,117-49.42a680.62,680.62,0,0,1,124.37-27.63l.19,0a3,3,0,0,0-.58-6Z"/><path class="f" d="M2547.8,1495.1c-21.92,137.11,14.48,191,35.44,241.2,3.72,8.92,9.05,21.5,14.9,36.57l-19.32,9.08a468.71,468.71,0,0,0-20.48-63.69c-57-139.18-135.41-385.61-83.42-579.51S2649.33,871.85,2870.4,922c184.22,41.79,293.25,55.32,347.2,42,13.36-3.3,26.07,7.56,25.27,21.29-4.25,73.12-30.78,248.94-185.35,310.09C2860.35,1373.39,2569.73,1358,2547.8,1495.1Z"/><path class="g" d="M2894.18,1114.91a427.79,427.79,0,0,0-46.54-12.24c-15.68-3.3-31.53-6-47.52-7.77-31.95-3.65-64.5-4.28-96.86,0a274.54,274.54,0,0,0-48,10.64,204,204,0,0,0-45.08,21c-3.46,2.36-7.07,4.49-10.38,7.07s-6.74,5.09-9.83,7.78l-18,16.48-16.88,17.74-15.5,19a278.44,278.44,0,0,0-44.11,87.32c-9.6,31.31-13.28,63.93-13.78,96.16l-.19,12.1c-.11,4,.31,8,.44,12.07.45,8,.65,16.1,1.32,24.1l2.57,23.94c.69,8,2.42,15.85,3.65,23.76,5.07,31.63,12.9,62.63,21.48,93.31a3.22,3.22,0,0,0,6.26-1.5l0-.11c-6.35-31-13-62-16.39-93.34-2.21-15.61-3.07-31.32-4.37-47-.42-7.83-.38-15.67-.6-23.5,0-3.91-.31-7.83-.08-11.73l.53-11.71c1.29-31.18,6.11-62.1,15.4-91.52a271.15,271.15,0,0,1,42.38-81.48l14.67-17.83,16.05-16.68,17.23-15.57c2.89-2.51,5.87-4.68,8.79-7.05s6.19-4.24,9.26-6.39A186.23,186.23,0,0,1,2661,1122.6a259.46,259.46,0,0,1,44.7-10.9c30.55-4.8,62-5.31,93.23-3.41,15.64,1.06,31.31,2.49,46.91,4.69s31.18,5,46.45,8.35l.1,0a3.35,3.35,0,0,0,1.79-6.45Z"/><path class="h" d="M587.14,937.38A174.44,174.44,0,0,1,761.58,762.94H2245a153.69,153.69,0,0,1,153.49,145.87L2508,3059.54a113.33,113.33,0,0,1-111.13,119.07l-1700.22,30.9A107.57,107.57,0,0,1,587.14,3102Z"/><path class="f" d="M708.67,796a50.67,50.67,0,0,1,57.47-50.53c202.58,27.47,899.2,112.43,1475.15,68.22a46.86,46.86,0,0,1,50.46,44.19l114.81,2160.31a53.92,53.92,0,0,1-50.65,56.71c-242.24,14.33-1239.84,69.75-1595.67,32.48A42.72,42.72,0,0,1,722,3065.14Z"/><path class="d" d="M732.53,850.18a48.77,48.77,0,0,1,55.31-48.63c194.95,26.43,865.33,108.2,1419.6,65.65A45.09,45.09,0,0,1,2256,909.73l110.49,2079a51.89,51.89,0,0,1-48.75,54.57c-233.11,13.79-1193.15,67.12-1535.58,31.26a41.11,41.11,0,0,1-36.78-40.69Z"/><path class="i" d="M913,1010.47l20.71,445.71a28.32,28.32,0,0,0,27.5,27c82.54,2.33,339.76,8.61,485,1a31.64,31.64,0,0,0,30-30.59c2.77-83.59,8.83-326.88-10.22-428.58a35.7,35.7,0,0,0-33.9-29L944.15,979A30.13,30.13,0,0,0,913,1010.47Z"/><circle class="j" cx="1193.75" cy="1169.82" r="95.81" transform="translate(-259.83 1994.81) rotate(-74)"/><path class="k" d="M1048.22,1451.12h305.25c18.71,0,29.93-20.66,19.85-36.43-25.93-40.57-80.18-100.17-174.13-97.48-90.55,2.59-144.22,56.43-171.2,95C1016.54,1428.64,1028.22,1451.12,1048.22,1451.12Z"/><g class="l"><path class="m" d="M2146.61,1049.26a4.28,4.28,0,0,0,4.3-4.43l-.61-21a4.72,4.72,0,0,0-4.57-4.52l-560.9-10a2.87,2.87,0,0,0-3,4.1l11.15,31.69a6.75,6.75,0,0,0,5.92,4.18Z"/></g><g class="l"><path class="m" d="M1584.83,1092.38a2.87,2.87,0,0,0-3,4.1l11.15,31.69a6.76,6.76,0,0,0,5.92,4.19h547.67a4.29,4.29,0,0,0,4.3-4.44l-.61-21a4.72,4.72,0,0,0-4.57-4.52Z"/></g><g class="l"><path class="m" d="M1584.83,1176.67a2.88,2.88,0,0,0-3,4.11l11.15,31.69a6.75,6.75,0,0,0,5.92,4.18h547.67a4.28,4.28,0,0,0,4.3-4.43l-.61-21a4.72,4.72,0,0,0-4.57-4.52Z"/></g><g class="l"><path class="m" d="M2198.57,1623.18a4.11,4.11,0,0,0,4.15-4.42l-1.39-21a4.87,4.87,0,0,0-4.73-4.47L917.3,1583.16c-2.44,0-3.2,1.53-1.68,3.44L942,1619.71a10.44,10.44,0,0,0,7.2,3.47Z"/></g><g class="l"><path class="m" d="M917.3,1666.25c-2.44,0-3.2,1.53-1.68,3.44L942,1702.8a10.44,10.44,0,0,0,7.2,3.47H2198.57a4.11,4.11,0,0,0,4.15-4.42l-1.39-21a4.85,4.85,0,0,0-4.73-4.46Z"/></g><path class="m" d="M1086.34,2233h-.29l-105.79-1c-15.11-.15-27.59-10.55-29-24.19l-9.3-88.76a19.3,19.3,0,0,1,4.56-14.51,23.23,23.23,0,0,1,16.18-8h0c8.92-.61,21.47-1.68,34.75-2.81,28-2.39,62.8-5.35,82.4-5.59,14.21-.07,26.27,8.34,29.62,20.72,5.51,20.37,5,58.94,4,100C1113.09,2222.22,1101,2233,1086.34,2233Zm-123.1-128.35a15,15,0,0,0-10.52,5.11,11.22,11.22,0,0,0-2.7,8.43l9.3,88.76c1,9.53,10,16.81,21,16.91l105.79,1h.21c10.25,0,18.74-7.22,19-16.19,1-40.46,1.52-78.38-3.7-97.71-2.34-8.65-11.35-14.68-21.68-14.71-19.3.24-54,3.19-81.81,5.56-13.32,1.14-25.9,2.21-34.88,2.82Z"/><path class="n" d="M974.62,2113.79c22.22-1.51,70.52-6.42,93.43-6.7,9.71-.13,18.22,5.74,20.5,14.16,4.42,16.34,3.83,48.93,3.07,79-.23,9-8.51,16.2-18.61,16.1l-84.54-.81c-10.39-.1-19-7.19-20-16.42l-7.43-70.93C960.28,2120.85,966.38,2114.36,974.62,2113.79Z"/><g class="l"><path class="m" d="M1179.25,2174a26.27,26.27,0,0,0,25.62,19.57l978.79-8.34a19.87,19.87,0,0,0-.08-39.73l-978.81-4.46A26.27,26.27,0,0,0,1179.25,2174Z"/></g><path class="o" d="M979.12,2127.71h0a16.23,16.23,0,0,1,22.4,6.1l20.86,37.4a5.22,5.22,0,0,0,9.31-.4l51.76-115.22a5.77,5.77,0,0,1,11,2.49c-.53,35.25-9.88,102.24-66.19,158.31,0,0-31-12.06-56-66.94A17,17,0,0,1,979.12,2127.71Z"/><path class="m" d="M1086.34,2459.71h-.29l-105.79-1c-15.11-.14-27.59-10.54-29-24.18l-9.3-88.76a19.3,19.3,0,0,1,4.56-14.51,23.24,23.24,0,0,1,16.18-8h0c8.92-.6,21.47-1.67,34.75-2.8,28-2.39,62.8-5.35,82.4-5.6h.42c13.91,0,25.88,8.47,29.2,20.72,5.51,20.38,5,58.95,4,100C1113.09,2449,1101,2459.71,1086.34,2459.71Zm-123.1-128.35a15,15,0,0,0-10.52,5.11,11.21,11.21,0,0,0-2.7,8.43l9.3,88.76c1,9.53,10,16.8,21,16.91l105.79,1h.21c10.25,0,18.74-7.22,19-16.18,1-40.47,1.52-78.38-3.7-97.71-2.35-8.65-11.48-14.88-21.68-14.71-19.3.24-54,3.19-81.81,5.56-13.32,1.14-25.9,2.21-34.88,2.82Z"/><path class="n" d="M974.62,2340.52c22.22-1.52,70.52-6.42,93.43-6.71,9.71-.12,18.22,5.75,20.5,14.16,4.42,16.35,3.83,48.94,3.07,79-.23,9-8.51,16.2-18.61,16.1l-84.54-.81c-10.39-.1-19-7.19-20-16.42l-7.43-70.93C960.28,2347.58,966.38,2341.08,974.62,2340.52Z"/><g class="l"><path class="m" d="M1179.25,2400.77a26.27,26.27,0,0,0,25.62,19.57l978.79-8.35a19.86,19.86,0,0,0-.08-39.72l-978.81-4.46A26.27,26.27,0,0,0,1179.25,2400.77Z"/></g><path class="p" d="M979.12,2354.44h0a16.24,16.24,0,0,1,22.4,6.09l20.86,37.41a5.21,5.21,0,0,0,9.31-.41l51.76-115.21a5.77,5.77,0,0,1,11,2.49c-.53,35.24-9.88,102.24-66.19,158.31,0,0-31-12.06-56-66.94A17,17,0,0,1,979.12,2354.44Z"/><path class="m" d="M1086.34,2686.43h-.29l-105.79-1c-15.11-.14-27.59-10.54-29-24.18l-9.3-88.76A19.29,19.29,0,0,1,946.5,2558a23.2,23.2,0,0,1,16.18-8h0c8.92-.61,21.47-1.68,34.75-2.81,28-2.38,62.8-5.34,82.4-5.59h.42c13.91,0,25.88,8.47,29.2,20.72,5.51,20.38,5,58.94,4,100C1113.09,2675.68,1101,2686.43,1086.34,2686.43Zm-123.1-128.34a15,15,0,0,0-10.52,5.11,11.21,11.21,0,0,0-2.7,8.43l9.3,88.76c1,9.53,10,16.8,21,16.91l105.79,1h.21c10.25,0,18.74-7.22,19-16.18,1-40.47,1.52-78.39-3.7-97.71-2.35-8.66-11.48-14.91-21.68-14.72-19.3.25-54,3.2-81.81,5.57-13.32,1.13-25.9,2.2-34.88,2.82Z"/><path class="n" d="M974.62,2567.25c22.22-1.52,70.52-6.42,93.43-6.71,9.71-.12,18.22,5.74,20.5,14.16,4.42,16.35,3.83,48.93,3.07,79-.23,9-8.51,16.19-18.61,16.1l-84.54-.81c-10.39-.1-19-7.19-20-16.42l-7.43-70.93C960.28,2574.31,966.38,2567.81,974.62,2567.25Z"/><g class="l"><path class="m" d="M1179.25,2627.5a26.28,26.28,0,0,0,25.62,19.57l978.79-8.35a19.86,19.86,0,0,0-.08-39.72l-978.81-4.47A26.28,26.28,0,0,0,1179.25,2627.5Z"/></g><path class="q" d="M979.12,2581.17h0a16.24,16.24,0,0,1,22.4,6.09l20.86,37.41a5.22,5.22,0,0,0,9.31-.41L1083.45,2509a5.78,5.78,0,0,1,11,2.5c-.53,35.24-9.88,102.23-66.19,158.31,0,0-31-12.06-56-66.94A17,17,0,0,1,979.12,2581.17Z"/><path class="m" d="M1086.34,2913.16h-.29l-105.79-1c-15.11-.15-27.59-10.54-29-24.19l-9.3-88.75a19.28,19.28,0,0,1,4.56-14.51,23.2,23.2,0,0,1,16.18-8h0c8.92-.61,21.47-1.68,34.75-2.81,28-2.38,62.8-5.35,82.4-5.59h.42c13.91,0,25.88,8.48,29.2,20.73,5.51,20.37,5,58.94,4,100C1113.09,2902.41,1101,2913.16,1086.34,2913.16Zm-123.1-128.34a15,15,0,0,0-10.52,5.1,11.23,11.23,0,0,0-2.7,8.44l9.3,88.76c1,9.53,10,16.8,21,16.9l105.79,1h.21c10.25,0,18.74-7.22,19-16.19,1-40.46,1.52-78.38-3.7-97.7-2.35-8.66-11.48-14.94-21.68-14.72-19.3.24-54,3.19-81.81,5.57-13.32,1.13-25.9,2.2-34.88,2.82Z"/><path class="n" d="M974.62,2794c22.22-1.52,70.52-6.43,93.43-6.71,9.71-.12,18.22,5.74,20.5,14.16,4.42,16.35,3.83,48.93,3.07,79-.23,9-8.51,16.19-18.61,16.1l-84.54-.82c-10.39-.1-19-7.18-20-16.42l-7.43-70.93C960.28,2801,966.38,2794.54,974.62,2794Z"/><g class="l"><path class="m" d="M1179.25,2854.23h0a26.26,26.26,0,0,0,25.62,19.56l978.79-8.34a19.86,19.86,0,0,0-.08-39.72l-978.81-4.47A26.27,26.27,0,0,0,1179.25,2854.23Z"/></g><path class="m" d="M1071.68,2011.11h-.29l-105.79-1c-15.11-.15-27.59-10.54-29-24.18l-9.3-88.76a19.33,19.33,0,0,1,4.56-14.51,23.22,23.22,0,0,1,16.18-8h0c8.92-.61,21.47-1.68,34.76-2.81,28-2.38,62.8-5.35,82.39-5.59h.42c13.92,0,25.88,8.47,29.2,20.72,5.51,20.37,5,58.94,4,100C1098.43,2000.36,1086.3,2011.11,1071.68,2011.11Zm-123.1-128.34a15,15,0,0,0-10.52,5.11,11.2,11.2,0,0,0-2.7,8.43l9.3,88.76c1,9.53,10,16.8,21,16.9l105.79,1h.21c10.25,0,18.74-7.22,19-16.19,1-40.46,1.52-78.38-3.7-97.7-2.35-8.66-11.48-14.94-21.68-14.72-19.3.24-54,3.19-81.8,5.57-13.33,1.13-25.91,2.2-34.89,2.82Z"/><path class="n" d="M960,1891.93c22.22-1.52,70.52-6.42,93.43-6.71,9.71-.12,18.22,5.74,20.5,14.16,4.42,16.35,3.83,48.93,3.07,79-.23,9-8.51,16.19-18.61,16.1l-84.53-.82c-10.4-.1-19-7.18-20-16.42l-7.43-70.92C945.62,1899,951.72,1892.49,960,1891.93Z"/><g class="l"><path class="m" d="M1164.59,1952.18h0a26.29,26.29,0,0,0,25.63,19.57L2169,1963.4a19.86,19.86,0,0,0-.08-39.72l-978.81-4.47A26.27,26.27,0,0,0,1164.59,1952.18Z"/></g><path class="r" d="M964.46,1905.85h0a16.24,16.24,0,0,1,22.4,6.09l20.87,37.4a5.2,5.2,0,0,0,9.3-.4l51.76-115.22a5.78,5.78,0,0,1,11,2.5c-.52,35.24-9.88,102.23-66.19,158.31,0,0-31-12.07-56-66.94A17,17,0,0,1,964.46,1905.85Z"/><path class="s" d="M1595.31,469.7c-53.58-37.28-100.18-36.54-133-26.86a65.42,65.42,0,0,0-46.47,68.78L1430,666,1598.33,681S1700.4,542.81,1595.31,469.7Zm-74,124.55a42,42,0,1,1,42-42A42,42,0,0,1,1521.29,594.25Z"/><path class="f" d="M1446.83,601.06a4.05,4.05,0,0,1-4-3.69l-2.26-24.59a4.07,4.07,0,0,1,3.68-4.41,4,4,0,0,1,4.41,3.68l2.26,24.58a4.07,4.07,0,0,1-3.68,4.42Zm-4.42-48.18a4.07,4.07,0,0,1-4-3.69l-1.71-18.67A62.45,62.45,0,0,1,1480.94,465a125.67,125.67,0,0,1,61.51-2.52,4.06,4.06,0,1,1-1.63,7.95,118,118,0,0,0-57.59,2.36,54.31,54.31,0,0,0-38.48,57l1.71,18.67a4.05,4.05,0,0,1-3.67,4.41A2.42,2.42,0,0,1,1442.41,552.88Z"/><path class="t" d="M1200.29,765.78V688.16a47.36,47.36,0,0,1,49-47.34l535.17,18.34a46.07,46.07,0,0,1,44.41,43.28l4.47,74.58Z"/><path class="f" d="M1399.84,670.07h-23a4.06,4.06,0,1,1,0-8.12h23a4.06,4.06,0,1,1,0,8.12Z"/><path class="f" d="M1229.26,741.41a4.06,4.06,0,0,1-4.06-4.06V705.94a44,44,0,0,1,44-44h84.61a4.06,4.06,0,1,1,0,8.12H1269.2a35.92,35.92,0,0,0-35.88,35.87v31.41A4.06,4.06,0,0,1,1229.26,741.41Z"/><path class="u" d="M982.24,785.38a50.43,50.43,0,0,1,50.37-48l935.84,0a69.17,69.17,0,0,1,68.16,57.37l.79,4.57a59.41,59.41,0,0,1-58.53,69.54H1018.75a38.62,38.62,0,0,1-38.58-40.48Z"/><path class="v" d="M1521.5,1449.63a61,61,0,0,1,47.16-16.23c185.23,16.66,530.83-72.57,756.69-303.68,15.69-16,44.28-7,62.25,6.46,251.2,187.74,667.59,226.62,812.14,234.57a61,61,0,0,1,57.25,54.63C3388.44,2695,2561.8,3155.05,2390.36,3236.26a61.14,61.14,0,0,1-58.41-3.37c-854.48-532.24-817.93-1224.4-829.74-1737.26A61.07,61.07,0,0,1,1521.5,1449.63Z"/><path class="f" d="M2367.24,3144.88a21.22,21.22,0,0,1-11.41-3.33c-327.74-209.51-541.36-460-653.06-765.77-99.75-273.08-104.63-551.08-108.93-796.34l-.58-32.69a20.79,20.79,0,0,1,6-15.09,21,21,0,0,1,15.13-6.33h0c202.71,0,507-89.51,730.15-289.48a21.08,21.08,0,0,1,25.72-1.86c245.22,162.71,595.1,210.1,781.83,223.86a21,21,0,0,1,19.43,19.19c43.44,495.59-59.65,914.69-306.41,1245.64-184.31,247.19-402.87,376-488.28,419.89h0A21.09,21.09,0,0,1,2367.24,3144.88ZM1614.56,1535.31a11.23,11.23,0,0,0-8.18,3.35,11,11,0,0,0-3.15,7.91l.59,32.69c4.29,244.48,9.16,521.59,108.33,793.09,110.92,303.65,323.23,552.5,649.06,760.79a11.15,11.15,0,0,0,11.06.55h0c84.8-43.59,301.78-171.46,484.84-417,245.26-328.94,347.7-745.73,304.48-1238.81a11,11,0,0,0-10.22-10.1c-187.7-13.84-539.5-61.53-786.62-225.51a11.1,11.1,0,0,0-13.54,1c-225.14,201.74-532.2,292-736.64,292Z"/><path class="w" d="M450.48,2957.59l7,218.27a71,71,0,0,0,70.72,68.58l522.69,3.08a51.23,51.23,0,0,0,51.09-43.61c8.18-55.12,18.59-153.75,6.86-246.32Z"/><path class="m" d="M1032.39,3234.11h0l-3.81,0a.64.64,0,0,1-.63-.64.63.63,0,0,1,.63-.63h0l3.8,0a.64.64,0,0,1,0,1.27Zm8.88-.06a.64.64,0,0,1,0-1.27c1.25-.07,2.5-.2,3.74-.37a.63.63,0,0,1,.72.54.64.64,0,0,1-.55.71c-1.26.18-2.55.31-3.83.39Zm-21.57,0h0l-3.81,0a.64.64,0,0,1-.63-.64.63.63,0,0,1,.63-.63h0l3.8,0a.62.62,0,0,1,.63.63A.64.64,0,0,1,1019.7,3234ZM1007,3234h0l-3.8,0a.64.64,0,0,1,0-1.27h0l3.81,0a.64.64,0,0,1,.63.64A.63.63,0,0,1,1007,3234Zm-12.69-.07h0l-3.8,0a.63.63,0,0,1-.64-.63.7.7,0,0,1,.64-.64l3.81,0a.63.63,0,0,1,.63.63A.64.64,0,0,1,994.32,3233.89Zm-12.69-.08h0l-3.81,0a.64.64,0,0,1-.63-.64.64.64,0,0,1,.64-.63h0l3.81,0a.64.64,0,0,1,0,1.27Zm-12.7-.07h0l-3.81,0a.63.63,0,0,1-.63-.63.68.68,0,0,1,.64-.64l3.81,0a.63.63,0,0,1,.63.64A.64.64,0,0,1,968.93,3233.74Zm-12.69-.08h0l-3.81,0a.64.64,0,0,1,0-1.27h0l3.81,0a.64.64,0,1,1,0,1.27Zm-12.69-.07h0l-3.81,0a.63.63,0,0,1-.63-.63.63.63,0,0,1,.63-.63h0l3.81,0a.63.63,0,0,1,.63.64A.64.64,0,0,1,943.55,3233.59Zm-12.69-.08h0l-3.81,0a.64.64,0,0,1-.63-.64.63.63,0,0,1,.63-.63h0l3.8,0a.64.64,0,1,1,0,1.27Zm-12.69-.07h0l-3.81,0a.63.63,0,1,1,0-1.26h0l3.8,0a.64.64,0,0,1,0,1.27Zm-12.69-.08h0l-3.81,0a.64.64,0,0,1,0-1.27h0l3.8,0a.64.64,0,0,1,0,1.27Zm-12.69-.07h0l-3.8,0a.63.63,0,1,1,0-1.26h0l3.81,0a.64.64,0,0,1,.63.64A.63.63,0,0,1,892.79,3233.29Zm-12.69-.08h0l-3.8,0a.64.64,0,1,1,0-1.27h0l3.81,0a.64.64,0,0,1,.63.64A.63.63,0,0,1,880.1,3233.21Zm-12.69-.07h0l-3.81,0a.64.64,0,0,1,0-1.27h0l3.81,0a.64.64,0,0,1,0,1.27Zm-12.7-.08h0l-3.81,0a.64.64,0,0,1,0-1.27h0l3.81,0a.64.64,0,0,1,.63.64A.64.64,0,0,1,854.71,3233.06ZM842,3233h0l-3.81,0a.64.64,0,0,1-.63-.64.7.7,0,0,1,.64-.63l3.81,0a.64.64,0,0,1,0,1.27Zm-12.69-.08h0l-3.81,0a.64.64,0,0,1,0-1.27h0l3.81,0a.64.64,0,0,1,0,1.27Zm-12.69-.07h0l-3.81,0a.64.64,0,0,1-.63-.64.66.66,0,0,1,.64-.63l3.8,0a.64.64,0,1,1,0,1.27Zm-12.69-.08h0l-3.81,0a.64.64,0,0,1-.63-.64.63.63,0,0,1,.63-.63h0l3.81,0a.64.64,0,0,1,.63.64A.63.63,0,0,1,804,3232.76Zm-12.69-.07h0l-3.8,0a.64.64,0,0,1-.63-.64.65.65,0,0,1,.63-.63l3.81,0a.64.64,0,0,1,.63.64A.63.63,0,0,1,791.26,3232.69Zm-12.69-.08h0l-3.81,0a.64.64,0,0,1,0-1.27h0l3.81,0a.64.64,0,0,1,.63.64A.63.63,0,0,1,778.57,3232.61Zm-12.69-.07h0l-3.8,0a.64.64,0,1,1,0-1.27h0l3.81,0a.64.64,0,0,1,.63.64A.63.63,0,0,1,765.88,3232.54Zm-12.7-.08h0l-3.81,0a.64.64,0,0,1-.63-.64.65.65,0,0,1,.64-.63h0l3.81,0a.63.63,0,0,1,.63.63A.64.64,0,0,1,753.18,3232.46Zm-12.69-.07h0l-3.81,0a.64.64,0,0,1,0-1.27h0l3.81,0a.64.64,0,0,1,0,1.27Zm-12.69-.08h0l-3.81,0a.64.64,0,0,1-.63-.64.64.64,0,0,1,.64-.63h0l3.81,0a.63.63,0,0,1,.63.63A.64.64,0,0,1,727.8,3232.31Zm-12.69-.07h0l-3.81,0a.64.64,0,0,1,0-1.27h0l3.81,0a.64.64,0,0,1,.63.64A.64.64,0,0,1,715.11,3232.24Zm-12.69-.07h0l-3.81,0a.64.64,0,0,1,0-1.27h0l3.8,0a.63.63,0,0,1,.64.63A.65.65,0,0,1,702.42,3232.17Zm-12.69-.08h0l-3.81,0a.64.64,0,0,1-.63-.64.63.63,0,0,1,.63-.63h0l3.8,0a.64.64,0,0,1,0,1.27ZM677,3232h0l-3.81,0a.64.64,0,0,1,0-1.27h0l3.8,0a.64.64,0,0,1,0,1.27Zm-12.69-.08h0l-3.8,0a.63.63,0,0,1-.63-.64.68.68,0,0,1,.63-.63l3.81,0a.64.64,0,0,1,.63.64A.63.63,0,0,1,664.35,3231.94Zm-12.69-.07h0l-3.81,0a.63.63,0,0,1-.63-.63.65.65,0,0,1,.64-.64h0l3.81,0a.64.64,0,0,1,0,1.27Zm-12.69-.08h0l-3.81,0a.64.64,0,0,1-.63-.64.67.67,0,0,1,.64-.63l3.81,0a.64.64,0,0,1,0,1.27Zm-12.7-.07h0l-3.81,0a.63.63,0,0,1-.63-.63.64.64,0,0,1,.64-.63h0l3.81,0a.64.64,0,0,1,.63.64A.64.64,0,0,1,626.27,3231.72Zm427.42-.07a.64.64,0,0,1-.2-1.24c1.19-.39,2.37-.84,3.52-1.32a.63.63,0,1,1,.49,1.17c-1.18.5-2.39.95-3.61,1.36A.64.64,0,0,1,1053.69,3231.65Zm-440.11,0h0l-3.81,0a.64.64,0,0,1,0-1.27l3.81,0a.64.64,0,0,1,0,1.27Zm-12.69-.07h0l-3.81,0a.63.63,0,0,1-.63-.63.63.63,0,0,1,.63-.63h0l3.81,0a.64.64,0,0,1,.63.64A.64.64,0,0,1,600.89,3231.57Zm-12.69-.08h0l-3.81,0a.64.64,0,0,1-.63-.64.63.63,0,0,1,.63-.63h0l3.8,0a.64.64,0,1,1,0,1.27Zm-12.69-.07h0l-3.81,0a.64.64,0,0,1-.63-.64.63.63,0,0,1,.63-.63h0l3.8,0a.64.64,0,0,1,0,1.27Zm-12.69-.08h0l-3.8,0a.64.64,0,0,1,0-1.27h0l3.81,0a.64.64,0,0,1,.63.64A.63.63,0,0,1,562.82,3231.34Zm-12.69-.07h0l-3.8,0a.64.64,0,0,1-.63-.64.63.63,0,0,1,.63-.63h0l3.81,0a.64.64,0,0,1,.63.64A.63.63,0,0,1,550.13,3231.27Zm-12.69-.14h0c-1.28-.07-2.57-.17-3.84-.3a.65.65,0,0,1-.57-.7.64.64,0,0,1,.7-.57c1.25.14,2.51.24,3.76.3a.62.62,0,0,1,.6.66A.64.64,0,0,1,537.44,3231.13Zm-12.54-1.81-.15,0c-1.24-.3-2.49-.63-3.71-1a.64.64,0,0,1-.42-.79.63.63,0,0,1,.79-.43c1.2.36,2.42.7,3.64,1a.62.62,0,0,1,.46.76A.64.64,0,0,1,524.9,3229.32Zm540.19-3.18a.62.62,0,0,1-.53-.29.63.63,0,0,1,.18-.88c1-.68,2.07-1.42,3.06-2.18a.64.64,0,0,1,.77,1c-1,.78-2.06,1.53-3.14,2.23A.6.6,0,0,1,1065.09,3226.14Zm-552.18-.93a.65.65,0,0,1-.26-.06c-1.15-.52-2.31-1.09-3.45-1.68a.63.63,0,0,1-.27-.85.64.64,0,0,1,.86-.27c1.11.58,2.25,1.13,3.39,1.65a.64.64,0,0,1-.27,1.21Zm-11-6.27a.62.62,0,0,1-.36-.12c-1-.73-2.08-1.5-3.08-2.29a.63.63,0,1,1,.79-1c1,.77,2,1.53,3,2.24a.63.63,0,0,1,.15.89A.64.64,0,0,1,501.91,3218.94Zm572.77-1.05a.61.61,0,0,1-.42-.16.64.64,0,0,1,0-.9c.83-.92,1.64-1.9,2.4-2.89a.64.64,0,0,1,1,.77c-.78,1-1.61,2-2.46,3A.64.64,0,0,1,1074.68,3217.89Zm-582.41-7.16a.63.63,0,0,1-.46-.19c-.89-.91-1.76-1.86-2.6-2.83a.63.63,0,0,1,1-.83c.82.94,1.68,1.88,2.55,2.77a.63.63,0,0,1,0,.9A.62.62,0,0,1,492.27,3210.73Zm589.56-3.28a.58.58,0,0,1-.28-.07.63.63,0,0,1-.28-.85c.56-1.11,1.09-2.26,1.56-3.41a.65.65,0,0,1,.83-.35.64.64,0,0,1,.34.83c-.48,1.19-1,2.36-1.6,3.5A.64.64,0,0,1,1081.83,3207.45Zm-597.52-6.58a.63.63,0,0,1-.53-.28c-.71-1.07-1.39-2.17-2-3.27a.63.63,0,1,1,1.09-.64c.63,1.08,1.3,2.16,2,3.2a.64.64,0,0,1-.18.88A.58.58,0,0,1,484.31,3200.87Zm601.72-5.35-.13,0a.62.62,0,0,1-.49-.75c.19-.93.36-1.88.5-2.83l.13-.88a.64.64,0,0,1,1.26.18l-.13.88c-.15,1-.32,2-.52,2.91A.64.64,0,0,1,1086,3195.52Zm-607.69-5.83a.64.64,0,0,1-.59-.39c-.49-1.18-1-2.38-1.38-3.59a.62.62,0,0,1,.39-.81.62.62,0,0,1,.8.39c.42,1.18.88,2.37,1.36,3.52a.64.64,0,0,1-.34.83A.69.69,0,0,1,478.34,3189.69Zm609.59-6.72h-.09a.63.63,0,0,1-.54-.71c.18-1.24.35-2.5.52-3.77a.64.64,0,1,1,1.26.17c-.17,1.28-.35,2.53-.52,3.77A.64.64,0,0,1,1087.93,3183Zm-613.35-5.39a.63.63,0,0,1-.62-.51c-.27-1.25-.49-2.52-.68-3.78a.63.63,0,0,1,.53-.72.63.63,0,0,1,.72.53c.19,1.23.41,2.48.67,3.71a.63.63,0,0,1-.49.75Zm615-7.19h-.08a.63.63,0,0,1-.55-.71l.47-3.77a.63.63,0,0,1,.71-.55.62.62,0,0,1,.55.7l-.47,3.78A.64.64,0,0,1,1089.61,3170.39ZM473.16,3165a.63.63,0,0,1-.63-.62l-.13-3.8a.64.64,0,0,1,.62-.66.62.62,0,0,1,.65.62l.12,3.8a.63.63,0,0,1-.61.66Zm618-7.2h-.07a.63.63,0,0,1-.56-.7c.15-1.25.29-2.51.43-3.78a.64.64,0,0,1,.7-.56.63.63,0,0,1,.56.7c-.14,1.27-.28,2.54-.43,3.79A.64.64,0,0,1,1091.14,3157.79Zm-618.39-5.49a.63.63,0,0,1-.63-.61l-.13-3.81a.64.64,0,0,1,.62-.65.62.62,0,0,1,.65.61l.13,3.81a.64.64,0,0,1-.62.65Zm619.78-7.13h-.07a.63.63,0,0,1-.56-.7c.13-1.25.26-2.52.39-3.79a.63.63,0,0,1,.69-.57.65.65,0,0,1,.57.7c-.13,1.27-.26,2.54-.39,3.79A.63.63,0,0,1,1092.53,3145.17Zm-620.19-5.55a.63.63,0,0,1-.63-.62l-.12-3.8a.64.64,0,0,1,.61-.66.66.66,0,0,1,.66.62l.12,3.8a.64.64,0,0,1-.62.66Zm621.43-7.08h-.06a.63.63,0,0,1-.57-.69c.12-1.25.23-2.52.34-3.79a.64.64,0,0,1,1.27.12c-.11,1.27-.23,2.53-.35,3.79A.63.63,0,0,1,1093.77,3132.54Zm-621.83-5.61a.64.64,0,0,1-.64-.61l-.12-3.81a.64.64,0,0,1,1.27,0l.12,3.81a.63.63,0,0,1-.61.65Zm622.93-7h0a.64.64,0,0,1-.58-.69l.3-3.79a.61.61,0,0,1,.68-.58.62.62,0,0,1,.58.68l-.3,3.8A.63.63,0,0,1,1094.87,3119.89Zm-623.34-5.64a.64.64,0,0,1-.64-.62l-.12-3.8a.65.65,0,0,1,.62-.66.64.64,0,0,1,.65.62l.12,3.8a.64.64,0,0,1-.61.66Zm624.28-7h0a.64.64,0,0,1-.59-.68l.25-3.79a.65.65,0,0,1,.68-.6.64.64,0,0,1,.59.68l-.25,3.8A.64.64,0,0,1,1095.81,3107.23Zm-624.69-5.67a.63.63,0,0,1-.63-.61l-.13-3.81a.64.64,0,0,1,.62-.65.62.62,0,0,1,.65.61l.13,3.81a.64.64,0,0,1-.62.65Zm625.48-7h0a.64.64,0,0,1-.6-.67c.07-1.26.14-2.53.2-3.8a.64.64,0,1,1,1.27.07c-.06,1.27-.13,2.54-.2,3.8A.64.64,0,0,1,1096.6,3094.56Zm-625.89-5.68a.63.63,0,0,1-.63-.62l-.12-3.8a.63.63,0,1,1,1.26,0l.13,3.8a.64.64,0,0,1-.62.66Zm626.52-7h0a.62.62,0,0,1-.6-.66l.15-3.8a.64.64,0,0,1,.66-.61.64.64,0,0,1,.61.66c0,1.27-.1,2.54-.16,3.81A.63.63,0,0,1,1097.23,3081.89Zm-626.93-5.7a.63.63,0,0,1-.63-.61l-.12-3.81a.63.63,0,0,1,.61-.65.64.64,0,0,1,.66.61l.12,3.81a.63.63,0,0,1-.61.65Zm627.39-7h0a.64.64,0,0,1-.62-.65c0-1.27.08-2.54.11-3.81a.64.64,0,0,1,1.27,0c0,1.28-.07,2.55-.11,3.81A.63.63,0,0,1,1097.69,3069.2Zm-627.79-5.69a.64.64,0,0,1-.64-.62l-.12-3.8a.64.64,0,0,1,.61-.66.66.66,0,0,1,.66.62l.12,3.8a.64.64,0,0,1-.61.66Zm628.07-7h0a.63.63,0,0,1-.63-.65c0-1.26,0-2.53.05-3.8a.67.67,0,0,1,.64-.63.64.64,0,0,1,.63.64c0,1.28,0,2.55-.05,3.81A.64.64,0,0,1,1098,3056.51Zm-628.48-5.69a.65.65,0,0,1-.64-.61l-.12-3.81a.64.64,0,0,1,1.27,0l.12,3.81a.62.62,0,0,1-.61.65Zm628.58-7a.64.64,0,0,1-.63-.64v-.3c0-1.17,0-2.33,0-3.5a.64.64,0,0,1,.63-.64h0a.64.64,0,0,1,.64.64c0,1.16,0,2.33,0,3.5v.3A.64.64,0,0,1,1098.07,3043.82Zm-629-5.68a.63.63,0,0,1-.63-.61l-.12-3.81a.62.62,0,0,1,.61-.65.6.6,0,0,1,.65.61l.13,3.8a.64.64,0,0,1-.62.66Zm628.9-7a.64.64,0,0,1-.64-.62l-.06-3.8a.63.63,0,0,1,.62-.65.65.65,0,0,1,.65.62l.06,3.81a.62.62,0,0,1-.62.64Zm-629.31-5.68a.63.63,0,0,1-.63-.61l-.12-3.81a.63.63,0,0,1,.61-.65.65.65,0,0,1,.66.61l.12,3.81a.64.64,0,0,1-.62.65Zm629-7a.63.63,0,0,1-.63-.62c0-1.26-.09-2.53-.13-3.8a.64.64,0,0,1,.61-.66.62.62,0,0,1,.65.61c0,1.28.1,2.54.14,3.81a.64.64,0,0,1-.62.66Zm-629.42-5.68a.63.63,0,0,1-.63-.61l-.12-3.81a.64.64,0,0,1,1.27,0l.12,3.8a.63.63,0,0,1-.61.66Zm628.91-7a.64.64,0,0,1-.64-.6c-.06-1.27-.12-2.54-.19-3.8a.64.64,0,0,1,.6-.67.63.63,0,0,1,.66.6c.07,1.27.14,2.53.2,3.8a.64.64,0,0,1-.6.67Zm-629.31-5.69a.64.64,0,0,1-.64-.61l-.12-3.8a.64.64,0,0,1,1.27-.05l.12,3.81a.63.63,0,0,1-.61.65Zm628.57-7a.65.65,0,0,1-.64-.59c-.08-1.27-.17-2.53-.26-3.8a.63.63,0,1,1,1.26-.09c.09,1.27.19,2.53.27,3.8a.64.64,0,0,1-.59.68Zm-629-5.7a.63.63,0,0,1-.63-.61l-.13-3.81a.64.64,0,0,1,.62-.65.61.61,0,0,1,.65.61l.12,3.81a.62.62,0,0,1-.61.65Zm628-7a.64.64,0,0,1-.63-.58c-.11-1.26-.22-2.53-.34-3.79a.62.62,0,0,1,.57-.69.63.63,0,0,1,.69.57c.12,1.27.24,2.53.35,3.8a.63.63,0,0,1-.58.68ZM467,2974.72a.64.64,0,0,1-.63-.62l-.12-3.8a.63.63,0,0,1,.61-.66.64.64,0,0,1,.65.61l.13,3.81a.65.65,0,0,1-.62.66Zm627.16-6.9a.64.64,0,0,1-.63-.57l-.42-3.78a.62.62,0,0,1,.55-.7.63.63,0,0,1,.71.55l.42,3.79a.63.63,0,0,1-.56.7ZM466.63,2962a.63.63,0,0,1-.63-.61l-.14-4.46h2.3a.63.63,0,0,1,.63.63.64.64,0,0,1-.63.64h-1l.1,3.15a.64.64,0,0,1-.62.65Zm623.41-3.8h-3.81a.64.64,0,0,1-.64-.64.64.64,0,0,1,.64-.63H1090a.63.63,0,0,1,.63.63A.64.64,0,0,1,1090,2958.23Zm-12.7,0h-3.8a.64.64,0,0,1-.64-.64.64.64,0,0,1,.64-.63h3.8a.64.64,0,0,1,.64.63A.64.64,0,0,1,1077.34,2958.23Zm-12.69,0h-3.8a.64.64,0,0,1-.64-.64.63.63,0,0,1,.64-.63h3.8a.64.64,0,0,1,.64.63A.64.64,0,0,1,1064.65,2958.23Zm-12.69,0h-3.81a.64.64,0,0,1-.63-.64.63.63,0,0,1,.63-.63H1052a.64.64,0,0,1,.64.63A.64.64,0,0,1,1052,2958.23Zm-12.69,0h-3.81a.64.64,0,0,1-.63-.64.63.63,0,0,1,.63-.63h3.81a.63.63,0,0,1,.63.63A.64.64,0,0,1,1039.27,2958.23Zm-12.69,0h-3.81a.64.64,0,0,1-.63-.64.63.63,0,0,1,.63-.63h3.81a.63.63,0,0,1,.63.63A.64.64,0,0,1,1026.58,2958.23Zm-12.69,0h-3.81a.64.64,0,0,1-.63-.64.63.63,0,0,1,.63-.63h3.81a.63.63,0,0,1,.63.63A.64.64,0,0,1,1013.89,2958.23Zm-12.69,0h-3.81a.64.64,0,0,1-.64-.64.64.64,0,0,1,.64-.63h3.81a.63.63,0,0,1,.63.63A.64.64,0,0,1,1001.2,2958.23Zm-12.7,0h-3.8a.64.64,0,0,1-.64-.64.64.64,0,0,1,.64-.63h3.8a.63.63,0,0,1,.64.63A.64.64,0,0,1,988.5,2958.23Zm-12.69,0H972a.64.64,0,0,1-.64-.64.64.64,0,0,1,.64-.63h3.8a.64.64,0,0,1,.64.63A.64.64,0,0,1,975.81,2958.23Zm-12.69,0h-3.81a.64.64,0,0,1-.63-.64.63.63,0,0,1,.63-.63h3.81a.64.64,0,0,1,.64.63A.64.64,0,0,1,963.12,2958.23Zm-12.69,0h-3.81a.64.64,0,0,1-.63-.64.63.63,0,0,1,.63-.63h3.81a.64.64,0,0,1,.64.63A.64.64,0,0,1,950.43,2958.23Zm-12.69,0h-3.81a.64.64,0,0,1-.63-.64.63.63,0,0,1,.63-.63h3.81a.63.63,0,0,1,.63.63A.64.64,0,0,1,937.74,2958.23Zm-12.69,0h-3.81a.64.64,0,0,1-.63-.64.63.63,0,0,1,.63-.63h3.81a.63.63,0,0,1,.63.63A.64.64,0,0,1,925.05,2958.23Zm-12.69,0h-3.81a.64.64,0,0,1-.64-.64.64.64,0,0,1,.64-.63h3.81a.63.63,0,0,1,.63.63A.64.64,0,0,1,912.36,2958.23Zm-12.69,0h-3.81a.64.64,0,0,1-.64-.64.64.64,0,0,1,.64-.63h3.81a.63.63,0,0,1,.63.63A.64.64,0,0,1,899.67,2958.23Zm-12.7,0h-3.8a.64.64,0,0,1-.64-.64.64.64,0,0,1,.64-.63H887a.64.64,0,0,1,.64.63A.64.64,0,0,1,887,2958.23Zm-12.69,0h-3.8a.64.64,0,0,1-.64-.64.63.63,0,0,1,.64-.63h3.8a.64.64,0,0,1,.64.63A.64.64,0,0,1,874.28,2958.23Zm-12.69,0h-3.81a.64.64,0,0,1-.63-.64.63.63,0,0,1,.63-.63h3.81a.64.64,0,0,1,.64.63A.64.64,0,0,1,861.59,2958.23Zm-12.69,0h-3.81a.64.64,0,0,1-.63-.64.63.63,0,0,1,.63-.63h3.81a.63.63,0,0,1,.63.63A.64.64,0,0,1,848.9,2958.23Zm-12.69,0H832.4a.64.64,0,0,1-.63-.64.63.63,0,0,1,.63-.63h3.81a.63.63,0,0,1,.63.63A.64.64,0,0,1,836.21,2958.23Zm-12.69,0h-3.81a.64.64,0,0,1-.63-.64.63.63,0,0,1,.63-.63h3.81a.63.63,0,0,1,.63.63A.64.64,0,0,1,823.52,2958.23Zm-12.69,0H807a.64.64,0,0,1-.64-.64.64.64,0,0,1,.64-.63h3.81a.63.63,0,0,1,.63.63A.64.64,0,0,1,810.83,2958.23Zm-12.7,0h-3.8a.64.64,0,0,1-.64-.64.64.64,0,0,1,.64-.63h3.8a.63.63,0,0,1,.64.63A.64.64,0,0,1,798.13,2958.23Zm-12.69,0h-3.8a.64.64,0,0,1-.64-.64.64.64,0,0,1,.64-.63h3.8a.64.64,0,0,1,.64.63A.64.64,0,0,1,785.44,2958.23Zm-12.69,0h-3.81a.64.64,0,0,1-.63-.64.63.63,0,0,1,.63-.63h3.81a.64.64,0,0,1,.64.63A.64.64,0,0,1,772.75,2958.23Zm-12.69,0h-3.81a.64.64,0,0,1-.63-.64.63.63,0,0,1,.63-.63h3.81a.64.64,0,0,1,.64.63A.64.64,0,0,1,760.06,2958.23Zm-12.69,0h-3.81a.64.64,0,0,1-.63-.64.63.63,0,0,1,.63-.63h3.81a.63.63,0,0,1,.63.63A.64.64,0,0,1,747.37,2958.23Zm-12.69,0h-3.81a.64.64,0,0,1-.63-.64.63.63,0,0,1,.63-.63h3.81a.63.63,0,0,1,.63.63A.64.64,0,0,1,734.68,2958.23Zm-12.69,0h-3.81a.64.64,0,0,1-.64-.64.64.64,0,0,1,.64-.63H722a.63.63,0,0,1,.63.63A.64.64,0,0,1,722,2958.23Zm-12.69,0h-3.81a.64.64,0,0,1-.64-.64.64.64,0,0,1,.64-.63h3.81a.63.63,0,0,1,.63.63A.64.64,0,0,1,709.3,2958.23Zm-12.7,0h-3.8a.64.64,0,0,1-.64-.64.64.64,0,0,1,.64-.63h3.8a.64.64,0,0,1,.64.63A.64.64,0,0,1,696.6,2958.23Zm-12.69,0h-3.8a.64.64,0,0,1-.64-.64.63.63,0,0,1,.64-.63h3.8a.64.64,0,0,1,.64.63A.64.64,0,0,1,683.91,2958.23Zm-12.69,0h-3.81a.64.64,0,0,1-.63-.64.63.63,0,0,1,.63-.63h3.81a.64.64,0,0,1,.64.63A.64.64,0,0,1,671.22,2958.23Zm-12.69,0h-3.81a.64.64,0,0,1-.63-.64.63.63,0,0,1,.63-.63h3.81a.63.63,0,0,1,.63.63A.64.64,0,0,1,658.53,2958.23Zm-12.69,0H642a.64.64,0,0,1-.63-.64.63.63,0,0,1,.63-.63h3.81a.63.63,0,0,1,.63.63A.64.64,0,0,1,645.84,2958.23Zm-12.69,0h-3.81a.64.64,0,0,1-.63-.64.63.63,0,0,1,.63-.63h3.81a.63.63,0,0,1,.63.63A.64.64,0,0,1,633.15,2958.23Zm-12.69,0h-3.81a.64.64,0,0,1-.64-.64.64.64,0,0,1,.64-.63h3.81a.63.63,0,0,1,.63.63A.64.64,0,0,1,620.46,2958.23Zm-12.7,0H604a.64.64,0,0,1-.64-.64.64.64,0,0,1,.64-.63h3.8a.63.63,0,0,1,.64.63A.64.64,0,0,1,607.76,2958.23Zm-12.69,0h-3.8a.64.64,0,0,1-.64-.64.63.63,0,0,1,.64-.63h3.8a.64.64,0,0,1,.64.63A.64.64,0,0,1,595.07,2958.23Zm-12.69,0h-3.81a.64.64,0,0,1-.63-.64.63.63,0,0,1,.63-.63h3.81a.64.64,0,0,1,.64.63A.64.64,0,0,1,582.38,2958.23Zm-12.69,0h-3.81a.64.64,0,0,1-.63-.64.63.63,0,0,1,.63-.63h3.81a.64.64,0,0,1,.64.63A.64.64,0,0,1,569.69,2958.23Zm-12.69,0h-3.81a.64.64,0,0,1-.63-.64.63.63,0,0,1,.63-.63H557a.63.63,0,0,1,.63.63A.64.64,0,0,1,557,2958.23Zm-12.69,0H540.5a.64.64,0,0,1-.63-.64.63.63,0,0,1,.63-.63h3.81a.63.63,0,0,1,.63.63A.64.64,0,0,1,544.31,2958.23Zm-12.69,0h-3.81a.64.64,0,0,1-.64-.64.64.64,0,0,1,.64-.63h3.81a.63.63,0,0,1,.63.63A.64.64,0,0,1,531.62,2958.23Zm-12.7,0h-3.8a.64.64,0,0,1-.64-.64.64.64,0,0,1,.64-.63h3.8a.63.63,0,0,1,.64.63A.64.64,0,0,1,518.92,2958.23Zm-12.69,0h-3.8a.64.64,0,0,1-.64-.64.64.64,0,0,1,.64-.63h3.8a.64.64,0,0,1,.64.63A.64.64,0,0,1,506.23,2958.23Zm-12.69,0h-3.8a.64.64,0,0,1-.64-.64.63.63,0,0,1,.64-.63h3.8a.64.64,0,0,1,.64.63A.64.64,0,0,1,493.54,2958.23Zm-12.69,0H477a.64.64,0,0,1-.63-.64.63.63,0,0,1,.63-.63h3.81a.64.64,0,0,1,.64.63A.64.64,0,0,1,480.85,2958.23Z"/><path class="x" d="M603.66,2799.14l1.57-16.84a13,13,0,0,1,9.82-7.56c16.28-2.59,56.67-7.14,76.11,7.39l2.91,19.56Z"/><path class="y" d="M654.53,2782.94a23.35,23.35,0,0,1-11.27,0,10.18,10.18,0,0,1-7.77-9.86v-52.71h26.82V2773A10.23,10.23,0,0,1,654.53,2782.94Z"/><path class="z" d="M863.48,2799.14l1.57-16.84a13,13,0,0,1,9.82-7.56c16.28-2.59,56.67-7.14,76.12,7.39l2.9,19.56Z"/><path class="aa" d="M914.35,2782.94a23.35,23.35,0,0,1-11.27,0,10.17,10.17,0,0,1-7.76-9.86V2714.8h26.82V2773A10.22,10.22,0,0,1,914.35,2782.94Z"/><path class="ab" d="M632.77,2733.27l288.49-9.55a13.9,13.9,0,0,0,13.29-11.41c1.58-9,3-22.55.89-36.57a33.26,33.26,0,0,0-32.25-28.16c-53.82-1.28-190.83-1.24-266.34,28.63a26.37,26.37,0,0,0-15.93,18.29c-1.93,7.93-3.21,18.52-.69,29.3A12.42,12.42,0,0,0,632.77,2733.27Z"/><path class="f" d="M627.78,2718.28a1.28,1.28,0,0,1-1.27-1.14,68.05,68.05,0,0,1,1.73-21.74,24.07,24.07,0,0,1,16.38-16.65c16.07-4.71,46.78-12.73,71.88-13.43a1.27,1.27,0,1,1,.07,2.53c-24.81.7-55.28,8.66-71.23,13.34a21.49,21.49,0,0,0-14.65,14.87,66.27,66.27,0,0,0-1.65,20.82,1.27,1.27,0,0,1-1.14,1.39Z"/><path class="ac" d="M469.81,2792.58c93.2-1.19,496.38-5.43,613.5,8.7a23.86,23.86,0,0,1,20.5,18.47c6.92,31.28,20.84,104,19.19,176a20.87,20.87,0,0,1-17.09,19.91l-267.34,50.57h-95l-284.85-56.62a22.27,22.27,0,0,1-18-20.67c-1.86-36.25-4.75-121.29,5.05-176A24.64,24.64,0,0,1,469.81,2792.58Z"/><path class="m" d="M836.37,3043.83h-3.8a.63.63,0,1,1,0-1.26h3.8a.63.63,0,1,1,0,1.26Zm-12.69,0h-3.81a.63.63,0,1,1,0-1.26h3.81a.63.63,0,1,1,0,1.26Zm-12.69,0h-3.81a.63.63,0,1,1,0-1.26H811a.63.63,0,0,1,0,1.26Zm-12.69,0h-3.81a.63.63,0,1,1,0-1.26h3.81a.63.63,0,0,1,0,1.26Zm-12.69,0H781.8a.63.63,0,1,1,0-1.26h3.81a.63.63,0,0,1,0,1.26Zm-12.69,0h-3.81a.63.63,0,1,1,0-1.26h3.81a.63.63,0,0,1,0,1.26Zm-12.7,0h-3.8a.63.63,0,1,1,0-1.26h3.8a.63.63,0,1,1,0,1.26Zm-12.69,0h-1.65l-3.86-.75a.63.63,0,0,1-.5-.75.62.62,0,0,1,.74-.49l3.74.74h1.53a.63.63,0,1,1,0,1.26Zm97.57-1.64a.64.64,0,0,1-.12-1.26l3.75-.71a.65.65,0,0,1,.74.51.64.64,0,0,1-.51.74l-3.74.71Zm-111.67-.83h-.13l-3.73-.74a.64.64,0,0,1,.25-1.25l3.73.74a.64.64,0,0,1-.12,1.26Zm124.14-1.53a.64.64,0,0,1-.12-1.26l3.75-.7a.63.63,0,1,1,.23,1.24l-3.74.71ZM721,3038.89l-.12,0-3.74-.74a.63.63,0,1,1,.25-1.24l3.73.74a.64.64,0,0,1-.12,1.26ZM870,3037.47a.64.64,0,0,1-.12-1.26l3.75-.7a.63.63,0,1,1,.23,1.24l-3.74.71Zm-161.51-1.06h-.12l-3.74-.74a.63.63,0,0,1-.49-.75.62.62,0,0,1,.74-.5l3.74.75a.62.62,0,0,1,.49.74A.63.63,0,0,1,708.53,3036.41Zm174-1.3a.63.63,0,0,1-.62-.51.64.64,0,0,1,.5-.75l3.75-.7a.64.64,0,0,1,.74.5.63.63,0,0,1-.51.74l-3.74.71Zm-186.43-1.17H696l-3.73-.75a.63.63,0,0,1,.24-1.24l3.74.74a.64.64,0,0,1-.13,1.26Zm198.9-1.19a.63.63,0,0,1-.62-.51.62.62,0,0,1,.51-.74l3.74-.71a.63.63,0,1,1,.23,1.24l-3.74.71Zm-211.34-1.29h-.13l-3.73-.74a.63.63,0,0,1-.5-.75.64.64,0,0,1,.75-.5l3.73.75a.63.63,0,0,1,.5.74A.64.64,0,0,1,683.64,3031.46Zm223.81-1.07a.63.63,0,0,1-.62-.51.62.62,0,0,1,.51-.74l3.74-.71a.64.64,0,1,1,.23,1.25l-3.74.7ZM671.19,3029h-.13l-3.73-.75a.63.63,0,1,1,.25-1.24l3.73.74a.64.64,0,0,1-.12,1.26Zm248.73-1a.63.63,0,0,1-.11-1.25l3.74-.71a.64.64,0,1,1,.23,1.25l-3.74.7Zm-261.18-1.52h-.12l-3.74-.74a.65.65,0,0,1-.5-.75.63.63,0,0,1,.75-.49l3.73.74a.63.63,0,0,1-.12,1.25Zm273.65-.83a.64.64,0,0,1-.11-1.26l3.74-.71a.64.64,0,0,1,.23,1.25l-3.74.7ZM646.29,3024h-.12l-3.74-.74a.64.64,0,0,1-.49-.75.63.63,0,0,1,.74-.5l3.74.74a.64.64,0,0,1-.13,1.26Zm298.57-.72a.64.64,0,0,1-.11-1.26l3.74-.71a.64.64,0,1,1,.23,1.25l-3.74.71Zm-311-1.75-.13,0-3.73-.74a.63.63,0,0,1-.5-.74.62.62,0,0,1,.74-.5l3.74.74a.64.64,0,0,1-.12,1.26Zm323.48-.61a.64.64,0,0,1-.11-1.26L961,3019a.64.64,0,1,1,.23,1.25l-3.74.71Zm-335.93-1.87h-.13l-3.73-.74a.64.64,0,0,1,.25-1.25l3.73.74a.64.64,0,0,1-.12,1.26Zm348.4-.49a.63.63,0,0,1-.62-.52.64.64,0,0,1,.51-.74l3.74-.71a.64.64,0,0,1,.23,1.25l-3.74.71Zm-360.85-2-.12,0-3.74-.74a.63.63,0,1,1,.25-1.24l3.73.74a.64.64,0,0,1-.12,1.26Zm373.32-.38a.63.63,0,0,1-.62-.52.64.64,0,0,1,.51-.74l3.74-.71a.65.65,0,0,1,.74.51.64.64,0,0,1-.51.74l-3.74.71Zm-385.77-2.1h-.12l-3.74-.74a.63.63,0,0,1-.49-.75.62.62,0,0,1,.74-.5l3.74.75a.62.62,0,0,1,.49.74A.63.63,0,0,1,596.5,3014.14Zm398.24-.26a.63.63,0,0,1-.62-.52.64.64,0,0,1,.51-.74l3.74-.71a.65.65,0,0,1,.74.51.64.64,0,0,1-.51.74l-3.74.71Zm-410.69-2.21h-.12l-3.73-.75a.63.63,0,0,1,.24-1.24l3.74.74a.64.64,0,0,1-.13,1.26Zm423.16-.15a.63.63,0,0,1-.62-.52.64.64,0,0,1,.51-.74l3.74-.7a.63.63,0,1,1,.23,1.24l-3.74.71Zm-435.6-2.33h-.13l-3.73-.74a.63.63,0,0,1-.5-.75.62.62,0,0,1,.75-.49l3.73.74a.63.63,0,0,1-.12,1.25Zm448.07,0a.63.63,0,0,1-.62-.52.64.64,0,0,1,.51-.74l3.74-.7a.64.64,0,0,1,.74.5.63.63,0,0,1-.51.74l-3.74.71Zm12.47-2.36a.63.63,0,0,1-.62-.51.65.65,0,0,1,.51-.75l3.74-.7a.63.63,0,1,1,.23,1.24l-3.74.71Zm-473-.08H559l-3.73-.74a.64.64,0,0,1,.25-1.25l3.73.74a.64.64,0,0,1-.12,1.26Zm485.46-2.28a.63.63,0,0,1-.11-1.25l3.74-.71a.63.63,0,1,1,.23,1.24l-3.74.71Zm-497.91-.19-.12,0-3.74-.74a.64.64,0,0,1-.5-.75.62.62,0,0,1,.75-.49l3.73.74a.64.64,0,0,1-.12,1.26Zm510.38-2.17a.63.63,0,0,1-.11-1.25l3.74-.71a.63.63,0,0,1,.74.5.65.65,0,0,1-.51.75l-3.74.7Zm-522.83-.31h-.12l-3.74-.74a.64.64,0,0,1-.49-.75.63.63,0,0,1,.74-.5l3.74.74a.64.64,0,0,1-.13,1.26Zm535.3-2.05a.64.64,0,0,1-.62-.51.63.63,0,0,1,.51-.74l3.74-.71a.64.64,0,1,1,.23,1.25l-3.74.7Zm-547.74-.42-.13,0-3.73-.74a.63.63,0,0,1-.5-.74.62.62,0,0,1,.74-.5l3.74.74a.64.64,0,0,1-.12,1.26Zm560.21-1.93a.65.65,0,0,1-.62-.52.63.63,0,0,1,.51-.74l3.74-.71a.64.64,0,1,1,.23,1.25l-3.74.7Zm-572.66-.55h-.13l-3.73-.74a.64.64,0,0,1,.25-1.25l3.73.75a.63.63,0,0,1,.5.74A.64.64,0,0,1,509.37,2996.82ZM1094.5,2995a.65.65,0,0,1-.62-.52.64.64,0,0,1,.51-.74l3.74-.71a.64.64,0,1,1,.23,1.25l-3.74.71Zm-597.58-.66h-.12l-3.74-.75a.63.63,0,1,1,.25-1.24l3.73.74a.64.64,0,0,1-.12,1.26Zm-12.45-2.48h-.12l-3.74-.74a.65.65,0,0,1-.5-.75.64.64,0,0,1,.75-.5l3.74.75a.63.63,0,0,1-.13,1.25ZM472,2989.4h-.12l-3.73-.75a.62.62,0,0,1-.5-.74.63.63,0,0,1,.74-.5l3.74.74a.64.64,0,0,1-.13,1.26Zm628.07-2.52h0a.64.64,0,0,1-.63-.64v-3.8a.63.63,0,0,1,.63-.64h0a.64.64,0,0,1,.64.63v3.81A.64.64,0,0,1,1100.09,2986.88Zm-636.53-3.39a.63.63,0,0,1-.63-.61c-.06-1.22-.12-2.49-.18-3.8a.65.65,0,0,1,.61-.67.64.64,0,0,1,.66.61c.06,1.31.12,2.58.17,3.8a.64.64,0,0,1-.6.67Zm636.44-9.31a.63.63,0,0,1-.64-.62c0-1.27,0-2.53-.09-3.8a.64.64,0,0,1,.62-.65.61.61,0,0,1,.65.62c0,1.27.06,2.54.09,3.81a.62.62,0,0,1-.62.64Zm-637-3.38a.63.63,0,0,1-.63-.61l-.14-3.8a.63.63,0,0,1,.61-.66.66.66,0,0,1,.66.61l.14,3.8a.64.64,0,0,1-.61.66Zm636.6-9.29a.63.63,0,0,1-.63-.61c-.06-1.27-.11-2.53-.17-3.79a.62.62,0,0,1,.6-.66.62.62,0,0,1,.66.6c.06,1.26.12,2.53.17,3.8a.63.63,0,0,1-.6.66Zm-637-3.39a.65.65,0,0,1-.64-.62l-.11-3.81a.64.64,0,0,1,.62-.65.64.64,0,0,1,.65.62l.11,3.8a.64.64,0,0,1-.61.66Zm636.38-9.28a.64.64,0,0,1-.64-.6c-.07-1.26-.16-2.53-.24-3.79a.64.64,0,1,1,1.27-.09l.24,3.81a.63.63,0,0,1-.59.67Zm-636.71-3.41a.63.63,0,0,1-.63-.62l-.08-3.81a.64.64,0,0,1,.62-.65.63.63,0,0,1,.65.62l.07,3.81a.64.64,0,0,1-.62.65Zm635.81-9.25a.63.63,0,0,1-.63-.59c-.11-1.27-.21-2.53-.32-3.79a.64.64,0,0,1,.58-.69.63.63,0,0,1,.68.58c.11,1.26.22,2.53.32,3.8a.62.62,0,0,1-.58.68Zm-636-3.44a.64.64,0,0,1-.64-.63l0-3.81a.64.64,0,0,1,.63-.64h0a.63.63,0,0,1,.63.63l0,3.8a.64.64,0,0,1-.62.65Zm634.89-9.21a.64.64,0,0,1-.63-.57c-.13-1.27-.25-2.53-.38-3.79a.64.64,0,0,1,.56-.7.65.65,0,0,1,.7.57c.13,1.26.26,2.53.38,3.79a.64.64,0,0,1-.57.7ZM462,2920a.63.63,0,0,1-.63-.63v-3.81a.63.63,0,0,1,.63-.63h0a.63.63,0,0,1,.63.63v3.81a.62.62,0,0,1-.63.63Zm633.64-9.14a.63.63,0,0,1-.63-.56c-.15-1.27-.29-2.53-.44-3.78a.62.62,0,0,1,.55-.7.63.63,0,0,1,.71.55c.15,1.26.29,2.52.44,3.79a.63.63,0,0,1-.56.7ZM462,2907.35h0a.64.64,0,0,1-.63-.64c0-1.26,0-2.53,0-3.8a.64.64,0,0,1,.64-.63h0a.63.63,0,0,1,.63.65c0,1.27,0,2.53,0,3.8A.63.63,0,0,1,462,2907.35Zm632-9a.64.64,0,0,1-.63-.55c-.16-1.27-.33-2.53-.5-3.77a.65.65,0,0,1,.55-.72.64.64,0,0,1,.71.55c.17,1.25.34,2.51.5,3.77a.64.64,0,0,1-.54.72Zm-631.85-3.63h0a.64.64,0,0,1-.62-.65l.09-3.81a.62.62,0,0,1,.65-.62.64.64,0,0,1,.62.66l-.09,3.8A.64.64,0,0,1,462.19,2894.67Zm630.11-9a.62.62,0,0,1-.62-.54c-.19-1.26-.37-2.52-.56-3.76a.65.65,0,0,1,.53-.73.66.66,0,0,1,.73.54c.18,1.24.37,2.5.55,3.77a.63.63,0,0,1-.53.72ZM462.56,2882h0a.64.64,0,0,1-.62-.66l.15-3.81a.66.66,0,0,1,.66-.61.64.64,0,0,1,.61.66l-.15,3.81A.63.63,0,0,1,462.56,2882Zm627.82-8.81a.63.63,0,0,1-.62-.53c-.21-1.27-.41-2.52-.62-3.76a.65.65,0,0,1,.53-.73.63.63,0,0,1,.73.53c.2,1.24.41,2.49.61,3.76a.65.65,0,0,1-.53.73Zm-627.26-3.88h0a.64.64,0,0,1-.61-.67l.21-3.81a.64.64,0,1,1,1.27.07q-.12,1.9-.21,3.81A.64.64,0,0,1,463.12,2869.29Zm625.16-8.64a.64.64,0,0,1-.63-.52q-.33-1.9-.66-3.75a.62.62,0,0,1,.51-.74.65.65,0,0,1,.74.51c.22,1.23.44,2.49.66,3.76a.63.63,0,0,1-.51.73Zm-624.36-4h-.05a.62.62,0,0,1-.58-.68c.09-1.27.18-2.54.29-3.8a.63.63,0,0,1,1.26.1c-.1,1.26-.2,2.52-.29,3.8A.62.62,0,0,1,463.92,2856.61Zm622.07-8.45a.63.63,0,0,1-.62-.51c-.24-1.28-.48-2.53-.72-3.74a.64.64,0,0,1,.5-.75.63.63,0,0,1,.74.5c.24,1.22.48,2.47.73,3.75a.64.64,0,0,1-.51.74ZM465,2844h0a.63.63,0,0,1-.59-.69c.13-1.28.26-2.54.39-3.8a.63.63,0,1,1,1.26.14c-.13,1.25-.26,2.51-.38,3.78A.64.64,0,0,1,465,2844Zm618.53-8.26a.63.63,0,0,1-.62-.5c-.26-1.29-.52-2.54-.78-3.73a.64.64,0,0,1,1.25-.26l.78,3.73a.64.64,0,0,1-.5.75Zm-617.1-4.35h-.08a.64.64,0,0,1-.55-.71c.17-1.28.34-2.54.52-3.79a.64.64,0,0,1,1.26.18c-.18,1.25-.35,2.5-.52,3.77A.63.63,0,0,1,466.42,2831.35Zm613-6.7h-.07c-1.22-.15-2.48-.29-3.78-.43a.63.63,0,1,1,.14-1.26c1.3.14,2.56.28,3.79.43a.63.63,0,0,1-.08,1.26Zm-12.62-1.31h-.06L1063,2823a.62.62,0,0,1-.57-.68.63.63,0,0,1,.68-.58l3.8.34a.63.63,0,0,1,.57.69A.64.64,0,0,1,1066.83,2823.34Zm-12.65-1.07h0l-3.79-.28a.64.64,0,0,1,.09-1.27l3.8.28a.65.65,0,0,1,.59.68A.64.64,0,0,1,1054.18,2822.27Zm-12.66-.89h0l-3.8-.24a.63.63,0,0,1-.59-.67.62.62,0,0,1,.67-.59l3.8.24a.62.62,0,0,1,.59.67A.63.63,0,0,1,1041.52,2821.38Zm-12.67-.77h0l-3.81-.21a.64.64,0,0,1-.6-.67.62.62,0,0,1,.66-.59l3.81.21a.64.64,0,0,1,0,1.27Zm-12.67-.68h0l-3.82-.18a.64.64,0,0,1,.06-1.27l3.81.18a.64.64,0,0,1,0,1.27Zm-12.68-.59h0l-3.8-.17a.64.64,0,0,1-.61-.66.66.66,0,0,1,.66-.61l3.81.17a.62.62,0,0,1,.6.66A.63.63,0,0,1,1003.5,2819.34Zm-12.68-.53h0l-3.8-.15a.64.64,0,0,1,0-1.27l3.8.15a.64.64,0,0,1,0,1.27Zm-522.5,0h-.11a.63.63,0,0,1-.52-.73l.21-1.2a2.25,2.25,0,0,1,2.2-1.88h.33a.59.59,0,0,1,.64.63.63.63,0,0,1-.62.64h-.33a1,1,0,0,0-1,.83l-.21,1.19A.63.63,0,0,1,468.32,2818.8Zm509.82-.47h0l-3.8-.13a.64.64,0,0,1,0-1.27l3.81.14a.63.63,0,0,1,.61.65A.64.64,0,0,1,978.14,2818.33Zm-12.69-.42h0l-3.81-.12a.64.64,0,0,1,0-1.27l3.81.12a.62.62,0,0,1,.61.65A.63.63,0,0,1,965.45,2817.91Zm-12.69-.39h0l-3.8-.1a.64.64,0,0,1-.62-.66.62.62,0,0,1,.65-.61l3.81.1a.64.64,0,0,1,.62.66A.63.63,0,0,1,952.76,2817.52Zm-12.68-.34h0l-3.82-.1a.63.63,0,0,1-.61-.65.61.61,0,0,1,.65-.62l3.8.1a.64.64,0,0,1,0,1.27Zm-12.69-.32h0l-3.8-.08a.64.64,0,0,1-.62-.65.6.6,0,0,1,.65-.62l3.8.08a.64.64,0,0,1,0,1.27Zm-12.69-.28h0l-3.81-.08a.64.64,0,0,1-.62-.65.66.66,0,0,1,.65-.62l3.8.08a.64.64,0,0,1,0,1.27Zm-12.69-.26h0l-3.81-.07a.62.62,0,0,1-.62-.64.6.6,0,0,1,.64-.63l3.81.07a.64.64,0,0,1,.62.65A.63.63,0,0,1,902,2816.32Zm-422.68-.19a.64.64,0,0,1-.64-.63.64.64,0,0,1,.63-.64l3.81-.05a.67.67,0,0,1,.64.63.64.64,0,0,1-.63.64l-3.81.05Zm410,0h0l-3.81-.06a.64.64,0,0,1,0-1.27h0l3.81.06a.64.64,0,0,1,.62.65A.62.62,0,0,1,889.32,2816.09ZM492,2816a.64.64,0,0,1,0-1.27l3.81,0a.6.6,0,0,1,.64.63.64.64,0,0,1-.63.64l-3.81,0Zm384.6-.09h0l-3.81-.06a.64.64,0,0,1-.62-.65.59.59,0,0,1,.64-.62l3.81.06a.64.64,0,0,1,.63.64A.64.64,0,0,1,876.63,2815.89Zm-371.91,0a.64.64,0,0,1,0-1.27l3.8,0a.64.64,0,1,1,0,1.27l-3.81,0Zm12.7-.13a.64.64,0,0,1,0-1.27l3.81,0a.64.64,0,1,1,0,1.27l-3.8,0Zm346.52,0h0l-3.81,0a.64.64,0,0,1,0-1.27h0l3.81,0a.64.64,0,0,1,0,1.27Zm-333.82-.11a.64.64,0,0,1-.64-.63.64.64,0,0,1,.63-.64l3.81,0a.63.63,0,0,1,.64.63.64.64,0,0,1-.63.64l-3.81,0Zm321.13-.06h0l-3.81,0a.63.63,0,0,1-.62-.64.6.6,0,0,1,.64-.63l3.81,0a.64.64,0,0,1,.62.65A.63.63,0,0,1,851.25,2815.53Zm-308.44-.06a.63.63,0,0,1-.63-.63.64.64,0,0,1,.63-.64l3.81,0h0a.64.64,0,1,1,0,1.27l-3.81,0Zm295.75-.09h0l-3.81,0a.62.62,0,0,1-.62-.64.64.64,0,0,1,.64-.63l3.8,0a.63.63,0,1,1,0,1.26Zm-283,0a.64.64,0,0,1,0-1.27l3.81,0h0a.64.64,0,0,1,0,1.27l-3.81,0Zm12.69-.1a.63.63,0,0,1-.63-.63.64.64,0,0,1,.63-.64l3.81,0h0a.65.65,0,0,1,.64.63.64.64,0,0,1-.63.64l-3.81,0Zm257.67,0h0l-3.81,0a.64.64,0,0,1,0-1.27h0l3.81,0a.63.63,0,1,1,0,1.26Zm-245-.08a.64.64,0,1,1,0-1.27l3.8,0a.62.62,0,0,1,.64.63.64.64,0,0,1-.63.64l-3.81,0Zm232.28,0h0l-3.81,0a.64.64,0,0,1-.63-.64.64.64,0,0,1,.64-.63h0l3.81,0a.64.64,0,0,1,0,1.27Zm-219.59,0a.64.64,0,0,1,0-1.27l3.81,0h0a.64.64,0,0,1,.64.63.63.63,0,0,1-.63.64l-3.81,0Zm206.89-.05h0l-3.81,0a.64.64,0,0,1-.63-.64.62.62,0,0,1,.64-.63l3.81,0a.64.64,0,0,1,.63.64A.64.64,0,0,1,800.48,2815Zm-194.19,0a.64.64,0,1,1,0-1.27l3.8,0h0a.63.63,0,0,1,.63.63.64.64,0,0,1-.63.64l-3.81,0Zm181.5-.05h0l-3.81,0a.64.64,0,0,1,0-1.27l3.81,0a.64.64,0,1,1,0,1.27Zm-168.81,0a.63.63,0,0,1-.63-.63.64.64,0,0,1,.63-.64h3.81a.64.64,0,0,1,.64.63.64.64,0,0,1-.63.64H619Zm156.12-.05h0l-3.81,0a.64.64,0,0,1-.63-.64.63.63,0,0,1,.63-.63h0l3.8,0a.64.64,0,1,1,0,1.27Zm-143.42,0a.64.64,0,0,1-.64-.63.64.64,0,0,1,.64-.63l3.8,0h0a.63.63,0,0,1,.63.63.64.64,0,0,1-.63.64Zm12.69-.05a.63.63,0,1,1,0-1.26l3.81,0h0a.64.64,0,1,1,0,1.27h-3.81Zm118,0H758.6a.64.64,0,0,1-.63-.64.63.63,0,0,1,.63-.63h3.81a.64.64,0,0,1,0,1.27Zm-105.34,0a.64.64,0,1,1,0-1.27h3.81a.64.64,0,0,1,.63.64.63.63,0,0,1-.63.63Zm92.65,0h-3.81a.64.64,0,0,1-.63-.64.63.63,0,0,1,.63-.63h3.81a.63.63,0,0,1,.63.63A.64.64,0,0,1,749.72,2814.79Zm-80,0a.63.63,0,0,1-.63-.63.64.64,0,0,1,.63-.64h3.81a.65.65,0,0,1,.64.64.64.64,0,0,1-.64.63Zm67.27,0h-3.81a.64.64,0,1,1,0-1.27H737a.64.64,0,0,1,.63.64A.63.63,0,0,1,737,2814.75Zm-54.57,0a.64.64,0,0,1-.64-.64.64.64,0,0,1,.64-.63h3.81a.64.64,0,0,1,.63.64.63.63,0,0,1-.63.63Zm41.88,0h-3.81a.64.64,0,0,1-.64-.64.64.64,0,0,1,.64-.63h3.81a.64.64,0,0,1,.63.64A.63.63,0,0,1,724.34,2814.73Zm-29.19,0a.63.63,0,1,1,0-1.26H699a.64.64,0,0,1,.64.64.64.64,0,0,1-.64.63Zm16.49,0h-3.8a.64.64,0,0,1-.64-.63.64.64,0,0,1,.64-.64h3.8a.64.64,0,0,1,.64.64A.64.64,0,0,1,711.64,2814.72Z"/><path class="ad" d="M829.63,3106.1h-83.2a21.48,21.48,0,0,1-21.37-18.88l-9.61-80.06a21.46,21.46,0,0,1,21.37-24h99.95a21.46,21.46,0,0,1,21.44,23.32l-7.14,80.06A21.48,21.48,0,0,1,829.63,3106.1Z"/><g class="ae"><path class="af" d="M819.4,3091.38H756.08A16.35,16.35,0,0,1,739.81,3077l-7.32-60.93a16.34,16.34,0,0,1,16.27-18.25h76.07a16.34,16.34,0,0,1,16.32,17.75l-5.43,60.93A16.35,16.35,0,0,1,819.4,3091.38Z"/></g><polygon class="ag" points="2644.34 1660.59 2842.36 2058.78 3096.91 1493.14 2832.5 1785.88 2644.34 1660.59"/><path class="ah" d="M1895.81,1789.71c-1.29,4.09,13.61,10.32,22.38-6.41.31-8,5.18-42.37.39-48.9-25.51-34.78-75-78.39-75-78.39-8.36,8.25-1.47,16.35-1.47,16.35l24,25c-5,9.07-11.15,16.73-14,27.7a33.63,33.63,0,0,0,3.36,24.75c4.21,7.59,10,17.46,15.39,25.18C1881.14,1789.6,1895.81,1789.71,1895.81,1789.71Z"/><path class="ai" d="M1876.62,1713.58l21.87,18.54,6.87,18.46-19.5,21.63s-6.56-36.62-11.43-44.55S1872.08,1715.9,1876.62,1713.58Z"/><path class="aj" d="M2325.37,3155s5.53,31.28,8.24,62.24a21.33,21.33,0,0,1-20.41,23.11c-41.23,1.72-129.42,5.06-161.07,3.65a7,7,0,0,1-6.11-9.51,15.54,15.54,0,0,1,7.95-8.37l145.68-67Z"/><path class="ak" d="M2329.9,3136.61l-4.44,37.41s-25.52,11.88-42.95-1.5l10.57-41.69Z"/><path class="al" d="M2326.56,2433.26c1.92,9.77,10.3,487.54-40.77,701.64a7.25,7.25,0,0,0,4.26,8.45,126.59,126.59,0,0,0,41.59,8.45,12.52,12.52,0,0,0,12.42-9c14.6-49.68,84.55-298.56,93.67-536.31,10.2-265.67,0-9.05,0-9.05l-6-164.22Z"/><path class="am" d="M2493,3171.3s8.8,15.79,17.31,57.75a13,13,0,0,1-11.45,15.58c-13.61,1.34-34.57,3.06-51.36,2.95a13,13,0,0,1-12.85-14.48c1.86-15.31,7.66-40.44,25.55-60Z"/><path class="an" d="M2500.68,3123.18l-10.37,56.58s-10.26,7.62-30.54,2.09l4.95-60.87Z"/><path class="ao" d="M2528.7,2447.93c41.77,252.07-9.06,623-26.2,695.61a11.33,11.33,0,0,1-9.15,8.6c-7.65,1.27-20.25,2.3-32.67-1.3a10.41,10.41,0,0,1-7.46-9.56c-2.3-58.7,1.84-419-37.07-561.45a32.34,32.34,0,0,0-12.48-17.84l-75.54-53.7-5.79-86.81Z"/><path class="ap" d="M2262.55,1970.3c125.17-2.07,263.28,32.86,263.28,32.86,37.31,217.71,6.53,468.82,6.53,468.82-96.91,25.41-206.22-15.54-206.22-15.54-16.1-91-91.25-347.09-91.25-347.09-61.16-7.59-111.54-25.23-153-48.56,31.65-36.68,46.57-83.36,53-111C2179.16,1963.59,2224,1970.94,2262.55,1970.3Z"/><path class="aq" d="M1892.82,1785.93c12.3-14.85,27.86-7.83,27.86-7.83,18.42,77.81,115,140.9,214.23,171.74-6.48,27.59-21.4,74.27-53,111C1917.19,1968.2,1892.82,1785.93,1892.82,1785.93Z"/><path class="ar" d="M2477.82,2124.37l48-121.21s116.92,79.44,136.15,180.16c-22.09,1.63-62.29,7.38-101.64,27.25C2551.69,2163,2477.82,2124.37,2477.82,2124.37Z"/><path class="as" d="M2389.34,1868.68l39.83,115.18a4.16,4.16,0,0,1-1.89,5c-10.86,6-50,23.35-97.11-6.54a19.55,19.55,0,0,1-9-14l-12.9-99.69Z"/><path class="at" d="M2302.68,1762s-43.73,82.33-38.13,115.58,59.81,30.87,107.14,3.86l33.08-88.89Z"/><path class="au" d="M2369.6,1837.81a3.4,3.4,0,0,1-1.48-5c3.5-5.35,10.07-16.27,12.17-25.83,0,0,7.86-5-20-11.71s-69.43-17-78.17-40.75c-8.52-23.13,13.86-81.3,49.57-35a3.4,3.4,0,0,0,5.38,0c5.85-7.61,21.24-23.43,42.6-13.84,20,9,22.25,23.62,22,31a3.37,3.37,0,0,0,4,3.45c10.11-1.93,34.37-3.58,45.69,21.3,9.33,20.5,3.27,32.1-2.25,37.78a3.38,3.38,0,0,0,1.44,5.61c6.65,2,15.23,7.67,14.37,23.24-1.19,21.51-25.25,19.62-32.1,18.64a3.39,3.39,0,0,0-3,1.06c-5.87,6.5-32.34,34.1-61,37.43a3.43,3.43,0,0,1-3.59-4.53l12.4-36a3.42,3.42,0,0,0-1.84-4.23Z"/><path class="av" d="M2364.62,1842.92s31.14-21.36,33.41-3.37-28,26.06-43.06,19.35Z"/><path class="aw" d="M2560.34,2210.57s40.86,184.35,3.85,288c45.38,21,37,17.08,37,17.08s89.78-262.31,60.8-332.32C2604.83,2177.26,2576.49,2192.62,2560.34,2210.57Z"/><path class="ax" d="M2564.19,2498.56s-23.39,30.27-21.52,42.32,2.32,17,2.32,17,11.75-8,11-18.31c-1.63,32.6-12.54,69.65-2.62,67.87s61.26-49.11,49.65-99.57C2576.69,2489.54,2569.31,2491.53,2564.19,2498.56Z"/></svg>