<svg xmlns="http://www.w3.org/2000/svg" viewBox="0 0 1568.6 1280.46"><defs><style>.cls-1{fill:#bcbcbc;}.cls-2{fill:#fcd118;}.cls-3{fill:#777;}.cls-4{fill:#1e243a;}</style></defs><title>Fichier 3</title><g id="Calque_2" data-name="Calque 2"><g id="Color"><rect class="cls-1" x="731.5" y="190.5" width="34.8" height="60"/><rect class="cls-1" x="535.5" y="305.5" width="34.8" height="60"/><rect class="cls-1" x="655.5" y="420.5" width="34.8" height="60"/><rect class="cls-1" x="373" y="535.5" width="34.8" height="60"/><rect class="cls-1" x="570.3" y="650.5" width="34.8" height="60"/><path class="cls-2" d="M1361.91,1272.91c-1.27,0-2.53,0-3.81,0C1359.37,1273,1360.64,1272.94,1361.91,1272.91Z"/><path class="cls-2" d="M1358.05,1273h0l-1.23,0Z"/><path class="cls-2" d="M1356.87,1272.94c-.78,0-1.55,0-2.32,0C1355.32,1272.93,1356.09,1272.94,1356.87,1272.94Z"/><path class="cls-3" d="M1358.05,866.84c-112.15,0-203.06,90.91-203.06,203.06,0,111,89,201.14,199.56,203q-54.06-1.28-108.06-40.91a111.47,111.47,0,0,1,111.56-111.74,83.77,83.77,0,0,1,0-167.54c46.22,0,83.92,37.45,83.92,83.67a83.64,83.64,0,0,1-83.47,83.69v.19c61,0,111.33,49.73,111.33,111.73q-53.91,39.59-107.92,40.91c110.36-2.06,199.19-92.16,199.19-203C1561.1,957.75,1470.19,866.84,1358.05,866.84Z"/><path class="cls-1" d="M957.15,6H51.85C37.57,6,25.5,17.57,25.5,31.85V106h957V31.85C982.5,17.57,971.43,6,957.15,6ZM85,72.7A15.7,15.7,0,1,1,100.72,57,15.7,15.7,0,0,1,85,72.7Zm63.16,0A15.7,15.7,0,1,1,163.88,57,15.7,15.7,0,0,1,148.18,72.7Z"/></g><g id="SETTINGS"><path class="cls-4" d="M48.69,949.87a10,10,0,0,1-4.83-13.3h0a10,10,0,0,1,13.29-4.82h0A10,10,0,0,1,62,945h0a10,10,0,0,1-9.07,5.77h0A9.89,9.89,0,0,1,48.69,949.87Zm29.11-5.06a10,10,0,0,1,4.44-13.43h0a10,10,0,0,1,13.43,4.44h0a10,10,0,0,1-4.44,13.43h0a10,10,0,0,1-4.49,1.07h0A10,10,0,0,1,77.8,944.81Zm-56-27.93a10,10,0,0,1,7.43-12h0a10,10,0,0,1,12,7.44h0a10,10,0,0,1-7.43,12h0a10.25,10.25,0,0,1-2.31.27h0A10,10,0,0,1,21.83,916.88Zm83.48,6.4a10,10,0,0,1-7.78-11.81h0a10,10,0,0,1,11.81-7.78h0a10,10,0,0,1,7.78,11.81h0a10,10,0,0,1-9.79,8h0A10,10,0,0,1,105.31,923.28ZM32.68,889.41a10,10,0,0,1-1.64-14h0a10,10,0,0,1,14.05-1.64h0a10,10,0,0,1,1.64,14h0a10,10,0,0,1-7.85,3.79h0A9.9,9.9,0,0,1,32.68,889.41Zm58.71-2.28h0A10,10,0,0,1,92.61,873h0a10,10,0,0,1,14.09,1.23h0a10,10,0,0,1-1.23,14.09h0a10,10,0,0,1-6.42,2.34h0A10,10,0,0,1,91.39,887.13ZM59.32,866.84a10,10,0,0,1,10-10h0a10,10,0,0,1,10,10h0a10,10,0,0,1-10,10h0A10,10,0,0,1,59.32,866.84Z"/><path class="cls-4" d="M387.16,1250.23a10,10,0,0,1-4.82-13.29h0a10,10,0,0,1,13.29-4.83h0a10,10,0,0,1,4.83,13.29h0a10,10,0,0,1-9.07,5.77h0A10,10,0,0,1,387.16,1250.23Zm29.12-5.06a10,10,0,0,1,4.44-13.42h0a10,10,0,0,1,13.43,4.43h0a10,10,0,0,1-4.44,13.43h0a9.91,9.91,0,0,1-4.49,1.07h0A10,10,0,0,1,416.28,1245.17Zm-56-27.92a10,10,0,0,1,7.43-12h0a10,10,0,0,1,12,7.43h0a10,10,0,0,1-7.43,12h0a10.25,10.25,0,0,1-2.31.27h0A10,10,0,0,1,360.31,1217.25Zm83.48,6.39a10,10,0,0,1-7.78-11.8h0a10,10,0,0,1,11.81-7.79h0a10,10,0,0,1,7.78,11.81h0a10,10,0,0,1-9.79,8h0A10,10,0,0,1,443.79,1223.64Zm-72.63-33.86a10,10,0,0,1-1.64-14h0a10,10,0,0,1,14.05-1.63h0a10,10,0,0,1,1.63,14h0a10,10,0,0,1-7.84,3.8h0A10,10,0,0,1,371.16,1189.78Zm58.71-2.29a10,10,0,0,1,1.22-14.09h0a10,10,0,0,1,14.09,1.23h0a10,10,0,0,1-1.23,14.09h0a10,10,0,0,1-6.42,2.34h0A10,10,0,0,1,429.87,1187.49ZM397.8,1167.2a10,10,0,0,1,10-10h0a10,10,0,0,1,10,10h0a10,10,0,0,1-10,10h0A10,10,0,0,1,397.8,1167.2Z"/><path class="cls-4" d="M1023.37,963.23a10,10,0,0,1-4.83-13.29h0a10,10,0,0,1,13.29-4.83h0a10,10,0,0,1,4.83,13.29h0a10,10,0,0,1-9.07,5.77h0A10,10,0,0,1,1023.37,963.23Zm29.11-5.06a10,10,0,0,1,4.44-13.42h0a10,10,0,0,1,13.43,4.44h0a10,10,0,0,1-4.44,13.42h0a9.88,9.88,0,0,1-4.49,1.07h0A10,10,0,0,1,1052.48,958.17Zm-56-27.92a10,10,0,0,1,7.43-12h0a10,10,0,0,1,12,7.43h0a10,10,0,0,1-7.44,12h0a10.18,10.18,0,0,1-2.31.27h0A10,10,0,0,1,996.51,930.25Zm83.49,6.39a10,10,0,0,1-7.79-11.8h0a10,10,0,0,1,11.81-7.79h0a10,10,0,0,1,7.78,11.81h0a10,10,0,0,1-9.78,8h0A9.9,9.9,0,0,1,1080,936.64Zm-72.64-33.86a10,10,0,0,1-1.63-14h0a10,10,0,0,1,14-1.63h0a10,10,0,0,1,1.63,14h0a10,10,0,0,1-7.85,3.8h0A10,10,0,0,1,1007.36,902.78Zm58.71-2.29a10,10,0,0,1,1.22-14.08h0a10,10,0,0,1,14.09,1.22h0a10,10,0,0,1-1.22,14.09h0a10,10,0,0,1-6.43,2.34h0A10,10,0,0,1,1066.07,900.49ZM1034,880.2a10,10,0,0,1,10-10h0a10,10,0,0,1,10,10h0a10,10,0,0,1-10,10h0A10,10,0,0,1,1034,880.2Z"/><path class="cls-4" d="M1459.91,769.23a10,10,0,0,1-4.82-13.29h0a10,10,0,0,1,13.29-4.83h0a10,10,0,0,1,4.83,13.29h0a10,10,0,0,1-9.07,5.77h0A10,10,0,0,1,1459.91,769.23Zm29.12-5.06a10,10,0,0,1,4.44-13.42h0a10,10,0,0,1,13.43,4.43h0a10,10,0,0,1-4.44,13.43h0a9.94,9.94,0,0,1-4.49,1.07h0A10,10,0,0,1,1489,764.17Zm-56-27.92h0a10,10,0,0,1,7.44-12h0a10,10,0,0,1,12,7.44h0a10,10,0,0,1-7.44,12h0a10.1,10.1,0,0,1-2.3.27h0A10,10,0,0,1,1433.05,736.25Zm83.49,6.39a10,10,0,0,1-7.78-11.81h0a10,10,0,0,1,11.8-7.78h0a10,10,0,0,1,7.79,11.81h0a10,10,0,0,1-9.79,8h0A10,10,0,0,1,1516.54,742.64Zm-72.64-33.86a10,10,0,0,1-1.63-14h0a10,10,0,0,1,14-1.64h0a10,10,0,0,1,1.63,14h0a10,10,0,0,1-7.84,3.8h0A10,10,0,0,1,1443.9,708.78Zm58.71-2.29a10,10,0,0,1,1.23-14.09h0a10,10,0,0,1,14.09,1.23h0a10,10,0,0,1-1.23,14.09h0a10,10,0,0,1-6.42,2.34h0A10,10,0,0,1,1502.61,706.49Zm-32.06-20.29a10,10,0,0,1,10-10h0a10,10,0,0,1,10,10h0a10,10,0,0,1-10,10h0A10,10,0,0,1,1470.55,686.2Z"/><path class="cls-4" d="M1134.36,264.73h0a10,10,0,0,1-4.82-13.29h0a10,10,0,0,1,13.29-4.83h0a10,10,0,0,1,4.83,13.29h0a10,10,0,0,1-9.07,5.77h0A9.89,9.89,0,0,1,1134.36,264.73Zm29.11-5.06a10,10,0,0,1,4.44-13.42h0a10,10,0,0,1,13.43,4.44h0a10,10,0,0,1-4.44,13.42h0a9.91,9.91,0,0,1-4.49,1.07h0A10,10,0,0,1,1163.47,259.67Zm-56-27.92a10,10,0,0,1,7.43-12h0a10,10,0,0,1,12,7.43h0a10,10,0,0,1-7.43,12h0a10.25,10.25,0,0,1-2.31.27h0A10,10,0,0,1,1107.5,231.75Zm83.48,6.39a10,10,0,0,1-7.78-11.81h0a10,10,0,0,1,11.81-7.78h0a10,10,0,0,1,7.78,11.81h0a10,10,0,0,1-9.79,8h0A10,10,0,0,1,1191,238.14Zm-72.63-33.87a10,10,0,0,1-1.63-14h0a10,10,0,0,1,14-1.64h0a10,10,0,0,1,1.64,14h0a10,10,0,0,1-7.85,3.8h0A9.91,9.91,0,0,1,1118.35,204.27Zm58.71-2.28a10,10,0,0,1,1.22-14.09h0a10,10,0,0,1,14.09,1.23h0a10,10,0,0,1-1.23,14.09h0a10,10,0,0,1-6.42,2.34h0A10,10,0,0,1,1177.06,202ZM1145,181.7a10,10,0,0,1,10-10h0a10,10,0,0,1,10,10h0a10,10,0,0,1-10,10h0A10,10,0,0,1,1145,181.7Z"/><path class="cls-4" d="M33,1264.5a7.5,7.5,0,0,1-7.5-7.5v-51a7.5,7.5,0,0,1,15,0v51A7.5,7.5,0,0,1,33,1264.5Z"/><path class="cls-4" d="M58.5,1239H7.5a7.5,7.5,0,0,1,0-15h51a7.5,7.5,0,0,1,0,15Z"/><path class="cls-4" d="M1044,1264.5a7.5,7.5,0,0,1-7.5-7.5v-51a7.5,7.5,0,0,1,15,0v51A7.5,7.5,0,0,1,1044,1264.5Z"/><path class="cls-4" d="M1069.5,1239h-51a7.5,7.5,0,0,1,0-15h51a7.5,7.5,0,0,1,0,15Z"/><path class="cls-4" d="M1188,598.5a7.5,7.5,0,0,1-7.5-7.5V540a7.5,7.5,0,0,1,15,0v51A7.5,7.5,0,0,1,1188,598.5Z"/><path class="cls-4" d="M1213.5,573h-51a7.5,7.5,0,0,1,0-15h51a7.5,7.5,0,0,1,0,15Z"/><path class="cls-4" d="M1519,89.5a7.5,7.5,0,0,1-7.5-7.5V31a7.5,7.5,0,0,1,15,0V82A7.5,7.5,0,0,1,1519,89.5Z"/><path class="cls-4" d="M1544.5,64h-51a7.5,7.5,0,0,1,0-15h51a7.5,7.5,0,0,1,0,15Z"/><path class="cls-4" d="M632,977.5a7.5,7.5,0,0,1-7.5-7.5V919a7.5,7.5,0,0,1,15,0v51A7.5,7.5,0,0,1,632,977.5Z"/><path class="cls-4" d="M657.5,952h-51a7.5,7.5,0,0,1,0-15h51a7.5,7.5,0,0,1,0,15Z"/><path class="cls-4" d="M951.13,803H58.34A39.78,39.78,0,0,1,18.5,763.37V38.44C18.5,17.24,36.06,0,57.65,0H951.79c21.35,0,38.71,17,38.71,38V763.85A39.3,39.3,0,0,1,951.13,803ZM57.65,15C44.33,15,33.5,25.51,33.5,38.44V763.37A24.77,24.77,0,0,0,58.34,788H951.13a24.28,24.28,0,0,0,24.37-24.15V38c0-12.68-10.63-23-23.71-23Z"/><path class="cls-4" d="M873.5,113H32.5a7.5,7.5,0,0,1,0-15h841a7.5,7.5,0,0,1,0,15Z"/><path class="cls-4" d="M207,106.5a7.5,7.5,0,0,1-7.5-7.5V15a7.5,7.5,0,0,1,15,0V99A7.5,7.5,0,0,1,207,106.5Z"/><path class="cls-4" d="M85,80.2A23.2,23.2,0,1,1,108.22,57,23.23,23.23,0,0,1,85,80.2Zm0-31.4a8.2,8.2,0,1,0,8.2,8.2A8.21,8.21,0,0,0,85,48.8Z"/><path class="cls-4" d="M148.18,80.2A23.2,23.2,0,1,1,171.38,57,23.23,23.23,0,0,1,148.18,80.2Zm0-31.4a8.2,8.2,0,1,0,8.2,8.2A8.21,8.21,0,0,0,148.18,48.8Z"/><path class="cls-4" d="M731.5,49h-490a7.5,7.5,0,0,1,0-15h490a7.5,7.5,0,0,1,0,15Z"/><path class="cls-4" d="M504.5,80h-263a7.5,7.5,0,0,1,0-15h263a7.5,7.5,0,0,1,0,15Z"/><path class="cls-4" d="M976.5,113h-42a7.5,7.5,0,0,1,0-15h42a7.5,7.5,0,0,1,0,15Z"/><path class="cls-4" d="M924.5,228h-153a7.5,7.5,0,0,1,0-15h153a7.5,7.5,0,0,1,0,15Z"/><path class="cls-4" d="M725.5,228H85.5a7.5,7.5,0,0,1,0-15h640a7.5,7.5,0,0,1,0,15Z"/><path class="cls-4" d="M924.5,343h-349a7.5,7.5,0,0,1,0-15h349a7.5,7.5,0,0,1,0,15Z"/><path class="cls-4" d="M529.5,343H85.5a7.5,7.5,0,0,1,0-15h444a7.5,7.5,0,0,1,0,15Z"/><path class="cls-4" d="M924.5,458h-227a7.5,7.5,0,0,1,0-15h227a7.5,7.5,0,0,1,0,15Z"/><path class="cls-4" d="M650.5,458H85.5a7.5,7.5,0,0,1,0-15h565a7.5,7.5,0,0,1,0,15Z"/><path class="cls-4" d="M924.5,573h-510a7.5,7.5,0,0,1,0-15h510a7.5,7.5,0,0,1,0,15Z"/><path class="cls-4" d="M366.5,573H85.5a7.5,7.5,0,0,1,0-15h281a7.5,7.5,0,0,1,0,15Z"/><path class="cls-4" d="M924.5,688h-313a7.5,7.5,0,0,1,0-15h313a7.5,7.5,0,0,1,0,15Z"/><path class="cls-4" d="M565.5,688H85.5a7.5,7.5,0,0,1,0-15h480a7.5,7.5,0,0,1,0,15Z"/><path class="cls-4" d="M766.3,258H731.5a7.5,7.5,0,0,1-7.5-7.5v-60a7.5,7.5,0,0,1,7.5-7.5h34.8a7.5,7.5,0,0,1,7.5,7.5v60A7.5,7.5,0,0,1,766.3,258ZM739,243h19.8V198H739Z"/><path class="cls-4" d="M570.3,373H535.5a7.5,7.5,0,0,1-7.5-7.5v-60a7.5,7.5,0,0,1,7.5-7.5h34.8a7.5,7.5,0,0,1,7.5,7.5v60A7.5,7.5,0,0,1,570.3,373ZM543,358h19.8V313H543Z"/><path class="cls-4" d="M690.3,488H655.5a7.5,7.5,0,0,1-7.5-7.5v-60a7.5,7.5,0,0,1,7.5-7.5h34.8a7.5,7.5,0,0,1,7.5,7.5v60A7.5,7.5,0,0,1,690.3,488ZM663,473h19.8V428H663Z"/><path class="cls-4" d="M407.8,603H373a7.5,7.5,0,0,1-7.5-7.5v-60A7.5,7.5,0,0,1,373,528h34.8a7.5,7.5,0,0,1,7.5,7.5v60A7.5,7.5,0,0,1,407.8,603Zm-27.3-15h19.8V543H380.5Z"/><path class="cls-4" d="M605.09,718H570.3a7.5,7.5,0,0,1-7.5-7.5v-60a7.5,7.5,0,0,1,7.5-7.5h34.79a7.5,7.5,0,0,1,7.5,7.5v60A7.5,7.5,0,0,1,605.09,718ZM577.8,703h19.79V658H577.8Z"/><path class="cls-4" d="M1358.05,1280.46c-116.11,0-210.56-94.46-210.56-210.56s94.45-210.56,210.56-210.56S1568.6,953.8,1568.6,1069.9,1474.15,1280.46,1358.05,1280.46Zm0-406.12c-107.84,0-195.56,87.73-195.56,195.56s87.72,195.56,195.56,195.56,195.55-87.73,195.55-195.56S1465.88,874.34,1358.05,874.34Z"/><path class="cls-4" d="M1358.05,1127.57a91.2,91.2,0,1,1,91.2-91.2A91.31,91.31,0,0,1,1358.05,1127.57Zm0-167.4a76.2,76.2,0,1,0,76.2,76.2A76.29,76.29,0,0,0,1358.05,960.17Z"/><path class="cls-4" d="M1469.6,1239.12a7.5,7.5,0,0,1-7.5-7.5,104.06,104.06,0,0,0-208.11,0,7.5,7.5,0,0,1-15,0,119.06,119.06,0,0,1,238.11,0A7.5,7.5,0,0,1,1469.6,1239.12Z"/><path class="cls-4" d="M504,850.5a7.5,7.5,0,0,1-7.5-7.5V830a7.5,7.5,0,0,1,15,0v13A7.5,7.5,0,0,1,504,850.5Z"/><path class="cls-4" d="M504,1012.5a7.5,7.5,0,0,1-7.5-7.5V976a7.5,7.5,0,0,1,15,0v29A7.5,7.5,0,0,1,504,1012.5Zm0-81a7.5,7.5,0,0,1-7.5-7.5V895a7.5,7.5,0,0,1,15,0v29A7.5,7.5,0,0,1,504,931.5Z"/><path class="cls-4" d="M516.5,1078H504a7.5,7.5,0,0,1-7.5-7.5V1058a7.5,7.5,0,0,1,15,0v5h5a7.5,7.5,0,0,1,0,15Z"/><path class="cls-4" d="M1052.5,1078h-24a7.5,7.5,0,0,1,0-15h24a7.5,7.5,0,0,1,0,15Zm-67,0h-24a7.5,7.5,0,0,1,0-15h24a7.5,7.5,0,0,1,0,15Zm-67,0h-24a7.5,7.5,0,0,1,0-15h24a7.5,7.5,0,0,1,0,15Zm-67,0h-24a7.5,7.5,0,0,1,0-15h24a7.5,7.5,0,0,1,0,15Zm-67,0h-24a7.5,7.5,0,0,1,0-15h24a7.5,7.5,0,0,1,0,15Zm-67,0h-24a7.5,7.5,0,0,1,0-15h24a7.5,7.5,0,0,1,0,15Zm-67,0h-24a7.5,7.5,0,0,1,0-15h24a7.5,7.5,0,0,1,0,15Zm-67,0h-24a7.5,7.5,0,0,1,0-15h24a7.5,7.5,0,0,1,0,15Z"/><path class="cls-4" d="M1112.5,1078h-13a7.5,7.5,0,0,1,0-15h13a7.5,7.5,0,0,1,0,15Z"/><path class="cls-4" d="M1358,855.5a7.5,7.5,0,0,1-7.5-7.5V836a7.5,7.5,0,0,1,15,0v12A7.5,7.5,0,0,1,1358,855.5Z"/><path class="cls-4" d="M1358,795.5a7.5,7.5,0,0,1-7.5-7.5V761a7.5,7.5,0,0,1,15,0v27A7.5,7.5,0,0,1,1358,795.5Zm0-75a7.5,7.5,0,0,1-7.5-7.5V686a7.5,7.5,0,0,1,15,0v27A7.5,7.5,0,0,1,1358,720.5Zm0-75a7.5,7.5,0,0,1-7.5-7.5V611a7.5,7.5,0,0,1,15,0v27A7.5,7.5,0,0,1,1358,645.5Zm0-75a7.5,7.5,0,0,1-7.5-7.5V536a7.5,7.5,0,0,1,15,0v27A7.5,7.5,0,0,1,1358,570.5Zm0-75a7.5,7.5,0,0,1-7.5-7.5V461a7.5,7.5,0,0,1,15,0v27A7.5,7.5,0,0,1,1358,495.5Z"/><path class="cls-4" d="M1358,422.5a7.5,7.5,0,0,1-7.5-7.5v-5h-5a7.5,7.5,0,0,1,0-15H1358a7.5,7.5,0,0,1,7.5,7.5V415A7.5,7.5,0,0,1,1358,422.5Z"/><path class="cls-4" d="M1301.5,410h-24a7.5,7.5,0,0,1,0-15h24a7.5,7.5,0,0,1,0,15Zm-68,0h-24a7.5,7.5,0,0,1,0-15h24a7.5,7.5,0,0,1,0,15Zm-68,0h-24a7.5,7.5,0,0,1,0-15h24a7.5,7.5,0,0,1,0,15Zm-68,0h-24a7.5,7.5,0,0,1,0-15h24a7.5,7.5,0,0,1,0,15Z"/><path class="cls-4" d="M1030.5,410h-12a7.5,7.5,0,0,1,0-15h12a7.5,7.5,0,0,1,0,15Z"/></g></g></svg>